  0
SECTION
  2
HEADER
  9
$ACADVER
  1
AC1014
  9
$HANDSEED
  5
FFFF
  9
$MEASUREMENT
 70
     1
  0
ENDSEC
  0
SECTION
  2
TABLES
  0
TABLE
  2
VPORT
  5
8
330
0
100
AcDbSymbolTable
 70
     4
  0
VPORT
  5
2E
330
8
100
AcDbSymbolTableRecord
100
AcDbViewportTableRecord
  2
*ACTIVE
 70
     0
 10
0.0
 20
0.0
 11
1.0
 21
1.0
 12
210.0
 22
148.5
 13
0.0
 23
0.0
 14
10.0
 24
10.0
 15
10.0
 25
10.0
 16
0.0
 26
0.0
 36
1.0
 17
0.0
 27
0.0
 37
0.0
 40
341.0
 41
1.24
 42
50.0
 43
0.0
 44
0.0
 50
0.0
 51
0.0
 71
     0
 72
   100
 73
     1
 74
     3
 75
     0
 76
     0
 77
     0
 78
     0
  0
ENDTAB
  0
TABLE
  2
LTYPE
  5
5
330
0
100
AcDbSymbolTable
 70
     1
  0
LTYPE
  5
14
330
5
100
AcDbSymbolTableRecord
100
AcDbLinetypeTableRecord
  2
BYBLOCK
 70
     0
  3

 72
    65
 73
     0
 40
0.0
  0
LTYPE
  5
15
330
5
100
AcDbSymbolTableRecord
100
AcDbLinetypeTableRecord
  2
BYLAYER
 70
     0
  3

 72
    65
 73
     0
 40
0.0
  0
LTYPE
  5
16
330
5
100
AcDbSymbolTableRecord
100
AcDbLinetypeTableRecord
  2
CONTINUOUS
 70
     0
  3
Solid line
 72
    65
 73
     0
 40
0.0
  0
ENDTAB
  0
TABLE
  2
LAYER
  5
2
100
AcDbSymbolTable
 70
2
  0
LAYER
  5
50
100
AcDbSymbolTableRecord
100
AcDbLayerTableRecord
  2
0
 70
0
  6
CONTINUOUS
  0
LAYER
  5
51
100
AcDbSymbolTableRecord
100
AcDbLayerTableRecord
  2
Layer_1
 70
0
  6
CONTINUOUS
  0
ENDTAB
  0
TABLE
  2
STYLE
  5
3
330
0
100
AcDbSymbolTable
 70
     1
  0
STYLE
  5
11
330
3
100
AcDbSymbolTableRecord
100
AcDbTextStyleTableRecord
  2
STANDARD
 70
     0
 40
0.0
 41
1.0
 50
0.0
 71
     0
 42
2.5
  3
txt
  4

  0
ENDTAB
  0
TABLE
  2
VIEW
  5
6
330
0
100
AcDbSymbolTable
 70
     0
  0
ENDTAB
  0
TABLE
  2
UCS
  5
7
330
0
100
AcDbSymbolTable
 70
     0
  0
ENDTAB
  0
TABLE
  2
APPID
  5
9
330
0
100
AcDbSymbolTable
 70
     2
  0
APPID
  5
12
330
9
100
AcDbSymbolTableRecord
100
AcDbRegAppTableRecord
  2
ACAD
 70
     0
  0
ENDTAB
  0
TABLE
  2
DIMSTYLE
  5
A
330
0
100
AcDbSymbolTable
 70
     1
  0
DIMSTYLE
105
27
330
A
100
AcDbSymbolTableRecord
100
AcDbDimStyleTableRecord
  2
ISO-25
 70
     0
  3

  4

  5

  6

  7

 40
1.0
 41
2.5
 42
0.625
 43
3.75
 44
1.25
 45
0.0
 46
0.0
 47
0.0
 48
0.0
140
2.5
141
2.5
142
0.0
143
0.03937007874016
144
1.0
145
0.0
146
1.0
147
0.625
 71
     0
 72
     0
 73
     0
 74
     0
 75
     0
 76
     0
 77
     1
 78
     8
170
     0
171
     3
172
     1
173
     0
174
     0
175
     0
176
     0
177
     0
178
     0
270
     2
271
     2
272
     2
273
     2
274
     3
340
11
275
     0
280
     0
281
     0
282
     0
283
     0
284
     8
285
     0
286
     0
287
     3
288
     0
  0
ENDTAB
  0
TABLE
  2
BLOCK_RECORD
  5
1
330
0
100
AcDbSymbolTable
 70
     1
  0
BLOCK_RECORD
  5
1F
330
1
100
AcDbSymbolTableRecord
100
AcDbBlockTableRecord
  2
*MODEL_SPACE
  0
BLOCK_RECORD
  5
1B
330
1
100
AcDbSymbolTableRecord
100
AcDbBlockTableRecord
  2
*PAPER_SPACE
  0
ENDTAB
  0
ENDSEC
  0
SECTION
  2
BLOCKS
  0
BLOCK
  5
20
330
1F
100
AcDbEntity
  8
0
100
AcDbBlockBegin
  2
*MODEL_SPACE
 70
     0
 10
0.0
 20
0.0
 30
0.0
  3
*MODEL_SPACE
  1

  0
ENDBLK
  5
21
330
1F
100
AcDbEntity
  8
0
100
AcDbBlockEnd
  0
BLOCK
  5
1C
330
1B
100
AcDbEntity
 67
     1
  8
0
100
AcDbBlockBegin
  2
*PAPER_SPACE
  1

  0
ENDBLK
  5
1D
330
1B
100
AcDbEntity
 67
     1
  8
0
100
AcDbBlockEnd
  0
ENDSEC
  0
SECTION
  2
ENTITIES
  0
LINE
  5
100
100
AcDbEntity
  8
Layer_1
 62
7
100
AcDbLine
 10
15.571845
 20
30.928163
 30
0.0
 11
504.428167
 21
30.928163
 31
0.0
  0
LINE
  5
101
100
AcDbEntity
  8
Layer_1
 62
7
100
AcDbLine
 10
509.928142
 20
25.428162
 30
0.0
 11
509.928142
 21
15.571850
 31
0.0
  0
SPLINE
  5
102
100
AcDbEntity
  8
Layer_1
 62
7
100
AcDbSpline
 70
0
 71
3
 72
10
 73
6
 74
4
 40
0.000000
 40
0.000000
 40
0.000000
 40
0.000000
 40
2.879214
 40
5.666675
 40
8.545901
 40
8.545901
 40
8.545901
 40
8.545901
 10
504.428167
 20
30.928163
 30
0.0
 10
505.393426
 20
30.778072
 30
0.0
 10
507.293184
 20
30.482674
 30
0.0
 10
509.482658
 20
28.293188
 30
0.0
 10
509.778053
 20
26.393426
 30
0.0
 10
509.928142
 20
25.428162
 30
0.0
 11
504.428167
 21
30.928163
 31
0.0
 11
507.208302
 21
30.179348
 31
0.0
 11
509.179330
 21
28.208311
 31
0.0
 11
509.928142
 21
25.428162
 31
0.0
  0
LINE
  5
103
100
AcDbEntity
  8
Layer_1
 62
7
100
AcDbLine
 10
504.428167
 20
10.071864
 30
0.0
 11
15.571845
 21
10.071864
 31
0.0
  0
SPLINE
  5
104
100
AcDbEntity
  8
Layer_1
 62
7
100
AcDbSpline
 70
0
 71
3
 72
10
 73
6
 74
4
 40
0.000000
 40
0.000000
 40
0.000000
 40
0.000000
 40
2.879221
 40
5.666678
 40
8.545891
 40
8.545891
 40
8.545891
 40
8.545891
 10
509.928142
 20
15.571850
 30
0.0
 10
509.778053
 20
14.606589
 30
0.0
 10
509.482658
 20
12.706830
 30
0.0
 10
507.293182
 20
10.517350
 30
0.0
 10
505.393426
 20
10.221954
 30
0.0
 10
504.428167
 20
10.071864
 30
0.0
 11
509.928142
 21
15.571850
 31
0.0
 11
509.179330
 21
12.791708
 31
0.0
 11
507.208302
 21
10.820676
 31
0.0
 11
504.428167
 21
10.071864
 31
0.0
  0
LINE
  5
105
100
AcDbEntity
  8
Layer_1
 62
7
100
AcDbLine
 10
10.071844
 20
15.571850
 30
0.0
 11
10.071844
 21
25.428162
 31
0.0
  0
SPLINE
  5
106
100
AcDbEntity
  8
Layer_1
 62
7
100
AcDbSpline
 70
0
 71
3
 72
10
 73
6
 74
4
 40
0.000000
 40
0.000000
 40
0.000000
 40
0.000000
 40
2.879226
 40
5.666690
 40
8.545911
 40
8.545911
 40
8.545911
 40
8.545911
 10
15.571845
 20
10.071864
 30
0.0
 10
14.606581
 20
10.221953
 30
0.0
 10
12.706819
 20
10.517349
 30
0.0
 10
10.517331
 20
12.706827
 30
0.0
 10
10.221934
 20
14.606589
 30
0.0
 10
10.071844
 20
15.571850
 30
0.0
 11
15.571845
 21
10.071864
 31
0.0
 11
12.791696
 21
10.820676
 31
0.0
 11
10.820659
 21
12.791708
 31
0.0
 11
10.071844
 21
15.571850
 31
0.0
  0
LINE
  5
107
100
AcDbEntity
  8
Layer_1
 62
7
100
AcDbLine
 10
15.571845
 20
30.928163
 30
0.0
 11
15.571845
 21
30.928163
 31
0.0
  0
SPLINE
  5
108
100
AcDbEntity
  8
Layer_1
 62
7
100
AcDbSpline
 70
0
 71
3
 72
10
 73
6
 74
4
 40
0.000000
 40
0.000000
 40
0.000000
 40
0.000000
 40
2.879227
 40
5.666695
 40
8.545922
 40
8.545922
 40
8.545922
 40
8.545922
 10
10.071844
 20
25.428162
 30
0.0
 10
10.221934
 20
26.393426
 30
0.0
 10
10.517331
 20
28.293190
 30
0.0
 10
12.706817
 20
30.482676
 30
0.0
 10
14.606581
 20
30.778073
 30
0.0
 10
15.571845
 20
30.928163
 30
0.0
 11
10.071844
 21
25.428162
 31
0.0
 11
10.820659
 21
28.208311
 31
0.0
 11
12.791696
 21
30.179348
 31
0.0
 11
15.571845
 21
30.928163
 31
0.0
  0
LINE
  5
109
100
AcDbEntity
  8
Layer_1
 62
7
100
AcDbLine
 10
37.450813
 20
20.499995
 30
0.0
 11
37.450813
 21
20.499995
 31
0.0
  0
SPLINE
  5
10a
100
AcDbEntity
  8
Layer_1
 62
7
100
AcDbSpline
 70
0
 71
3
 72
22
 73
18
 74
16
 40
0.000000
 40
0.000000
 40
0.000000
 40
0.000000
 40
1.281429
 40
2.524852
 40
3.806281
 40
5.087711
 40
6.331135
 40
7.612565
 40
8.254127
 40
8.890380
 40
9.531941
 40
10.173503
 40
10.809756
 40
11.451318
 40
12.732748
 40
13.976171
 40
15.257602
 40
15.257602
 40
15.257602
 40
15.257602
 10
37.450813
 20
20.499995
 30
0.0
 10
37.383452
 20
20.067956
 30
0.0
 10
37.250728
 20
19.216691
 30
0.0
 10
36.275027
 20
18.279548
 30
0.0
 10
35.002224
 20
17.932196
 30
0.0
 10
33.716211
 20
18.279827
 30
0.0
 10
32.779352
 20
19.215597
 30
0.0
 10
32.491675
 20
20.287607
 30
0.0
 10
32.605757
 20
21.141337
 30
0.0
 10
32.853141
 20
21.739490
 30
0.0
 10
33.247011
 20
22.252971
 30
0.0
 10
33.760560
 20
22.646858
 30
0.0
 10
34.358459
 20
22.894241
 30
0.0
 10
35.213456
 20
23.008301
 30
0.0
 10
36.275922
 20
22.720805
 30
0.0
 10
37.250500
 20
21.783208
 30
0.0
 10
37.383375
 20
20.932004
 30
0.0
 10
37.450813
 20
20.499995
 30
0.0
 11
37.450813
 21
20.499995
 31
0.0
 11
37.116205
 21
19.263024
 31
0.0
 11
36.236972
 21
18.383791
 31
0.0
 11
35.000001
 21
18.049183
 31
0.0
 11
33.763028
 21
18.383790
 31
0.0
 11
32.883794
 21
19.263023
 31
0.0
 11
32.549186
 21
20.499995
 31
0.0
 11
32.633152
 21
21.136039
 31
0.0
 11
32.876635
 21
21.723860
 31
0.0
 11
33.267012
 21
22.232983
 31
0.0
 11
33.776136
 21
22.623361
 31
0.0
 11
34.363957
 21
22.866844
 31
0.0
 11
35.000001
 21
22.950810
 31
0.0
 11
36.236973
 21
22.616201
 31
0.0
 11
37.116205
 21
21.736968
 31
0.0
 11
37.450813
 21
20.499995
 31
0.0
  0
LINE
  5
10b
100
AcDbEntity
  8
Layer_1
 62
7
100
AcDbLine
 10
87.450811
 20
20.499995
 30
0.0
 11
87.450811
 21
20.499995
 31
0.0
  0
SPLINE
  5
10c
100
AcDbEntity
  8
Layer_1
 62
7
100
AcDbSpline
 70
0
 71
3
 72
22
 73
18
 74
16
 40
0.000000
 40
0.000000
 40
0.000000
 40
0.000000
 40
1.281430
 40
2.524854
 40
3.806284
 40
5.087713
 40
6.331136
 40
7.612565
 40
8.893995
 40
10.137419
 40
11.418849
 40
12.060411
 40
12.696663
 40
13.338225
 40
13.979787
 40
14.616040
 40
15.257602
 40
15.257602
 40
15.257602
 40
15.257602
 10
87.450811
 20
20.499995
 30
0.0
 10
87.383451
 20
20.067957
 30
0.0
 10
87.250728
 20
19.216695
 30
0.0
 10
86.275017
 20
18.279526
 30
0.0
 10
85.002247
 20
17.932277
 30
0.0
 10
83.716110
 20
18.279529
 30
0.0
 10
82.779709
 20
19.216690
 30
0.0
 10
82.432154
 20
20.500021
 30
0.0
 10
82.779837
 20
21.783202
 30
0.0
 10
83.715603
 20
22.720807
 30
0.0
 10
84.787587
 20
23.008300
 30
0.0
 10
85.641378
 20
22.894243
 30
0.0
 10
86.239343
 20
22.646852
 30
0.0
 10
86.753530
 20
22.252991
 30
0.0
 10
87.144787
 20
21.739413
 30
0.0
 10
87.401932
 20
21.141620
 30
0.0
 10
87.434473
 20
20.714461
 30
0.0
 10
87.450811
 20
20.499995
 30
0.0
 11
87.450811
 21
20.499995
 31
0.0
 11
87.116203
 21
19.263023
 31
0.0
 11
86.236969
 21
18.383790
 31
0.0
 11
84.999997
 21
18.049183
 31
0.0
 11
83.763025
 21
18.383791
 31
0.0
 11
82.883793
 21
19.263024
 31
0.0
 11
82.549184
 21
20.499995
 31
0.0
 11
82.883792
 21
21.736968
 31
0.0
 11
83.763024
 21
22.616201
 31
0.0
 11
84.999997
 21
22.950810
 31
0.0
 11
85.636040
 21
22.866844
 31
0.0
 11
86.223861
 21
22.623361
 31
0.0
 11
86.732985
 21
22.232983
 31
0.0
 11
87.123362
 21
21.723860
 31
0.0
 11
87.366846
 21
21.136039
 31
0.0
 11
87.450811
 21
20.499995
 31
0.0
  0
LINE
  5
10d
100
AcDbEntity
  8
Layer_1
 62
7
100
AcDbLine
 10
187.450823
 20
20.499995
 30
0.0
 11
187.450823
 21
20.499995
 31
0.0
  0
SPLINE
  5
10e
100
AcDbEntity
  8
Layer_1
 62
7
100
AcDbSpline
 70
0
 71
3
 72
22
 73
18
 74
16
 40
0.000000
 40
0.000000
 40
0.000000
 40
0.000000
 40
1.281430
 40
2.524854
 40
3.806284
 40
5.087713
 40
6.331136
 40
7.612565
 40
8.893995
 40
10.137419
 40
11.418849
 40
12.060411
 40
12.696663
 40
13.338225
 40
13.979787
 40
14.616040
 40
15.257602
 40
15.257602
 40
15.257602
 40
15.257602
 10
187.450823
 20
20.499995
 30
0.0
 10
187.383463
 20
20.067957
 30
0.0
 10
187.250740
 20
19.216695
 30
0.0
 10
186.275029
 20
18.279526
 30
0.0
 10
185.002259
 20
17.932277
 30
0.0
 10
183.716122
 20
18.279529
 30
0.0
 10
182.779721
 20
19.216690
 30
0.0
 10
182.432166
 20
20.500021
 30
0.0
 10
182.779849
 20
21.783202
 30
0.0
 10
183.715614
 20
22.720807
 30
0.0
 10
184.787598
 20
23.008300
 30
0.0
 10
185.641389
 20
22.894243
 30
0.0
 10
186.239355
 20
22.646852
 30
0.0
 10
186.753541
 20
22.252991
 30
0.0
 10
187.144799
 20
21.739413
 30
0.0
 10
187.401944
 20
21.141620
 30
0.0
 10
187.434485
 20
20.714461
 30
0.0
 10
187.450823
 20
20.499995
 30
0.0
 11
187.450823
 21
20.499995
 31
0.0
 11
187.116214
 21
19.263023
 31
0.0
 11
186.236981
 21
18.383790
 31
0.0
 11
185.000008
 21
18.049183
 31
0.0
 11
183.763037
 21
18.383791
 31
0.0
 11
182.883804
 21
19.263024
 31
0.0
 11
182.549196
 21
20.499995
 31
0.0
 11
182.883803
 21
21.736968
 31
0.0
 11
183.763036
 21
22.616201
 31
0.0
 11
185.000008
 21
22.950810
 31
0.0
 11
185.636052
 21
22.866844
 31
0.0
 11
186.223873
 21
22.623361
 31
0.0
 11
186.732996
 21
22.232983
 31
0.0
 11
187.123374
 21
21.723860
 31
0.0
 11
187.366857
 21
21.136039
 31
0.0
 11
187.450823
 21
20.499995
 31
0.0
  0
LINE
  5
10f
100
AcDbEntity
  8
Layer_1
 62
7
100
AcDbLine
 10
137.450816
 20
20.499995
 30
0.0
 11
137.450816
 21
20.499995
 31
0.0
  0
SPLINE
  5
110
100
AcDbEntity
  8
Layer_1
 62
7
100
AcDbSpline
 70
0
 71
3
 72
22
 73
18
 74
16
 40
0.000000
 40
0.000000
 40
0.000000
 40
0.000000
 40
1.281429
 40
2.524852
 40
3.806281
 40
5.087711
 40
6.331135
 40
7.612565
 40
8.254127
 40
8.890380
 40
9.531941
 40
10.173503
 40
10.809756
 40
11.451318
 40
12.732748
 40
13.976171
 40
15.257602
 40
15.257602
 40
15.257602
 40
15.257602
 10
137.450816
 20
20.499995
 30
0.0
 10
137.383455
 20
20.067956
 30
0.0
 10
137.250731
 20
19.216691
 30
0.0
 10
136.275030
 20
18.279548
 30
0.0
 10
135.002227
 20
17.932196
 30
0.0
 10
133.716214
 20
18.279827
 30
0.0
 10
132.779355
 20
19.215597
 30
0.0
 10
132.491678
 20
20.287607
 30
0.0
 10
132.605760
 20
21.141337
 30
0.0
 10
132.853144
 20
21.739490
 30
0.0
 10
133.247014
 20
22.252971
 30
0.0
 10
133.760563
 20
22.646858
 30
0.0
 10
134.358462
 20
22.894241
 30
0.0
 10
135.213460
 20
23.008301
 30
0.0
 10
136.275925
 20
22.720805
 30
0.0
 10
137.250504
 20
21.783208
 30
0.0
 10
137.383378
 20
20.932004
 30
0.0
 10
137.450816
 20
20.499995
 30
0.0
 11
137.450816
 21
20.499995
 31
0.0
 11
137.116208
 21
19.263024
 31
0.0
 11
136.236975
 21
18.383791
 31
0.0
 11
135.000004
 21
18.049183
 31
0.0
 11
133.763031
 21
18.383790
 31
0.0
 11
132.883797
 21
19.263023
 31
0.0
 11
132.549189
 21
20.499995
 31
0.0
 11
132.633155
 21
21.136039
 31
0.0
 11
132.876638
 21
21.723860
 31
0.0
 11
133.267016
 21
22.232983
 31
0.0
 11
133.776139
 21
22.623361
 31
0.0
 11
134.363960
 21
22.866844
 31
0.0
 11
135.000004
 21
22.950810
 31
0.0
 11
136.236976
 21
22.616201
 31
0.0
 11
137.116209
 21
21.736968
 31
0.0
 11
137.450816
 21
20.499995
 31
0.0
  0
LINE
  5
111
100
AcDbEntity
  8
Layer_1
 62
7
100
AcDbLine
 10
237.450819
 20
20.499995
 30
0.0
 11
237.450819
 21
20.499995
 31
0.0
  0
SPLINE
  5
112
100
AcDbEntity
  8
Layer_1
 62
7
100
AcDbSpline
 70
0
 71
3
 72
22
 73
18
 74
16
 40
0.000000
 40
0.000000
 40
0.000000
 40
0.000000
 40
1.281429
 40
2.524852
 40
3.806281
 40
5.087711
 40
6.331135
 40
7.612565
 40
8.254127
 40
8.890380
 40
9.531941
 40
10.173503
 40
10.809756
 40
11.451318
 40
12.732748
 40
13.976171
 40
15.257602
 40
15.257602
 40
15.257602
 40
15.257602
 10
237.450819
 20
20.499995
 30
0.0
 10
237.383458
 20
20.067956
 30
0.0
 10
237.250734
 20
19.216691
 30
0.0
 10
236.275033
 20
18.279548
 30
0.0
 10
235.002230
 20
17.932196
 30
0.0
 10
233.716217
 20
18.279827
 30
0.0
 10
232.779358
 20
19.215597
 30
0.0
 10
232.491681
 20
20.287607
 30
0.0
 10
232.605764
 20
21.141337
 30
0.0
 10
232.853147
 20
21.739490
 30
0.0
 10
233.247017
 20
22.252971
 30
0.0
 10
233.760566
 20
22.646858
 30
0.0
 10
234.358465
 20
22.894241
 30
0.0
 10
235.213463
 20
23.008301
 30
0.0
 10
236.275928
 20
22.720805
 30
0.0
 10
237.250507
 20
21.783208
 30
0.0
 10
237.383382
 20
20.932004
 30
0.0
 10
237.450819
 20
20.499995
 30
0.0
 11
237.450819
 21
20.499995
 31
0.0
 11
237.116211
 21
19.263024
 31
0.0
 11
236.236978
 21
18.383791
 31
0.0
 11
235.000007
 21
18.049183
 31
0.0
 11
233.763034
 21
18.383790
 31
0.0
 11
232.883801
 21
19.263023
 31
0.0
 11
232.549192
 21
20.499995
 31
0.0
 11
232.633158
 21
21.136039
 31
0.0
 11
232.876641
 21
21.723860
 31
0.0
 11
233.267019
 21
22.232983
 31
0.0
 11
233.776143
 21
22.623361
 31
0.0
 11
234.363963
 21
22.866844
 31
0.0
 11
235.000007
 21
22.950810
 31
0.0
 11
236.236979
 21
22.616201
 31
0.0
 11
237.116212
 21
21.736968
 31
0.0
 11
237.450819
 21
20.499995
 31
0.0
  0
LINE
  5
113
100
AcDbEntity
  8
Layer_1
 62
7
100
AcDbLine
 10
287.450812
 20
20.499995
 30
0.0
 11
287.450812
 21
20.499995
 31
0.0
  0
SPLINE
  5
114
100
AcDbEntity
  8
Layer_1
 62
7
100
AcDbSpline
 70
0
 71
3
 72
31
 73
27
 74
25
 40
0.000000
 40
0.000000
 40
0.000000
 40
0.000000
 40
0.641562
 40
1.277815
 40
1.919376
 40
2.560938
 40
3.197191
 40
3.838753
 40
4.480315
 40
5.116568
 40
5.758129
 40
6.399691
 40
7.035944
 40
7.677506
 40
8.319068
 40
8.955321
 40
9.596884
 40
10.238446
 40
10.874699
 40
11.516262
 40
12.157824
 40
12.794077
 40
13.435640
 40
14.077202
 40
14.713455
 40
15.355017
 40
15.355017
 40
15.355017
 40
15.355017
 10
287.450812
 20
20.499995
 30
0.0
 10
287.434474
 20
20.285528
 30
0.0
 10
287.401934
 20
19.858370
 30
0.0
 10
287.144781
 20
19.260580
 30
0.0
 10
286.753549
 20
18.746987
 30
0.0
 10
286.239265
 20
18.353186
 30
0.0
 10
285.641659
 20
18.105574
 30
0.0
 10
284.999984
 20
18.020870
 30
0.0
 10
284.358372
 20
18.105574
 30
0.0
 10
283.760578
 20
18.353186
 30
0.0
 10
283.246985
 20
18.746987
 30
0.0
 10
282.853183
 20
19.260580
 30
0.0
 10
282.605570
 20
19.858370
 30
0.0
 10
282.520863
 20
20.499995
 30
0.0
 10
282.605569
 20
21.141621
 30
0.0
 10
282.853182
 20
21.739411
 30
0.0
 10
283.246984
 20
22.253005
 30
0.0
 10
283.760577
 20
22.646806
 30
0.0
 10
284.358371
 20
22.894419
 30
0.0
 10
284.999984
 20
22.979123
 30
0.0
 10
285.641659
 20
22.894419
 30
0.0
 10
286.239266
 20
22.646806
 30
0.0
 10
286.753550
 20
22.253005
 30
0.0
 10
287.144782
 20
21.739411
 30
0.0
 10
287.401934
 20
21.141621
 30
0.0
 10
287.434475
 20
20.714462
 30
0.0
 10
287.450812
 20
20.499995
 30
0.0
 11
287.450812
 21
20.499995
 31
0.0
 11
287.366846
 21
19.863952
 31
0.0
 11
287.123362
 21
19.276131
 31
0.0
 11
286.732984
 21
18.767008
 31
0.0
 11
286.223859
 21
18.376631
 31
0.0
 11
285.636038
 21
18.133148
 31
0.0
 11
284.999994
 21
18.049183
 31
0.0
 11
284.363951
 21
18.133148
 31
0.0
 11
283.776130
 21
18.376631
 31
0.0
 11
283.267005
 21
18.767008
 31
0.0
 11
282.876627
 21
19.276131
 31
0.0
 11
282.633143
 21
19.863952
 31
0.0
 11
282.549177
 21
20.499995
 31
0.0
 11
282.633143
 21
21.136039
 31
0.0
 11
282.876626
 21
21.723860
 31
0.0
 11
283.267004
 21
22.232984
 31
0.0
 11
283.776129
 21
22.623362
 31
0.0
 11
284.363950
 21
22.866845
 31
0.0
 11
284.999994
 21
22.950810
 31
0.0
 11
285.636039
 21
22.866845
 31
0.0
 11
286.223860
 21
22.623362
 31
0.0
 11
286.732984
 21
22.232984
 31
0.0
 11
287.123363
 21
21.723860
 31
0.0
 11
287.366846
 21
21.136039
 31
0.0
 11
287.450812
 21
20.499995
 31
0.0
  0
LINE
  5
115
100
AcDbEntity
  8
Layer_1
 62
7
100
AcDbLine
 10
387.450810
 20
20.499995
 30
0.0
 11
387.450810
 21
20.499995
 31
0.0
  0
SPLINE
  5
116
100
AcDbEntity
  8
Layer_1
 62
7
100
AcDbSpline
 70
0
 71
3
 72
31
 73
27
 74
25
 40
0.000000
 40
0.000000
 40
0.000000
 40
0.000000
 40
0.641562
 40
1.277815
 40
1.919376
 40
2.560938
 40
3.197191
 40
3.838753
 40
4.480315
 40
5.116568
 40
5.758129
 40
6.399691
 40
7.035944
 40
7.677506
 40
8.319068
 40
8.955321
 40
9.596884
 40
10.238446
 40
10.874699
 40
11.516262
 40
12.157824
 40
12.794077
 40
13.435640
 40
14.077202
 40
14.713455
 40
15.355017
 40
15.355017
 40
15.355017
 40
15.355017
 10
387.450810
 20
20.499995
 30
0.0
 10
387.434472
 20
20.285528
 30
0.0
 10
387.401931
 20
19.858370
 30
0.0
 10
387.144778
 20
19.260580
 30
0.0
 10
386.753546
 20
18.746987
 30
0.0
 10
386.239263
 20
18.353186
 30
0.0
 10
385.641656
 20
18.105574
 30
0.0
 10
384.999982
 20
18.020870
 30
0.0
 10
384.358369
 20
18.105574
 30
0.0
 10
383.760576
 20
18.353186
 30
0.0
 10
383.246983
 20
18.746987
 30
0.0
 10
382.853180
 20
19.260580
 30
0.0
 10
382.605567
 20
19.858370
 30
0.0
 10
382.520861
 20
20.499995
 30
0.0
 10
382.605567
 20
21.141621
 30
0.0
 10
382.853179
 20
21.739411
 30
0.0
 10
383.246981
 20
22.253005
 30
0.0
 10
383.760575
 20
22.646806
 30
0.0
 10
384.358369
 20
22.894419
 30
0.0
 10
384.999982
 20
22.979123
 30
0.0
 10
385.641657
 20
22.894419
 30
0.0
 10
386.239264
 20
22.646806
 30
0.0
 10
386.753547
 20
22.253005
 30
0.0
 10
387.144779
 20
21.739411
 30
0.0
 10
387.401932
 20
21.141621
 30
0.0
 10
387.434472
 20
20.714462
 30
0.0
 10
387.450810
 20
20.499995
 30
0.0
 11
387.450810
 21
20.499995
 31
0.0
 11
387.366843
 21
19.863952
 31
0.0
 11
387.123359
 21
19.276131
 31
0.0
 11
386.732981
 21
18.767008
 31
0.0
 11
386.223857
 21
18.376631
 31
0.0
 11
385.636036
 21
18.133148
 31
0.0
 11
384.999992
 21
18.049183
 31
0.0
 11
384.363948
 21
18.133148
 31
0.0
 11
383.776127
 21
18.376631
 31
0.0
 11
383.267003
 21
18.767008
 31
0.0
 11
382.876625
 21
19.276131
 31
0.0
 11
382.633141
 21
19.863952
 31
0.0
 11
382.549174
 21
20.499995
 31
0.0
 11
382.633140
 21
21.136039
 31
0.0
 11
382.876624
 21
21.723860
 31
0.0
 11
383.267002
 21
22.232984
 31
0.0
 11
383.776126
 21
22.623362
 31
0.0
 11
384.363948
 21
22.866845
 31
0.0
 11
384.999992
 21
22.950810
 31
0.0
 11
385.636036
 21
22.866845
 31
0.0
 11
386.223858
 21
22.623362
 31
0.0
 11
386.732982
 21
22.232984
 31
0.0
 11
387.123360
 21
21.723860
 31
0.0
 11
387.366844
 21
21.136039
 31
0.0
 11
387.450810
 21
20.499995
 31
0.0
  0
LINE
  5
117
100
AcDbEntity
  8
Layer_1
 62
7
100
AcDbLine
 10
487.450807
 20
20.499995
 30
0.0
 11
487.450807
 21
20.499995
 31
0.0
  0
SPLINE
  5
118
100
AcDbEntity
  8
Layer_1
 62
7
100
AcDbSpline
 70
0
 71
3
 72
31
 73
27
 74
25
 40
0.000000
 40
0.000000
 40
0.000000
 40
0.000000
 40
0.641562
 40
1.277815
 40
1.919376
 40
2.560938
 40
3.197191
 40
3.838753
 40
4.480315
 40
5.116568
 40
5.758129
 40
6.399691
 40
7.035944
 40
7.677506
 40
8.319068
 40
8.955321
 40
9.596884
 40
10.238446
 40
10.874699
 40
11.516262
 40
12.157824
 40
12.794077
 40
13.435640
 40
14.077202
 40
14.713455
 40
15.355017
 40
15.355017
 40
15.355017
 40
15.355017
 10
487.450807
 20
20.499995
 30
0.0
 10
487.434469
 20
20.285528
 30
0.0
 10
487.401929
 20
19.858370
 30
0.0
 10
487.144776
 20
19.260580
 30
0.0
 10
486.753544
 20
18.746987
 30
0.0
 10
486.239260
 20
18.353186
 30
0.0
 10
485.641654
 20
18.105574
 30
0.0
 10
484.999979
 20
18.020870
 30
0.0
 10
484.358367
 20
18.105574
 30
0.0
 10
483.760573
 20
18.353186
 30
0.0
 10
483.246980
 20
18.746987
 30
0.0
 10
482.853178
 20
19.260580
 30
0.0
 10
482.605565
 20
19.858370
 30
0.0
 10
482.520858
 20
20.499995
 30
0.0
 10
482.605564
 20
21.141621
 30
0.0
 10
482.853177
 20
21.739411
 30
0.0
 10
483.246979
 20
22.253005
 30
0.0
 10
483.760573
 20
22.646806
 30
0.0
 10
484.358366
 20
22.894419
 30
0.0
 10
484.999979
 20
22.979123
 30
0.0
 10
485.641654
 20
22.894419
 30
0.0
 10
486.239261
 20
22.646806
 30
0.0
 10
486.753545
 20
22.253005
 30
0.0
 10
487.144777
 20
21.739411
 30
0.0
 10
487.401930
 20
21.141621
 30
0.0
 10
487.434470
 20
20.714462
 30
0.0
 10
487.450807
 20
20.499995
 30
0.0
 11
487.450807
 21
20.499995
 31
0.0
 11
487.366841
 21
19.863952
 31
0.0
 11
487.123357
 21
19.276131
 31
0.0
 11
486.732979
 21
18.767008
 31
0.0
 11
486.223854
 21
18.376631
 31
0.0
 11
485.636033
 21
18.133148
 31
0.0
 11
484.999990
 21
18.049183
 31
0.0
 11
484.363946
 21
18.133148
 31
0.0
 11
483.776125
 21
18.376631
 31
0.0
 11
483.267000
 21
18.767008
 31
0.0
 11
482.876622
 21
19.276131
 31
0.0
 11
482.633138
 21
19.863952
 31
0.0
 11
482.549172
 21
20.499995
 31
0.0
 11
482.633138
 21
21.136039
 31
0.0
 11
482.876621
 21
21.723860
 31
0.0
 11
483.267000
 21
22.232984
 31
0.0
 11
483.776124
 21
22.623362
 31
0.0
 11
484.363945
 21
22.866845
 31
0.0
 11
484.999990
 21
22.950810
 31
0.0
 11
485.636034
 21
22.866845
 31
0.0
 11
486.223855
 21
22.623362
 31
0.0
 11
486.732980
 21
22.232984
 31
0.0
 11
487.123358
 21
21.723860
 31
0.0
 11
487.366841
 21
21.136039
 31
0.0
 11
487.450807
 21
20.499995
 31
0.0
  0
LINE
  5
119
100
AcDbEntity
  8
Layer_1
 62
7
100
AcDbLine
 10
337.450825
 20
20.499995
 30
0.0
 11
337.450825
 21
20.499995
 31
0.0
  0
SPLINE
  5
11a
100
AcDbEntity
  8
Layer_1
 62
7
100
AcDbSpline
 70
0
 71
3
 72
31
 73
27
 74
25
 40
0.000000
 40
0.000000
 40
0.000000
 40
0.000000
 40
0.641562
 40
1.277815
 40
1.919376
 40
2.560938
 40
3.197191
 40
3.838753
 40
4.480315
 40
5.116568
 40
5.758129
 40
6.399691
 40
7.035944
 40
7.677506
 40
8.319068
 40
8.955321
 40
9.596884
 40
10.238446
 40
10.874699
 40
11.516262
 40
12.157824
 40
12.794077
 40
13.435640
 40
14.077202
 40
14.713455
 40
15.355017
 40
15.355017
 40
15.355017
 40
15.355017
 10
337.450825
 20
20.499995
 30
0.0
 10
337.434487
 20
20.285528
 30
0.0
 10
337.401947
 20
19.858370
 30
0.0
 10
337.144794
 20
19.260580
 30
0.0
 10
336.753562
 20
18.746987
 30
0.0
 10
336.239278
 20
18.353186
 30
0.0
 10
335.641672
 20
18.105574
 30
0.0
 10
334.999997
 20
18.020870
 30
0.0
 10
334.358385
 20
18.105574
 30
0.0
 10
333.760591
 20
18.353186
 30
0.0
 10
333.246998
 20
18.746987
 30
0.0
 10
332.853196
 20
19.260580
 30
0.0
 10
332.605583
 20
19.858370
 30
0.0
 10
332.520876
 20
20.499995
 30
0.0
 10
332.605582
 20
21.141621
 30
0.0
 10
332.853195
 20
21.739411
 30
0.0
 10
333.246997
 20
22.253005
 30
0.0
 10
333.760590
 20
22.646806
 30
0.0
 10
334.358384
 20
22.894419
 30
0.0
 10
334.999997
 20
22.979123
 30
0.0
 10
335.641672
 20
22.894419
 30
0.0
 10
336.239279
 20
22.646806
 30
0.0
 10
336.753563
 20
22.253005
 30
0.0
 10
337.144795
 20
21.739411
 30
0.0
 10
337.401947
 20
21.141621
 30
0.0
 10
337.434487
 20
20.714462
 30
0.0
 10
337.450825
 20
20.499995
 30
0.0
 11
337.450825
 21
20.499995
 31
0.0
 11
337.366858
 21
19.863952
 31
0.0
 11
337.123375
 21
19.276131
 31
0.0
 11
336.732996
 21
18.767008
 31
0.0
 11
336.223872
 21
18.376631
 31
0.0
 11
335.636051
 21
18.133148
 31
0.0
 11
335.000007
 21
18.049183
 31
0.0
 11
334.363964
 21
18.133148
 31
0.0
 11
333.776143
 21
18.376631
 31
0.0
 11
333.267018
 21
18.767008
 31
0.0
 11
332.876640
 21
19.276131
 31
0.0
 11
332.633156
 21
19.863952
 31
0.0
 11
332.549190
 21
20.499995
 31
0.0
 11
332.633156
 21
21.136039
 31
0.0
 11
332.876639
 21
21.723860
 31
0.0
 11
333.267017
 21
22.232984
 31
0.0
 11
333.776142
 21
22.623362
 31
0.0
 11
334.363963
 21
22.866845
 31
0.0
 11
335.000007
 21
22.950810
 31
0.0
 11
335.636051
 21
22.866845
 31
0.0
 11
336.223873
 21
22.623362
 31
0.0
 11
336.732997
 21
22.232984
 31
0.0
 11
337.123375
 21
21.723860
 31
0.0
 11
337.366859
 21
21.136039
 31
0.0
 11
337.450825
 21
20.499995
 31
0.0
  0
LINE
  5
11b
100
AcDbEntity
  8
Layer_1
 62
7
100
AcDbLine
 10
437.450823
 20
20.499995
 30
0.0
 11
437.450823
 21
20.499995
 31
0.0
  0
LINE
  5
11c
100
AcDbEntity
  8
Layer_1
 62
7
100
AcDbLine
 10
15.571845
 20
51.928154
 30
0.0
 11
504.428167
 21
51.928154
 31
0.0
  0
SPLINE
  5
11d
100
AcDbEntity
  8
Layer_1
 62
7
100
AcDbSpline
 70
0
 71
3
 72
31
 73
27
 74
25
 40
0.000000
 40
0.000000
 40
0.000000
 40
0.000000
 40
0.641562
 40
1.277815
 40
1.919376
 40
2.560938
 40
3.197191
 40
3.838753
 40
4.480315
 40
5.116568
 40
5.758129
 40
6.399691
 40
7.035944
 40
7.677506
 40
8.319068
 40
8.955321
 40
9.596884
 40
10.238446
 40
10.874699
 40
11.516262
 40
12.157824
 40
12.794077
 40
13.435640
 40
14.077202
 40
14.713455
 40
15.355017
 40
15.355017
 40
15.355017
 40
15.355017
 10
437.450823
 20
20.499995
 30
0.0
 10
437.434485
 20
20.285528
 30
0.0
 10
437.401944
 20
19.858370
 30
0.0
 10
437.144791
 20
19.260580
 30
0.0
 10
436.753559
 20
18.746987
 30
0.0
 10
436.239276
 20
18.353186
 30
0.0
 10
435.641669
 20
18.105574
 30
0.0
 10
434.999994
 20
18.020870
 30
0.0
 10
434.358382
 20
18.105574
 30
0.0
 10
433.760589
 20
18.353186
 30
0.0
 10
433.246995
 20
18.746987
 30
0.0
 10
432.853193
 20
19.260580
 30
0.0
 10
432.605580
 20
19.858370
 30
0.0
 10
432.520874
 20
20.499995
 30
0.0
 10
432.605580
 20
21.141621
 30
0.0
 10
432.853192
 20
21.739411
 30
0.0
 10
433.246994
 20
22.253005
 30
0.0
 10
433.760588
 20
22.646806
 30
0.0
 10
434.358382
 20
22.894419
 30
0.0
 10
434.999994
 20
22.979123
 30
0.0
 10
435.641670
 20
22.894419
 30
0.0
 10
436.239277
 20
22.646806
 30
0.0
 10
436.753560
 20
22.253005
 30
0.0
 10
437.144792
 20
21.739411
 30
0.0
 10
437.401945
 20
21.141621
 30
0.0
 10
437.434485
 20
20.714462
 30
0.0
 10
437.450823
 20
20.499995
 30
0.0
 11
437.450823
 21
20.499995
 31
0.0
 11
437.366856
 21
19.863952
 31
0.0
 11
437.123372
 21
19.276131
 31
0.0
 11
436.732994
 21
18.767008
 31
0.0
 11
436.223870
 21
18.376631
 31
0.0
 11
435.636049
 21
18.133148
 31
0.0
 11
435.000005
 21
18.049183
 31
0.0
 11
434.363961
 21
18.133148
 31
0.0
 11
433.776140
 21
18.376631
 31
0.0
 11
433.267016
 21
18.767008
 31
0.0
 11
432.876638
 21
19.276131
 31
0.0
 11
432.633154
 21
19.863952
 31
0.0
 11
432.549187
 21
20.499995
 31
0.0
 11
432.633153
 21
21.136039
 31
0.0
 11
432.876637
 21
21.723860
 31
0.0
 11
433.267015
 21
22.232984
 31
0.0
 11
433.776139
 21
22.623362
 31
0.0
 11
434.363961
 21
22.866845
 31
0.0
 11
435.000005
 21
22.950810
 31
0.0
 11
435.636049
 21
22.866845
 31
0.0
 11
436.223871
 21
22.623362
 31
0.0
 11
436.732995
 21
22.232984
 31
0.0
 11
437.123373
 21
21.723860
 31
0.0
 11
437.366857
 21
21.136039
 31
0.0
 11
437.450823
 21
20.499995
 31
0.0
  0
LINE
  5
11e
100
AcDbEntity
  8
Layer_1
 62
7
100
AcDbLine
 10
509.928142
 20
46.428154
 30
0.0
 11
509.928142
 21
36.571845
 31
0.0
  0
SPLINE
  5
11f
100
AcDbEntity
  8
Layer_1
 62
7
100
AcDbSpline
 70
0
 71
3
 72
10
 73
6
 74
4
 40
0.000000
 40
0.000000
 40
0.000000
 40
0.000000
 40
2.879214
 40
5.666675
 40
8.545901
 40
8.545901
 40
8.545901
 40
8.545901
 10
504.428167
 20
51.928154
 30
0.0
 10
505.393426
 20
51.778064
 30
0.0
 10
507.293184
 20
51.482666
 30
0.0
 10
509.482658
 20
49.293179
 30
0.0
 10
509.778053
 20
47.393417
 30
0.0
 10
509.928142
 20
46.428154
 30
0.0
 11
504.428167
 21
51.928154
 31
0.0
 11
507.208302
 21
51.179340
 31
0.0
 11
509.179330
 21
49.208303
 31
0.0
 11
509.928142
 21
46.428154
 31
0.0
  0
LINE
  5
120
100
AcDbEntity
  8
Layer_1
 62
7
100
AcDbLine
 10
504.428167
 20
31.071845
 30
0.0
 11
15.571845
 21
31.071845
 31
0.0
  0
SPLINE
  5
121
100
AcDbEntity
  8
Layer_1
 62
7
100
AcDbSpline
 70
0
 71
3
 72
10
 73
6
 74
4
 40
0.000000
 40
0.000000
 40
0.000000
 40
0.000000
 40
2.879227
 40
5.666688
 40
8.545901
 40
8.545901
 40
8.545901
 40
8.545901
 10
509.928142
 20
36.571845
 30
0.0
 10
509.778053
 20
35.606582
 30
0.0
 10
509.482658
 20
33.706820
 30
0.0
 10
507.293184
 20
31.517333
 30
0.0
 10
505.393426
 20
31.221935
 30
0.0
 10
504.428167
 20
31.071845
 30
0.0
 11
509.928142
 21
36.571845
 31
0.0
 11
509.179330
 21
33.791696
 31
0.0
 11
507.208302
 21
31.820659
 31
0.0
 11
504.428167
 21
31.071845
 31
0.0
  0
LINE
  5
122
100
AcDbEntity
  8
Layer_1
 62
7
100
AcDbLine
 10
10.071844
 20
36.571845
 30
0.0
 11
10.071844
 21
46.428154
 31
0.0
  0
SPLINE
  5
123
100
AcDbEntity
  8
Layer_1
 62
7
100
AcDbSpline
 70
0
 71
3
 72
10
 73
6
 74
4
 40
0.000000
 40
0.000000
 40
0.000000
 40
0.000000
 40
2.879227
 40
5.666694
 40
8.545922
 40
8.545922
 40
8.545922
 40
8.545922
 10
15.571845
 20
31.071845
 30
0.0
 10
14.606581
 20
31.221935
 30
0.0
 10
12.706817
 20
31.517332
 30
0.0
 10
10.517331
 20
33.706817
 30
0.0
 10
10.221934
 20
35.606581
 30
0.0
 10
10.071844
 20
36.571845
 30
0.0
 11
15.571845
 21
31.071845
 31
0.0
 11
12.791696
 21
31.820659
 31
0.0
 11
10.820659
 21
33.791696
 31
0.0
 11
10.071844
 21
36.571845
 31
0.0
  0
LINE
  5
124
100
AcDbEntity
  8
Layer_1
 62
7
100
AcDbLine
 10
15.571845
 20
51.928154
 30
0.0
 11
15.571845
 21
51.928154
 31
0.0
  0
SPLINE
  5
125
100
AcDbEntity
  8
Layer_1
 62
7
100
AcDbSpline
 70
0
 71
3
 72
10
 73
6
 74
4
 40
0.000000
 40
0.000000
 40
0.000000
 40
0.000000
 40
2.879227
 40
5.666695
 40
8.545922
 40
8.545922
 40
8.545922
 40
8.545922
 10
10.071844
 20
46.428154
 30
0.0
 10
10.221934
 20
47.393418
 30
0.0
 10
10.517331
 20
49.293182
 30
0.0
 10
12.706817
 20
51.482668
 30
0.0
 10
14.606581
 20
51.778064
 30
0.0
 10
15.571845
 20
51.928154
 30
0.0
 11
10.071844
 21
46.428154
 31
0.0
 11
10.820659
 21
49.208303
 31
0.0
 11
12.791696
 21
51.179340
 31
0.0
 11
15.571845
 21
51.928154
 31
0.0
  0
LINE
  5
126
100
AcDbEntity
  8
Layer_1
 62
7
100
AcDbLine
 10
37.450818
 20
41.499990
 30
0.0
 11
37.450818
 21
41.499990
 31
0.0
  0
SPLINE
  5
127
100
AcDbEntity
  8
Layer_1
 62
7
100
AcDbSpline
 70
0
 71
3
 72
22
 73
18
 74
16
 40
0.000000
 40
0.000000
 40
0.000000
 40
0.000000
 40
0.641562
 40
1.277815
 40
1.919376
 40
2.560938
 40
3.197191
 40
3.838753
 40
5.120183
 40
6.363607
 40
7.645037
 40
8.926466
 40
10.169889
 40
11.451318
 40
12.732748
 40
13.976171
 40
15.257602
 40
15.257602
 40
15.257602
 40
15.257602
 10
37.450818
 20
41.499990
 30
0.0
 10
37.434480
 20
41.285523
 30
0.0
 10
37.401939
 20
40.858365
 30
0.0
 10
37.144794
 20
40.260571
 30
0.0
 10
36.753536
 20
39.746994
 30
0.0
 10
36.239350
 20
39.353132
 30
0.0
 10
35.641384
 20
39.105742
 30
0.0
 10
34.787593
 20
38.991685
 30
0.0
 10
33.715609
 20
39.279178
 30
0.0
 10
32.779844
 20
40.216783
 30
0.0
 10
32.432161
 20
41.499964
 30
0.0
 10
32.779716
 20
42.783295
 30
0.0
 10
33.716117
 20
43.720456
 30
0.0
 10
35.002254
 20
44.067708
 30
0.0
 10
36.275024
 20
43.720458
 30
0.0
 10
37.250735
 20
42.783289
 30
0.0
 10
37.383458
 20
41.932028
 30
0.0
 10
37.450818
 20
41.499990
 30
0.0
 11
37.450818
 21
41.499990
 31
0.0
 11
37.366852
 21
40.863946
 31
0.0
 11
37.123369
 21
40.276125
 31
0.0
 11
36.732992
 21
39.767002
 31
0.0
 11
36.223868
 21
39.376624
 31
0.0
 11
35.636047
 21
39.133141
 31
0.0
 11
35.000003
 21
39.049175
 31
0.0
 11
33.763031
 21
39.383783
 31
0.0
 11
32.883798
 21
40.263017
 31
0.0
 11
32.549191
 21
41.499990
 31
0.0
 11
32.883799
 21
42.736961
 31
0.0
 11
33.763032
 21
43.616194
 31
0.0
 11
35.000003
 21
43.950802
 31
0.0
 11
36.236976
 21
43.616195
 31
0.0
 11
37.116210
 21
42.736962
 31
0.0
 11
37.450818
 21
41.499990
 31
0.0
  0
LINE
  5
128
100
AcDbEntity
  8
Layer_1
 62
7
100
AcDbLine
 10
87.450811
 20
41.499990
 30
0.0
 11
87.450811
 21
41.499990
 31
0.0
  0
SPLINE
  5
129
100
AcDbEntity
  8
Layer_1
 62
7
100
AcDbSpline
 70
0
 71
3
 72
22
 73
18
 74
16
 40
0.000000
 40
0.000000
 40
0.000000
 40
0.000000
 40
0.641562
 40
1.277815
 40
1.919376
 40
2.560938
 40
3.197191
 40
3.838753
 40
5.120183
 40
6.363607
 40
7.645037
 40
8.926466
 40
10.169889
 40
11.451318
 40
12.732748
 40
13.976171
 40
15.257602
 40
15.257602
 40
15.257602
 40
15.257602
 10
87.450811
 20
41.499990
 30
0.0
 10
87.434473
 20
41.285523
 30
0.0
 10
87.401932
 20
40.858365
 30
0.0
 10
87.144787
 20
40.260571
 30
0.0
 10
86.753530
 20
39.746994
 30
0.0
 10
86.239343
 20
39.353132
 30
0.0
 10
85.641378
 20
39.105742
 30
0.0
 10
84.787587
 20
38.991685
 30
0.0
 10
83.715603
 20
39.279178
 30
0.0
 10
82.779837
 20
40.216783
 30
0.0
 10
82.432154
 20
41.499964
 30
0.0
 10
82.779709
 20
42.783295
 30
0.0
 10
83.716110
 20
43.720456
 30
0.0
 10
85.002247
 20
44.067708
 30
0.0
 10
86.275017
 20
43.720458
 30
0.0
 10
87.250728
 20
42.783289
 30
0.0
 10
87.383451
 20
41.932028
 30
0.0
 10
87.450811
 20
41.499990
 30
0.0
 11
87.450811
 21
41.499990
 31
0.0
 11
87.366846
 21
40.863946
 31
0.0
 11
87.123362
 21
40.276125
 31
0.0
 11
86.732985
 21
39.767002
 31
0.0
 11
86.223861
 21
39.376624
 31
0.0
 11
85.636040
 21
39.133141
 31
0.0
 11
84.999997
 21
39.049175
 31
0.0
 11
83.763024
 21
39.383783
 31
0.0
 11
82.883792
 21
40.263017
 31
0.0
 11
82.549184
 21
41.499990
 31
0.0
 11
82.883793
 21
42.736961
 31
0.0
 11
83.763025
 21
43.616194
 31
0.0
 11
84.999997
 21
43.950802
 31
0.0
 11
86.236969
 21
43.616195
 31
0.0
 11
87.116203
 21
42.736962
 31
0.0
 11
87.450811
 21
41.499990
 31
0.0
  0
LINE
  5
12a
100
AcDbEntity
  8
Layer_1
 62
7
100
AcDbLine
 10
187.450840
 20
41.499990
 30
0.0
 11
187.450840
 21
41.499990
 31
0.0
  0
SPLINE
  5
12b
100
AcDbEntity
  8
Layer_1
 62
7
100
AcDbSpline
 70
0
 71
3
 72
22
 73
18
 74
16
 40
0.000000
 40
0.000000
 40
0.000000
 40
0.000000
 40
0.641562
 40
1.277815
 40
1.919376
 40
2.560938
 40
3.197191
 40
3.838753
 40
5.120183
 40
6.363607
 40
7.645037
 40
8.926466
 40
10.169889
 40
11.451318
 40
12.732748
 40
13.976171
 40
15.257602
 40
15.257602
 40
15.257602
 40
15.257602
 10
187.450840
 20
41.499990
 30
0.0
 10
187.434502
 20
41.285523
 30
0.0
 10
187.401961
 20
40.858365
 30
0.0
 10
187.144816
 20
40.260571
 30
0.0
 10
186.753558
 20
39.746994
 30
0.0
 10
186.239372
 20
39.353132
 30
0.0
 10
185.641406
 20
39.105742
 30
0.0
 10
184.787615
 20
38.991685
 30
0.0
 10
183.715631
 20
39.279178
 30
0.0
 10
182.779866
 20
40.216783
 30
0.0
 10
182.432183
 20
41.499964
 30
0.0
 10
182.779738
 20
42.783295
 30
0.0
 10
183.716139
 20
43.720456
 30
0.0
 10
185.002275
 20
44.067708
 30
0.0
 10
186.275046
 20
43.720458
 30
0.0
 10
187.250757
 20
42.783289
 30
0.0
 10
187.383480
 20
41.932028
 30
0.0
 10
187.450840
 20
41.499990
 30
0.0
 11
187.450840
 21
41.499990
 31
0.0
 11
187.366874
 21
40.863946
 31
0.0
 11
187.123391
 21
40.276125
 31
0.0
 11
186.733013
 21
39.767002
 31
0.0
 11
186.223890
 21
39.376624
 31
0.0
 11
185.636069
 21
39.133141
 31
0.0
 11
185.000025
 21
39.049175
 31
0.0
 11
183.763053
 21
39.383783
 31
0.0
 11
182.883820
 21
40.263017
 31
0.0
 11
182.549213
 21
41.499990
 31
0.0
 11
182.883821
 21
42.736961
 31
0.0
 11
183.763054
 21
43.616194
 31
0.0
 11
185.000025
 21
43.950802
 31
0.0
 11
186.236998
 21
43.616195
 31
0.0
 11
187.116231
 21
42.736962
 31
0.0
 11
187.450840
 21
41.499990
 31
0.0
  0
LINE
  5
12c
100
AcDbEntity
  8
Layer_1
 62
7
100
AcDbLine
 10
137.450816
 20
41.499990
 30
0.0
 11
137.450816
 21
41.499990
 31
0.0
  0
SPLINE
  5
12d
100
AcDbEntity
  8
Layer_1
 62
7
100
AcDbSpline
 70
0
 71
3
 72
22
 73
18
 74
16
 40
0.000000
 40
0.000000
 40
0.000000
 40
0.000000
 40
1.281430
 40
2.524854
 40
3.806284
 40
4.447846
 40
5.084098
 40
5.725660
 40
6.367222
 40
7.003475
 40
7.645037
 40
8.926467
 40
10.169890
 40
11.451321
 40
12.732750
 40
13.976172
 40
15.257602
 40
15.257602
 40
15.257602
 40
15.257602
 10
137.450816
 20
41.499990
 30
0.0
 10
137.383378
 20
41.067981
 30
0.0
 10
137.250504
 20
40.216777
 30
0.0
 10
136.275925
 20
39.279180
 30
0.0
 10
135.213460
 20
38.991684
 30
0.0
 10
134.358462
 20
39.105744
 30
0.0
 10
133.760563
 20
39.353127
 30
0.0
 10
133.247014
 20
39.747014
 30
0.0
 10
132.853144
 20
40.260495
 30
0.0
 10
132.605760
 20
40.858648
 30
0.0
 10
132.491678
 20
41.712378
 30
0.0
 10
132.779355
 20
42.784388
 30
0.0
 10
133.716214
 20
43.720158
 30
0.0
 10
135.002227
 20
44.067789
 30
0.0
 10
136.275030
 20
43.720436
 30
0.0
 10
137.250731
 20
42.783294
 30
0.0
 10
137.383455
 20
41.932029
 30
0.0
 10
137.450816
 20
41.499990
 30
0.0
 11
137.450816
 21
41.499990
 31
0.0
 11
137.116209
 21
40.263017
 31
0.0
 11
136.236976
 21
39.383783
 31
0.0
 11
135.000004
 21
39.049175
 31
0.0
 11
134.363960
 21
39.133141
 31
0.0
 11
133.776139
 21
39.376624
 31
0.0
 11
133.267016
 21
39.767002
 31
0.0
 11
132.876638
 21
40.276125
 31
0.0
 11
132.633155
 21
40.863946
 31
0.0
 11
132.549189
 21
41.499990
 31
0.0
 11
132.883797
 21
42.736962
 31
0.0
 11
133.763031
 21
43.616195
 31
0.0
 11
135.000004
 21
43.950802
 31
0.0
 11
136.236975
 21
43.616194
 31
0.0
 11
137.116208
 21
42.736961
 31
0.0
 11
137.450816
 21
41.499990
 31
0.0
  0
LINE
  5
12e
100
AcDbEntity
  8
Layer_1
 62
7
100
AcDbLine
 10
237.450836
 20
41.499990
 30
0.0
 11
237.450836
 21
41.499990
 31
0.0
  0
SPLINE
  5
12f
100
AcDbEntity
  8
Layer_1
 62
7
100
AcDbSpline
 70
0
 71
3
 72
22
 73
18
 74
16
 40
0.000000
 40
0.000000
 40
0.000000
 40
0.000000
 40
1.281430
 40
2.524854
 40
3.806284
 40
4.447846
 40
5.084098
 40
5.725660
 40
6.367222
 40
7.003475
 40
7.645037
 40
8.926467
 40
10.169890
 40
11.451321
 40
12.732750
 40
13.976172
 40
15.257602
 40
15.257602
 40
15.257602
 40
15.257602
 10
237.450836
 20
41.499990
 30
0.0
 10
237.383399
 20
41.067981
 30
0.0
 10
237.250524
 20
40.216777
 30
0.0
 10
236.275945
 20
39.279180
 30
0.0
 10
235.213480
 20
38.991684
 30
0.0
 10
234.358482
 20
39.105744
 30
0.0
 10
233.760583
 20
39.353127
 30
0.0
 10
233.247034
 20
39.747014
 30
0.0
 10
232.853164
 20
40.260495
 30
0.0
 10
232.605781
 20
40.858648
 30
0.0
 10
232.491698
 20
41.712378
 30
0.0
 10
232.779375
 20
42.784388
 30
0.0
 10
233.716234
 20
43.720158
 30
0.0
 10
235.002247
 20
44.067789
 30
0.0
 10
236.275050
 20
43.720436
 30
0.0
 10
237.250751
 20
42.783294
 30
0.0
 10
237.383475
 20
41.932029
 30
0.0
 10
237.450836
 20
41.499990
 30
0.0
 11
237.450836
 21
41.499990
 31
0.0
 11
237.116229
 21
40.263017
 31
0.0
 11
236.236996
 21
39.383783
 31
0.0
 11
235.000024
 21
39.049175
 31
0.0
 11
234.363980
 21
39.133141
 31
0.0
 11
233.776159
 21
39.376624
 31
0.0
 11
233.267036
 21
39.767002
 31
0.0
 11
232.876658
 21
40.276125
 31
0.0
 11
232.633175
 21
40.863946
 31
0.0
 11
232.549209
 21
41.499990
 31
0.0
 11
232.883818
 21
42.736962
 31
0.0
 11
233.763051
 21
43.616195
 31
0.0
 11
235.000024
 21
43.950802
 31
0.0
 11
236.236995
 21
43.616194
 31
0.0
 11
237.116228
 21
42.736961
 31
0.0
 11
237.450836
 21
41.499990
 31
0.0
  0
LINE
  5
130
100
AcDbEntity
  8
Layer_1
 62
7
100
AcDbLine
 10
287.450840
 20
41.499990
 30
0.0
 11
287.450840
 21
41.499990
 31
0.0
  0
SPLINE
  5
131
100
AcDbEntity
  8
Layer_1
 62
7
100
AcDbSpline
 70
0
 71
3
 72
31
 73
27
 74
25
 40
0.000000
 40
0.000000
 40
0.000000
 40
0.000000
 40
0.641562
 40
1.277816
 40
1.919378
 40
2.560940
 40
3.197193
 40
3.838756
 40
4.480318
 40
5.116571
 40
5.758134
 40
6.399696
 40
7.035949
 40
7.677512
 40
8.319073
 40
8.955326
 40
9.596888
 40
10.238450
 40
10.874703
 40
11.516264
 40
12.157826
 40
12.794079
 40
13.435641
 40
14.077203
 40
14.713456
 40
15.355017
 40
15.355017
 40
15.355017
 40
15.355017
 10
287.450840
 20
41.499990
 30
0.0
 10
287.434503
 20
41.285523
 30
0.0
 10
287.401963
 20
40.858364
 30
0.0
 10
287.144810
 20
40.260574
 30
0.0
 10
286.753578
 20
39.746980
 30
0.0
 10
286.239294
 20
39.353179
 30
0.0
 10
285.641687
 20
39.105566
 30
0.0
 10
285.000012
 20
39.020862
 30
0.0
 10
284.358400
 20
39.105566
 30
0.0
 10
283.760606
 20
39.353179
 30
0.0
 10
283.247012
 20
39.746980
 30
0.0
 10
282.853210
 20
40.260574
 30
0.0
 10
282.605597
 20
40.858364
 30
0.0
 10
282.520891
 20
41.499990
 30
0.0
 10
282.605598
 20
42.141615
 30
0.0
 10
282.853211
 20
42.739404
 30
0.0
 10
283.247013
 20
43.252998
 30
0.0
 10
283.760607
 20
43.646799
 30
0.0
 10
284.358400
 20
43.894410
 30
0.0
 10
285.000012
 20
43.979115
 30
0.0
 10
285.641687
 20
43.894410
 30
0.0
 10
286.239293
 20
43.646799
 30
0.0
 10
286.753577
 20
43.252998
 30
0.0
 10
287.144809
 20
42.739404
 30
0.0
 10
287.401962
 20
42.141615
 30
0.0
 10
287.434503
 20
41.714456
 30
0.0
 10
287.450840
 20
41.499990
 30
0.0
 11
287.450840
 21
41.499990
 31
0.0
 11
287.366874
 21
40.863946
 31
0.0
 11
287.123391
 21
40.276124
 31
0.0
 11
286.733013
 21
39.767001
 31
0.0
 11
286.223888
 21
39.376623
 31
0.0
 11
285.636067
 21
39.133140
 31
0.0
 11
285.000023
 21
39.049175
 31
0.0
 11
284.363979
 21
39.133140
 31
0.0
 11
283.776157
 21
39.376623
 31
0.0
 11
283.267033
 21
39.767001
 31
0.0
 11
282.876655
 21
40.276124
 31
0.0
 11
282.633171
 21
40.863946
 31
0.0
 11
282.549205
 21
41.499990
 31
0.0
 11
282.633172
 21
42.136033
 31
0.0
 11
282.876655
 21
42.723854
 31
0.0
 11
283.267034
 21
43.232977
 31
0.0
 11
283.776158
 21
43.623354
 31
0.0
 11
284.363979
 21
43.866837
 31
0.0
 11
285.000023
 21
43.950802
 31
0.0
 11
285.636066
 21
43.866837
 31
0.0
 11
286.223887
 21
43.623354
 31
0.0
 11
286.733012
 21
43.232977
 31
0.0
 11
287.123390
 21
42.723854
 31
0.0
 11
287.366874
 21
42.136033
 31
0.0
 11
287.450840
 21
41.499990
 31
0.0
  0
LINE
  5
132
100
AcDbEntity
  8
Layer_1
 62
7
100
AcDbLine
 10
387.450810
 20
41.499990
 30
0.0
 11
387.450810
 21
41.499990
 31
0.0
  0
SPLINE
  5
133
100
AcDbEntity
  8
Layer_1
 62
7
100
AcDbSpline
 70
0
 71
3
 72
31
 73
27
 74
25
 40
0.000000
 40
0.000000
 40
0.000000
 40
0.000000
 40
0.641562
 40
1.277816
 40
1.919378
 40
2.560940
 40
3.197193
 40
3.838756
 40
4.480318
 40
5.116571
 40
5.758134
 40
6.399696
 40
7.035949
 40
7.677512
 40
8.319073
 40
8.955326
 40
9.596888
 40
10.238450
 40
10.874703
 40
11.516264
 40
12.157826
 40
12.794079
 40
13.435641
 40
14.077203
 40
14.713456
 40
15.355017
 40
15.355017
 40
15.355017
 40
15.355017
 10
387.450810
 20
41.499990
 30
0.0
 10
387.434472
 20
41.285523
 30
0.0
 10
387.401932
 20
40.858364
 30
0.0
 10
387.144779
 20
40.260574
 30
0.0
 10
386.753547
 20
39.746980
 30
0.0
 10
386.239264
 20
39.353179
 30
0.0
 10
385.641657
 20
39.105566
 30
0.0
 10
384.999982
 20
39.020862
 30
0.0
 10
384.358369
 20
39.105566
 30
0.0
 10
383.760575
 20
39.353179
 30
0.0
 10
383.246981
 20
39.746980
 30
0.0
 10
382.853179
 20
40.260574
 30
0.0
 10
382.605567
 20
40.858364
 30
0.0
 10
382.520861
 20
41.499990
 30
0.0
 10
382.605567
 20
42.141615
 30
0.0
 10
382.853180
 20
42.739404
 30
0.0
 10
383.246983
 20
43.252998
 30
0.0
 10
383.760576
 20
43.646799
 30
0.0
 10
384.358369
 20
43.894410
 30
0.0
 10
384.999982
 20
43.979115
 30
0.0
 10
385.641656
 20
43.894410
 30
0.0
 10
386.239263
 20
43.646799
 30
0.0
 10
386.753546
 20
43.252998
 30
0.0
 10
387.144778
 20
42.739404
 30
0.0
 10
387.401931
 20
42.141615
 30
0.0
 10
387.434472
 20
41.714456
 30
0.0
 10
387.450810
 20
41.499990
 30
0.0
 11
387.450810
 21
41.499990
 31
0.0
 11
387.366844
 21
40.863946
 31
0.0
 11
387.123360
 21
40.276124
 31
0.0
 11
386.732982
 21
39.767001
 31
0.0
 11
386.223858
 21
39.376623
 31
0.0
 11
385.636036
 21
39.133140
 31
0.0
 11
384.999992
 21
39.049175
 31
0.0
 11
384.363948
 21
39.133140
 31
0.0
 11
383.776126
 21
39.376623
 31
0.0
 11
383.267002
 21
39.767001
 31
0.0
 11
382.876624
 21
40.276124
 31
0.0
 11
382.633140
 21
40.863946
 31
0.0
 11
382.549174
 21
41.499990
 31
0.0
 11
382.633141
 21
42.136033
 31
0.0
 11
382.876625
 21
42.723854
 31
0.0
 11
383.267003
 21
43.232977
 31
0.0
 11
383.776127
 21
43.623354
 31
0.0
 11
384.363948
 21
43.866837
 31
0.0
 11
384.999992
 21
43.950802
 31
0.0
 11
385.636036
 21
43.866837
 31
0.0
 11
386.223857
 21
43.623354
 31
0.0
 11
386.732981
 21
43.232977
 31
0.0
 11
387.123359
 21
42.723854
 31
0.0
 11
387.366843
 21
42.136033
 31
0.0
 11
387.450810
 21
41.499990
 31
0.0
  0
LINE
  5
134
100
AcDbEntity
  8
Layer_1
 62
7
100
AcDbLine
 10
487.450807
 20
41.499990
 30
0.0
 11
487.450807
 21
41.499990
 31
0.0
  0
SPLINE
  5
135
100
AcDbEntity
  8
Layer_1
 62
7
100
AcDbSpline
 70
0
 71
3
 72
31
 73
27
 74
25
 40
0.000000
 40
0.000000
 40
0.000000
 40
0.000000
 40
0.641562
 40
1.277816
 40
1.919378
 40
2.560940
 40
3.197193
 40
3.838756
 40
4.480318
 40
5.116571
 40
5.758134
 40
6.399696
 40
7.035949
 40
7.677512
 40
8.319073
 40
8.955326
 40
9.596888
 40
10.238450
 40
10.874703
 40
11.516264
 40
12.157826
 40
12.794079
 40
13.435641
 40
14.077203
 40
14.713456
 40
15.355017
 40
15.355017
 40
15.355017
 40
15.355017
 10
487.450807
 20
41.499990
 30
0.0
 10
487.434470
 20
41.285523
 30
0.0
 10
487.401930
 20
40.858364
 30
0.0
 10
487.144777
 20
40.260574
 30
0.0
 10
486.753545
 20
39.746980
 30
0.0
 10
486.239261
 20
39.353179
 30
0.0
 10
485.641654
 20
39.105566
 30
0.0
 10
484.999979
 20
39.020862
 30
0.0
 10
484.358366
 20
39.105566
 30
0.0
 10
483.760573
 20
39.353179
 30
0.0
 10
483.246979
 20
39.746980
 30
0.0
 10
482.853177
 20
40.260574
 30
0.0
 10
482.605564
 20
40.858364
 30
0.0
 10
482.520858
 20
41.499990
 30
0.0
 10
482.605565
 20
42.141615
 30
0.0
 10
482.853178
 20
42.739404
 30
0.0
 10
483.246980
 20
43.252998
 30
0.0
 10
483.760573
 20
43.646799
 30
0.0
 10
484.358367
 20
43.894410
 30
0.0
 10
484.999979
 20
43.979115
 30
0.0
 10
485.641654
 20
43.894410
 30
0.0
 10
486.239260
 20
43.646799
 30
0.0
 10
486.753544
 20
43.252998
 30
0.0
 10
487.144776
 20
42.739404
 30
0.0
 10
487.401929
 20
42.141615
 30
0.0
 10
487.434469
 20
41.714456
 30
0.0
 10
487.450807
 20
41.499990
 30
0.0
 11
487.450807
 21
41.499990
 31
0.0
 11
487.366841
 21
40.863946
 31
0.0
 11
487.123358
 21
40.276124
 31
0.0
 11
486.732980
 21
39.767001
 31
0.0
 11
486.223855
 21
39.376623
 31
0.0
 11
485.636034
 21
39.133140
 31
0.0
 11
484.999990
 21
39.049175
 31
0.0
 11
484.363945
 21
39.133140
 31
0.0
 11
483.776124
 21
39.376623
 31
0.0
 11
483.267000
 21
39.767001
 31
0.0
 11
482.876621
 21
40.276124
 31
0.0
 11
482.633138
 21
40.863946
 31
0.0
 11
482.549172
 21
41.499990
 31
0.0
 11
482.633138
 21
42.136033
 31
0.0
 11
482.876622
 21
42.723854
 31
0.0
 11
483.267000
 21
43.232977
 31
0.0
 11
483.776125
 21
43.623354
 31
0.0
 11
484.363946
 21
43.866837
 31
0.0
 11
484.999990
 21
43.950802
 31
0.0
 11
485.636033
 21
43.866837
 31
0.0
 11
486.223854
 21
43.623354
 31
0.0
 11
486.732979
 21
43.232977
 31
0.0
 11
487.123357
 21
42.723854
 31
0.0
 11
487.366841
 21
42.136033
 31
0.0
 11
487.450807
 21
41.499990
 31
0.0
  0
LINE
  5
136
100
AcDbEntity
  8
Layer_1
 62
7
100
AcDbLine
 10
337.450825
 20
41.499990
 30
0.0
 11
337.450825
 21
41.499990
 31
0.0
  0
SPLINE
  5
137
100
AcDbEntity
  8
Layer_1
 62
7
100
AcDbSpline
 70
0
 71
3
 72
31
 73
27
 74
25
 40
0.000000
 40
0.000000
 40
0.000000
 40
0.000000
 40
0.641562
 40
1.277816
 40
1.919378
 40
2.560940
 40
3.197193
 40
3.838756
 40
4.480318
 40
5.116571
 40
5.758134
 40
6.399696
 40
7.035949
 40
7.677512
 40
8.319073
 40
8.955326
 40
9.596888
 40
10.238450
 40
10.874703
 40
11.516264
 40
12.157826
 40
12.794079
 40
13.435641
 40
14.077203
 40
14.713456
 40
15.355017
 40
15.355017
 40
15.355017
 40
15.355017
 10
337.450825
 20
41.499990
 30
0.0
 10
337.434487
 20
41.285523
 30
0.0
 10
337.401947
 20
40.858364
 30
0.0
 10
337.144795
 20
40.260574
 30
0.0
 10
336.753563
 20
39.746980
 30
0.0
 10
336.239279
 20
39.353179
 30
0.0
 10
335.641672
 20
39.105566
 30
0.0
 10
334.999997
 20
39.020862
 30
0.0
 10
334.358384
 20
39.105566
 30
0.0
 10
333.760590
 20
39.353179
 30
0.0
 10
333.246997
 20
39.746980
 30
0.0
 10
332.853195
 20
40.260574
 30
0.0
 10
332.605582
 20
40.858364
 30
0.0
 10
332.520876
 20
41.499990
 30
0.0
 10
332.605583
 20
42.141615
 30
0.0
 10
332.853196
 20
42.739404
 30
0.0
 10
333.246998
 20
43.252998
 30
0.0
 10
333.760591
 20
43.646799
 30
0.0
 10
334.358385
 20
43.894410
 30
0.0
 10
334.999997
 20
43.979115
 30
0.0
 10
335.641672
 20
43.894410
 30
0.0
 10
336.239278
 20
43.646799
 30
0.0
 10
336.753562
 20
43.252998
 30
0.0
 10
337.144794
 20
42.739404
 30
0.0
 10
337.401947
 20
42.141615
 30
0.0
 10
337.434487
 20
41.714456
 30
0.0
 10
337.450825
 20
41.499990
 30
0.0
 11
337.450825
 21
41.499990
 31
0.0
 11
337.366859
 21
40.863946
 31
0.0
 11
337.123375
 21
40.276124
 31
0.0
 11
336.732997
 21
39.767001
 31
0.0
 11
336.223873
 21
39.376623
 31
0.0
 11
335.636051
 21
39.133140
 31
0.0
 11
335.000007
 21
39.049175
 31
0.0
 11
334.363963
 21
39.133140
 31
0.0
 11
333.776142
 21
39.376623
 31
0.0
 11
333.267017
 21
39.767001
 31
0.0
 11
332.876639
 21
40.276124
 31
0.0
 11
332.633156
 21
40.863946
 31
0.0
 11
332.549190
 21
41.499990
 31
0.0
 11
332.633156
 21
42.136033
 31
0.0
 11
332.876640
 21
42.723854
 31
0.0
 11
333.267018
 21
43.232977
 31
0.0
 11
333.776143
 21
43.623354
 31
0.0
 11
334.363964
 21
43.866837
 31
0.0
 11
335.000007
 21
43.950802
 31
0.0
 11
335.636051
 21
43.866837
 31
0.0
 11
336.223872
 21
43.623354
 31
0.0
 11
336.732996
 21
43.232977
 31
0.0
 11
337.123375
 21
42.723854
 31
0.0
 11
337.366858
 21
42.136033
 31
0.0
 11
337.450825
 21
41.499990
 31
0.0
  0
LINE
  5
138
100
AcDbEntity
  8
Layer_1
 62
7
100
AcDbLine
 10
437.450823
 20
41.499990
 30
0.0
 11
437.450823
 21
41.499990
 31
0.0
  0
LINE
  5
139
100
AcDbEntity
  8
Layer_1
 62
7
100
AcDbLine
 10
15.571845
 20
72.928149
 30
0.0
 11
504.428167
 21
72.928149
 31
0.0
  0
SPLINE
  5
13a
100
AcDbEntity
  8
Layer_1
 62
7
100
AcDbSpline
 70
0
 71
3
 72
31
 73
27
 74
25
 40
0.000000
 40
0.000000
 40
0.000000
 40
0.000000
 40
0.641562
 40
1.277816
 40
1.919378
 40
2.560940
 40
3.197193
 40
3.838756
 40
4.480318
 40
5.116571
 40
5.758134
 40
6.399696
 40
7.035949
 40
7.677512
 40
8.319073
 40
8.955326
 40
9.596888
 40
10.238450
 40
10.874703
 40
11.516264
 40
12.157826
 40
12.794079
 40
13.435641
 40
14.077203
 40
14.713456
 40
15.355017
 40
15.355017
 40
15.355017
 40
15.355017
 10
437.450823
 20
41.499990
 30
0.0
 10
437.434485
 20
41.285523
 30
0.0
 10
437.401945
 20
40.858364
 30
0.0
 10
437.144792
 20
40.260574
 30
0.0
 10
436.753560
 20
39.746980
 30
0.0
 10
436.239277
 20
39.353179
 30
0.0
 10
435.641670
 20
39.105566
 30
0.0
 10
434.999994
 20
39.020862
 30
0.0
 10
434.358382
 20
39.105566
 30
0.0
 10
433.760588
 20
39.353179
 30
0.0
 10
433.246994
 20
39.746980
 30
0.0
 10
432.853192
 20
40.260574
 30
0.0
 10
432.605580
 20
40.858364
 30
0.0
 10
432.520874
 20
41.499990
 30
0.0
 10
432.605580
 20
42.141615
 30
0.0
 10
432.853193
 20
42.739404
 30
0.0
 10
433.246995
 20
43.252998
 30
0.0
 10
433.760589
 20
43.646799
 30
0.0
 10
434.358382
 20
43.894410
 30
0.0
 10
434.999994
 20
43.979115
 30
0.0
 10
435.641669
 20
43.894410
 30
0.0
 10
436.239276
 20
43.646799
 30
0.0
 10
436.753559
 20
43.252998
 30
0.0
 10
437.144791
 20
42.739404
 30
0.0
 10
437.401944
 20
42.141615
 30
0.0
 10
437.434485
 20
41.714456
 30
0.0
 10
437.450823
 20
41.499990
 30
0.0
 11
437.450823
 21
41.499990
 31
0.0
 11
437.366857
 21
40.863946
 31
0.0
 11
437.123373
 21
40.276124
 31
0.0
 11
436.732995
 21
39.767001
 31
0.0
 11
436.223871
 21
39.376623
 31
0.0
 11
435.636049
 21
39.133140
 31
0.0
 11
435.000005
 21
39.049175
 31
0.0
 11
434.363961
 21
39.133140
 31
0.0
 11
433.776139
 21
39.376623
 31
0.0
 11
433.267015
 21
39.767001
 31
0.0
 11
432.876637
 21
40.276124
 31
0.0
 11
432.633153
 21
40.863946
 31
0.0
 11
432.549187
 21
41.499990
 31
0.0
 11
432.633154
 21
42.136033
 31
0.0
 11
432.876638
 21
42.723854
 31
0.0
 11
433.267016
 21
43.232977
 31
0.0
 11
433.776140
 21
43.623354
 31
0.0
 11
434.363961
 21
43.866837
 31
0.0
 11
435.000005
 21
43.950802
 31
0.0
 11
435.636049
 21
43.866837
 31
0.0
 11
436.223870
 21
43.623354
 31
0.0
 11
436.732994
 21
43.232977
 31
0.0
 11
437.123372
 21
42.723854
 31
0.0
 11
437.366856
 21
42.136033
 31
0.0
 11
437.450823
 21
41.499990
 31
0.0
  0
LINE
  5
13b
100
AcDbEntity
  8
Layer_1
 62
7
100
AcDbLine
 10
509.928142
 20
67.428149
 30
0.0
 11
509.928142
 21
57.571837
 31
0.0
  0
SPLINE
  5
13c
100
AcDbEntity
  8
Layer_1
 62
7
100
AcDbSpline
 70
0
 71
3
 72
10
 73
6
 74
4
 40
0.000000
 40
0.000000
 40
0.000000
 40
0.000000
 40
2.879214
 40
5.666676
 40
8.545901
 40
8.545901
 40
8.545901
 40
8.545901
 10
504.428167
 20
72.928149
 30
0.0
 10
505.393426
 20
72.778059
 30
0.0
 10
507.293184
 20
72.482660
 30
0.0
 10
509.482658
 20
70.293173
 30
0.0
 10
509.778053
 20
68.393412
 30
0.0
 10
509.928142
 20
67.428149
 30
0.0
 11
504.428167
 21
72.928149
 31
0.0
 11
507.208302
 21
72.179334
 31
0.0
 11
509.179330
 21
70.208296
 31
0.0
 11
509.928142
 21
67.428149
 31
0.0
  0
LINE
  5
13d
100
AcDbEntity
  8
Layer_1
 62
7
100
AcDbLine
 10
504.428167
 20
52.071837
 30
0.0
 11
15.571845
 21
52.071837
 31
0.0
  0
SPLINE
  5
13e
100
AcDbEntity
  8
Layer_1
 62
7
100
AcDbSpline
 70
0
 71
3
 72
10
 73
6
 74
4
 40
0.000000
 40
0.000000
 40
0.000000
 40
0.000000
 40
2.879227
 40
5.666688
 40
8.545901
 40
8.545901
 40
8.545901
 40
8.545901
 10
509.928142
 20
57.571837
 30
0.0
 10
509.778053
 20
56.606574
 30
0.0
 10
509.482658
 20
54.706812
 30
0.0
 10
507.293184
 20
52.517325
 30
0.0
 10
505.393426
 20
52.221927
 30
0.0
 10
504.428167
 20
52.071837
 30
0.0
 11
509.928142
 21
57.571837
 31
0.0
 11
509.179330
 21
54.791688
 31
0.0
 11
507.208302
 21
52.820651
 31
0.0
 11
504.428167
 21
52.071837
 31
0.0
  0
LINE
  5
13f
100
AcDbEntity
  8
Layer_1
 62
7
100
AcDbLine
 10
10.071844
 20
57.571837
 30
0.0
 11
10.071844
 21
67.428149
 31
0.0
  0
SPLINE
  5
140
100
AcDbEntity
  8
Layer_1
 62
7
100
AcDbSpline
 70
0
 71
3
 72
10
 73
6
 74
4
 40
0.000000
 40
0.000000
 40
0.000000
 40
0.000000
 40
2.879227
 40
5.666694
 40
8.545922
 40
8.545922
 40
8.545922
 40
8.545922
 10
15.571845
 20
52.071837
 30
0.0
 10
14.606581
 20
52.221927
 30
0.0
 10
12.706817
 20
52.517323
 30
0.0
 10
10.517331
 20
54.706809
 30
0.0
 10
10.221934
 20
56.606573
 30
0.0
 10
10.071844
 20
57.571837
 30
0.0
 11
15.571845
 21
52.071837
 31
0.0
 11
12.791696
 21
52.820651
 31
0.0
 11
10.820659
 21
54.791688
 31
0.0
 11
10.071844
 21
57.571837
 31
0.0
  0
LINE
  5
141
100
AcDbEntity
  8
Layer_1
 62
7
100
AcDbLine
 10
15.571845
 20
72.928149
 30
0.0
 11
15.571845
 21
72.928149
 31
0.0
  0
SPLINE
  5
142
100
AcDbEntity
  8
Layer_1
 62
7
100
AcDbSpline
 70
0
 71
3
 72
10
 73
6
 74
4
 40
0.000000
 40
0.000000
 40
0.000000
 40
0.000000
 40
2.879226
 40
5.666694
 40
8.545921
 40
8.545921
 40
8.545921
 40
8.545921
 10
10.071844
 20
67.428149
 30
0.0
 10
10.221934
 20
68.393412
 30
0.0
 10
10.517332
 20
70.293176
 30
0.0
 10
12.706817
 20
72.482662
 30
0.0
 10
14.606581
 20
72.778059
 30
0.0
 10
15.571845
 20
72.928149
 30
0.0
 11
10.071844
 21
67.428149
 31
0.0
 11
10.820659
 21
70.208296
 31
0.0
 11
12.791696
 21
72.179334
 31
0.0
 11
15.571845
 21
72.928149
 31
0.0
  0
LINE
  5
143
100
AcDbEntity
  8
Layer_1
 62
7
100
AcDbLine
 10
37.450813
 20
62.499982
 30
0.0
 11
37.450813
 21
62.499982
 31
0.0
  0
SPLINE
  5
144
100
AcDbEntity
  8
Layer_1
 62
7
100
AcDbSpline
 70
0
 71
3
 72
22
 73
18
 74
16
 40
0.000000
 40
0.000000
 40
0.000000
 40
0.000000
 40
1.281429
 40
2.524852
 40
3.806281
 40
5.087711
 40
6.331135
 40
7.612565
 40
8.254127
 40
8.890380
 40
9.531941
 40
10.173503
 40
10.809756
 40
11.451318
 40
12.732748
 40
13.976171
 40
15.257602
 40
15.257602
 40
15.257602
 40
15.257602
 10
37.450813
 20
62.499982
 30
0.0
 10
37.383452
 20
62.067942
 30
0.0
 10
37.250728
 20
61.216677
 30
0.0
 10
36.275027
 20
60.279535
 30
0.0
 10
35.002224
 20
59.932182
 30
0.0
 10
33.716211
 20
60.279813
 30
0.0
 10
32.779352
 20
61.215583
 30
0.0
 10
32.491675
 20
62.287594
 30
0.0
 10
32.605757
 20
63.141324
 30
0.0
 10
32.853141
 20
63.739476
 30
0.0
 10
33.247011
 20
64.252957
 30
0.0
 10
33.760560
 20
64.646844
 30
0.0
 10
34.358459
 20
64.894228
 30
0.0
 10
35.213456
 20
65.008288
 30
0.0
 10
36.275922
 20
64.720791
 30
0.0
 10
37.250500
 20
63.783195
 30
0.0
 10
37.383375
 20
62.931990
 30
0.0
 10
37.450813
 20
62.499982
 30
0.0
 11
37.450813
 21
62.499982
 31
0.0
 11
37.116205
 21
61.263010
 31
0.0
 11
36.236972
 21
60.383778
 31
0.0
 11
35.000001
 21
60.049169
 31
0.0
 11
33.763028
 21
60.383777
 31
0.0
 11
32.883794
 21
61.263009
 31
0.0
 11
32.549186
 21
62.499982
 31
0.0
 11
32.633152
 21
63.136025
 31
0.0
 11
32.876635
 21
63.723846
 31
0.0
 11
33.267012
 21
64.232970
 31
0.0
 11
33.776136
 21
64.623347
 31
0.0
 11
34.363957
 21
64.866831
 31
0.0
 11
35.000001
 21
64.950797
 31
0.0
 11
36.236973
 21
64.616188
 31
0.0
 11
37.116205
 21
63.736954
 31
0.0
 11
37.450813
 21
62.499982
 31
0.0
  0
LINE
  5
145
100
AcDbEntity
  8
Layer_1
 62
7
100
AcDbLine
 10
87.450811
 20
62.499982
 30
0.0
 11
87.450811
 21
62.499982
 31
0.0
  0
SPLINE
  5
146
100
AcDbEntity
  8
Layer_1
 62
7
100
AcDbSpline
 70
0
 71
3
 72
22
 73
18
 74
16
 40
0.000000
 40
0.000000
 40
0.000000
 40
0.000000
 40
1.281430
 40
2.524854
 40
3.806284
 40
5.087713
 40
6.331136
 40
7.612565
 40
8.893995
 40
10.137419
 40
11.418849
 40
12.060411
 40
12.696663
 40
13.338225
 40
13.979787
 40
14.616040
 40
15.257602
 40
15.257602
 40
15.257602
 40
15.257602
 10
87.450811
 20
62.499982
 30
0.0
 10
87.383451
 20
62.067944
 30
0.0
 10
87.250728
 20
61.216682
 30
0.0
 10
86.275017
 20
60.279513
 30
0.0
 10
85.002247
 20
59.932263
 30
0.0
 10
83.716110
 20
60.279516
 30
0.0
 10
82.779709
 20
61.216676
 30
0.0
 10
82.432154
 20
62.500007
 30
0.0
 10
82.779837
 20
63.783188
 30
0.0
 10
83.715603
 20
64.720793
 30
0.0
 10
84.787587
 20
65.008286
 30
0.0
 10
85.641378
 20
64.894229
 30
0.0
 10
86.239343
 20
64.646839
 30
0.0
 10
86.753530
 20
64.252978
 30
0.0
 10
87.144787
 20
63.739400
 30
0.0
 10
87.401932
 20
63.141606
 30
0.0
 10
87.434473
 20
62.714448
 30
0.0
 10
87.450811
 20
62.499982
 30
0.0
 11
87.450811
 21
62.499982
 31
0.0
 11
87.116203
 21
61.263009
 31
0.0
 11
86.236969
 21
60.383777
 31
0.0
 11
84.999997
 21
60.049169
 31
0.0
 11
83.763025
 21
60.383778
 31
0.0
 11
82.883793
 21
61.263010
 31
0.0
 11
82.549184
 21
62.499982
 31
0.0
 11
82.883792
 21
63.736954
 31
0.0
 11
83.763024
 21
64.616188
 31
0.0
 11
84.999997
 21
64.950797
 31
0.0
 11
85.636040
 21
64.866831
 31
0.0
 11
86.223861
 21
64.623347
 31
0.0
 11
86.732985
 21
64.232970
 31
0.0
 11
87.123362
 21
63.723846
 31
0.0
 11
87.366846
 21
63.136025
 31
0.0
 11
87.450811
 21
62.499982
 31
0.0
  0
LINE
  5
147
100
AcDbEntity
  8
Layer_1
 62
7
100
AcDbLine
 10
187.450823
 20
62.499982
 30
0.0
 11
187.450823
 21
62.499982
 31
0.0
  0
SPLINE
  5
148
100
AcDbEntity
  8
Layer_1
 62
7
100
AcDbSpline
 70
0
 71
3
 72
22
 73
18
 74
16
 40
0.000000
 40
0.000000
 40
0.000000
 40
0.000000
 40
1.281430
 40
2.524854
 40
3.806284
 40
5.087713
 40
6.331136
 40
7.612565
 40
8.893995
 40
10.137419
 40
11.418849
 40
12.060411
 40
12.696663
 40
13.338225
 40
13.979787
 40
14.616040
 40
15.257602
 40
15.257602
 40
15.257602
 40
15.257602
 10
187.450823
 20
62.499982
 30
0.0
 10
187.383463
 20
62.067944
 30
0.0
 10
187.250740
 20
61.216682
 30
0.0
 10
186.275029
 20
60.279513
 30
0.0
 10
185.002259
 20
59.932263
 30
0.0
 10
183.716122
 20
60.279516
 30
0.0
 10
182.779721
 20
61.216676
 30
0.0
 10
182.432166
 20
62.500007
 30
0.0
 10
182.779849
 20
63.783188
 30
0.0
 10
183.715614
 20
64.720793
 30
0.0
 10
184.787598
 20
65.008286
 30
0.0
 10
185.641389
 20
64.894229
 30
0.0
 10
186.239355
 20
64.646839
 30
0.0
 10
186.753541
 20
64.252978
 30
0.0
 10
187.144799
 20
63.739400
 30
0.0
 10
187.401944
 20
63.141606
 30
0.0
 10
187.434485
 20
62.714448
 30
0.0
 10
187.450823
 20
62.499982
 30
0.0
 11
187.450823
 21
62.499982
 31
0.0
 11
187.116214
 21
61.263009
 31
0.0
 11
186.236981
 21
60.383777
 31
0.0
 11
185.000008
 21
60.049169
 31
0.0
 11
183.763037
 21
60.383778
 31
0.0
 11
182.883804
 21
61.263010
 31
0.0
 11
182.549196
 21
62.499982
 31
0.0
 11
182.883803
 21
63.736954
 31
0.0
 11
183.763036
 21
64.616188
 31
0.0
 11
185.000008
 21
64.950797
 31
0.0
 11
185.636052
 21
64.866831
 31
0.0
 11
186.223873
 21
64.623347
 31
0.0
 11
186.732996
 21
64.232970
 31
0.0
 11
187.123374
 21
63.723846
 31
0.0
 11
187.366857
 21
63.136025
 31
0.0
 11
187.450823
 21
62.499982
 31
0.0
  0
LINE
  5
149
100
AcDbEntity
  8
Layer_1
 62
7
100
AcDbLine
 10
137.450816
 20
62.499982
 30
0.0
 11
137.450816
 21
62.499982
 31
0.0
  0
SPLINE
  5
14a
100
AcDbEntity
  8
Layer_1
 62
7
100
AcDbSpline
 70
0
 71
3
 72
22
 73
18
 74
16
 40
0.000000
 40
0.000000
 40
0.000000
 40
0.000000
 40
1.281429
 40
2.524852
 40
3.806281
 40
5.087711
 40
6.331135
 40
7.612565
 40
8.254127
 40
8.890380
 40
9.531941
 40
10.173503
 40
10.809756
 40
11.451318
 40
12.732748
 40
13.976171
 40
15.257602
 40
15.257602
 40
15.257602
 40
15.257602
 10
137.450816
 20
62.499982
 30
0.0
 10
137.383455
 20
62.067942
 30
0.0
 10
137.250731
 20
61.216677
 30
0.0
 10
136.275030
 20
60.279535
 30
0.0
 10
135.002227
 20
59.932182
 30
0.0
 10
133.716214
 20
60.279813
 30
0.0
 10
132.779355
 20
61.215583
 30
0.0
 10
132.491678
 20
62.287594
 30
0.0
 10
132.605760
 20
63.141324
 30
0.0
 10
132.853144
 20
63.739476
 30
0.0
 10
133.247014
 20
64.252957
 30
0.0
 10
133.760563
 20
64.646844
 30
0.0
 10
134.358462
 20
64.894228
 30
0.0
 10
135.213460
 20
65.008288
 30
0.0
 10
136.275925
 20
64.720791
 30
0.0
 10
137.250504
 20
63.783195
 30
0.0
 10
137.383378
 20
62.931990
 30
0.0
 10
137.450816
 20
62.499982
 30
0.0
 11
137.450816
 21
62.499982
 31
0.0
 11
137.116208
 21
61.263010
 31
0.0
 11
136.236975
 21
60.383778
 31
0.0
 11
135.000004
 21
60.049169
 31
0.0
 11
133.763031
 21
60.383777
 31
0.0
 11
132.883797
 21
61.263009
 31
0.0
 11
132.549189
 21
62.499982
 31
0.0
 11
132.633155
 21
63.136025
 31
0.0
 11
132.876638
 21
63.723846
 31
0.0
 11
133.267016
 21
64.232970
 31
0.0
 11
133.776139
 21
64.623347
 31
0.0
 11
134.363960
 21
64.866831
 31
0.0
 11
135.000004
 21
64.950797
 31
0.0
 11
136.236976
 21
64.616188
 31
0.0
 11
137.116209
 21
63.736954
 31
0.0
 11
137.450816
 21
62.499982
 31
0.0
  0
LINE
  5
14b
100
AcDbEntity
  8
Layer_1
 62
7
100
AcDbLine
 10
237.450819
 20
62.499982
 30
0.0
 11
237.450819
 21
62.499982
 31
0.0
  0
SPLINE
  5
14c
100
AcDbEntity
  8
Layer_1
 62
7
100
AcDbSpline
 70
0
 71
3
 72
22
 73
18
 74
16
 40
0.000000
 40
0.000000
 40
0.000000
 40
0.000000
 40
1.281429
 40
2.524852
 40
3.806281
 40
5.087711
 40
6.331135
 40
7.612565
 40
8.254127
 40
8.890380
 40
9.531941
 40
10.173503
 40
10.809756
 40
11.451318
 40
12.732748
 40
13.976171
 40
15.257602
 40
15.257602
 40
15.257602
 40
15.257602
 10
237.450819
 20
62.499982
 30
0.0
 10
237.383458
 20
62.067942
 30
0.0
 10
237.250734
 20
61.216677
 30
0.0
 10
236.275033
 20
60.279535
 30
0.0
 10
235.002230
 20
59.932182
 30
0.0
 10
233.716217
 20
60.279813
 30
0.0
 10
232.779358
 20
61.215583
 30
0.0
 10
232.491681
 20
62.287594
 30
0.0
 10
232.605764
 20
63.141324
 30
0.0
 10
232.853147
 20
63.739476
 30
0.0
 10
233.247017
 20
64.252957
 30
0.0
 10
233.760566
 20
64.646844
 30
0.0
 10
234.358465
 20
64.894228
 30
0.0
 10
235.213463
 20
65.008288
 30
0.0
 10
236.275928
 20
64.720791
 30
0.0
 10
237.250507
 20
63.783195
 30
0.0
 10
237.383382
 20
62.931990
 30
0.0
 10
237.450819
 20
62.499982
 30
0.0
 11
237.450819
 21
62.499982
 31
0.0
 11
237.116211
 21
61.263010
 31
0.0
 11
236.236978
 21
60.383778
 31
0.0
 11
235.000007
 21
60.049169
 31
0.0
 11
233.763034
 21
60.383777
 31
0.0
 11
232.883801
 21
61.263009
 31
0.0
 11
232.549192
 21
62.499982
 31
0.0
 11
232.633158
 21
63.136025
 31
0.0
 11
232.876641
 21
63.723846
 31
0.0
 11
233.267019
 21
64.232970
 31
0.0
 11
233.776143
 21
64.623347
 31
0.0
 11
234.363963
 21
64.866831
 31
0.0
 11
235.000007
 21
64.950797
 31
0.0
 11
236.236979
 21
64.616188
 31
0.0
 11
237.116212
 21
63.736954
 31
0.0
 11
237.450819
 21
62.499982
 31
0.0
  0
LINE
  5
14d
100
AcDbEntity
  8
Layer_1
 62
7
100
AcDbLine
 10
287.450812
 20
62.499982
 30
0.0
 11
287.450812
 21
62.499982
 31
0.0
  0
SPLINE
  5
14e
100
AcDbEntity
  8
Layer_1
 62
7
100
AcDbSpline
 70
0
 71
3
 72
31
 73
27
 74
25
 40
0.000000
 40
0.000000
 40
0.000000
 40
0.000000
 40
0.641562
 40
1.277815
 40
1.919376
 40
2.560938
 40
3.197191
 40
3.838753
 40
4.480315
 40
5.116568
 40
5.758129
 40
6.399691
 40
7.035944
 40
7.677506
 40
8.319068
 40
8.955321
 40
9.596884
 40
10.238446
 40
10.874699
 40
11.516262
 40
12.157824
 40
12.794077
 40
13.435640
 40
14.077202
 40
14.713455
 40
15.355017
 40
15.355017
 40
15.355017
 40
15.355017
 10
287.450812
 20
62.499982
 30
0.0
 10
287.434474
 20
62.285515
 30
0.0
 10
287.401934
 20
61.858356
 30
0.0
 10
287.144781
 20
61.260567
 30
0.0
 10
286.753549
 20
60.746974
 30
0.0
 10
286.239265
 20
60.353173
 30
0.0
 10
285.641659
 20
60.105561
 30
0.0
 10
284.999984
 20
60.020857
 30
0.0
 10
284.358372
 20
60.105561
 30
0.0
 10
283.760578
 20
60.353173
 30
0.0
 10
283.246985
 20
60.746974
 30
0.0
 10
282.853183
 20
61.260567
 30
0.0
 10
282.605570
 20
61.858356
 30
0.0
 10
282.520863
 20
62.499982
 30
0.0
 10
282.605569
 20
63.141607
 30
0.0
 10
282.853182
 20
63.739397
 30
0.0
 10
283.246984
 20
64.252992
 30
0.0
 10
283.760577
 20
64.646793
 30
0.0
 10
284.358371
 20
64.894405
 30
0.0
 10
284.999984
 20
64.979109
 30
0.0
 10
285.641659
 20
64.894405
 30
0.0
 10
286.239266
 20
64.646793
 30
0.0
 10
286.753550
 20
64.252992
 30
0.0
 10
287.144782
 20
63.739397
 30
0.0
 10
287.401934
 20
63.141607
 30
0.0
 10
287.434475
 20
62.714448
 30
0.0
 10
287.450812
 20
62.499982
 30
0.0
 11
287.450812
 21
62.499982
 31
0.0
 11
287.366846
 21
61.863938
 31
0.0
 11
287.123362
 21
61.276118
 31
0.0
 11
286.732984
 21
60.766994
 31
0.0
 11
286.223859
 21
60.376617
 31
0.0
 11
285.636038
 21
60.133135
 31
0.0
 11
284.999994
 21
60.049169
 31
0.0
 11
284.363951
 21
60.133135
 31
0.0
 11
283.776130
 21
60.376617
 31
0.0
 11
283.267005
 21
60.766994
 31
0.0
 11
282.876627
 21
61.276118
 31
0.0
 11
282.633143
 21
61.863938
 31
0.0
 11
282.549177
 21
62.499982
 31
0.0
 11
282.633143
 21
63.136026
 31
0.0
 11
282.876626
 21
63.723847
 31
0.0
 11
283.267004
 21
64.232971
 31
0.0
 11
283.776129
 21
64.623348
 31
0.0
 11
284.363950
 21
64.866831
 31
0.0
 11
284.999994
 21
64.950797
 31
0.0
 11
285.636039
 21
64.866831
 31
0.0
 11
286.223860
 21
64.623348
 31
0.0
 11
286.732984
 21
64.232971
 31
0.0
 11
287.123363
 21
63.723847
 31
0.0
 11
287.366846
 21
63.136026
 31
0.0
 11
287.450812
 21
62.499982
 31
0.0
  0
LINE
  5
14f
100
AcDbEntity
  8
Layer_1
 62
7
100
AcDbLine
 10
387.450810
 20
62.499982
 30
0.0
 11
387.450810
 21
62.499982
 31
0.0
  0
SPLINE
  5
150
100
AcDbEntity
  8
Layer_1
 62
7
100
AcDbSpline
 70
0
 71
3
 72
31
 73
27
 74
25
 40
0.000000
 40
0.000000
 40
0.000000
 40
0.000000
 40
0.641562
 40
1.277815
 40
1.919376
 40
2.560938
 40
3.197191
 40
3.838753
 40
4.480315
 40
5.116568
 40
5.758129
 40
6.399691
 40
7.035944
 40
7.677506
 40
8.319068
 40
8.955321
 40
9.596884
 40
10.238446
 40
10.874699
 40
11.516262
 40
12.157824
 40
12.794077
 40
13.435640
 40
14.077202
 40
14.713455
 40
15.355017
 40
15.355017
 40
15.355017
 40
15.355017
 10
387.450810
 20
62.499982
 30
0.0
 10
387.434472
 20
62.285515
 30
0.0
 10
387.401931
 20
61.858356
 30
0.0
 10
387.144778
 20
61.260567
 30
0.0
 10
386.753546
 20
60.746974
 30
0.0
 10
386.239263
 20
60.353173
 30
0.0
 10
385.641656
 20
60.105561
 30
0.0
 10
384.999982
 20
60.020857
 30
0.0
 10
384.358369
 20
60.105561
 30
0.0
 10
383.760576
 20
60.353173
 30
0.0
 10
383.246983
 20
60.746974
 30
0.0
 10
382.853180
 20
61.260567
 30
0.0
 10
382.605567
 20
61.858356
 30
0.0
 10
382.520861
 20
62.499982
 30
0.0
 10
382.605567
 20
63.141607
 30
0.0
 10
382.853179
 20
63.739397
 30
0.0
 10
383.246981
 20
64.252992
 30
0.0
 10
383.760575
 20
64.646793
 30
0.0
 10
384.358369
 20
64.894405
 30
0.0
 10
384.999982
 20
64.979109
 30
0.0
 10
385.641657
 20
64.894405
 30
0.0
 10
386.239264
 20
64.646793
 30
0.0
 10
386.753547
 20
64.252992
 30
0.0
 10
387.144779
 20
63.739397
 30
0.0
 10
387.401932
 20
63.141607
 30
0.0
 10
387.434472
 20
62.714448
 30
0.0
 10
387.450810
 20
62.499982
 30
0.0
 11
387.450810
 21
62.499982
 31
0.0
 11
387.366843
 21
61.863938
 31
0.0
 11
387.123359
 21
61.276118
 31
0.0
 11
386.732981
 21
60.766994
 31
0.0
 11
386.223857
 21
60.376617
 31
0.0
 11
385.636036
 21
60.133135
 31
0.0
 11
384.999992
 21
60.049169
 31
0.0
 11
384.363948
 21
60.133135
 31
0.0
 11
383.776127
 21
60.376617
 31
0.0
 11
383.267003
 21
60.766994
 31
0.0
 11
382.876625
 21
61.276118
 31
0.0
 11
382.633141
 21
61.863938
 31
0.0
 11
382.549174
 21
62.499982
 31
0.0
 11
382.633140
 21
63.136026
 31
0.0
 11
382.876624
 21
63.723847
 31
0.0
 11
383.267002
 21
64.232971
 31
0.0
 11
383.776126
 21
64.623348
 31
0.0
 11
384.363948
 21
64.866831
 31
0.0
 11
384.999992
 21
64.950797
 31
0.0
 11
385.636036
 21
64.866831
 31
0.0
 11
386.223858
 21
64.623348
 31
0.0
 11
386.732982
 21
64.232971
 31
0.0
 11
387.123360
 21
63.723847
 31
0.0
 11
387.366844
 21
63.136026
 31
0.0
 11
387.450810
 21
62.499982
 31
0.0
  0
LINE
  5
151
100
AcDbEntity
  8
Layer_1
 62
7
100
AcDbLine
 10
487.450807
 20
62.499982
 30
0.0
 11
487.450807
 21
62.499982
 31
0.0
  0
SPLINE
  5
152
100
AcDbEntity
  8
Layer_1
 62
7
100
AcDbSpline
 70
0
 71
3
 72
31
 73
27
 74
25
 40
0.000000
 40
0.000000
 40
0.000000
 40
0.000000
 40
0.641562
 40
1.277815
 40
1.919376
 40
2.560938
 40
3.197191
 40
3.838753
 40
4.480315
 40
5.116568
 40
5.758129
 40
6.399691
 40
7.035944
 40
7.677506
 40
8.319068
 40
8.955321
 40
9.596884
 40
10.238446
 40
10.874699
 40
11.516262
 40
12.157824
 40
12.794077
 40
13.435640
 40
14.077202
 40
14.713455
 40
15.355017
 40
15.355017
 40
15.355017
 40
15.355017
 10
487.450807
 20
62.499982
 30
0.0
 10
487.434469
 20
62.285515
 30
0.0
 10
487.401929
 20
61.858356
 30
0.0
 10
487.144776
 20
61.260567
 30
0.0
 10
486.753544
 20
60.746974
 30
0.0
 10
486.239260
 20
60.353173
 30
0.0
 10
485.641654
 20
60.105561
 30
0.0
 10
484.999979
 20
60.020857
 30
0.0
 10
484.358367
 20
60.105561
 30
0.0
 10
483.760573
 20
60.353173
 30
0.0
 10
483.246980
 20
60.746974
 30
0.0
 10
482.853178
 20
61.260567
 30
0.0
 10
482.605565
 20
61.858356
 30
0.0
 10
482.520858
 20
62.499982
 30
0.0
 10
482.605564
 20
63.141607
 30
0.0
 10
482.853177
 20
63.739397
 30
0.0
 10
483.246979
 20
64.252992
 30
0.0
 10
483.760573
 20
64.646793
 30
0.0
 10
484.358366
 20
64.894405
 30
0.0
 10
484.999979
 20
64.979109
 30
0.0
 10
485.641654
 20
64.894405
 30
0.0
 10
486.239261
 20
64.646793
 30
0.0
 10
486.753545
 20
64.252992
 30
0.0
 10
487.144777
 20
63.739397
 30
0.0
 10
487.401930
 20
63.141607
 30
0.0
 10
487.434470
 20
62.714448
 30
0.0
 10
487.450807
 20
62.499982
 30
0.0
 11
487.450807
 21
62.499982
 31
0.0
 11
487.366841
 21
61.863938
 31
0.0
 11
487.123357
 21
61.276118
 31
0.0
 11
486.732979
 21
60.766994
 31
0.0
 11
486.223854
 21
60.376617
 31
0.0
 11
485.636033
 21
60.133135
 31
0.0
 11
484.999990
 21
60.049169
 31
0.0
 11
484.363946
 21
60.133135
 31
0.0
 11
483.776125
 21
60.376617
 31
0.0
 11
483.267000
 21
60.766994
 31
0.0
 11
482.876622
 21
61.276118
 31
0.0
 11
482.633138
 21
61.863938
 31
0.0
 11
482.549172
 21
62.499982
 31
0.0
 11
482.633138
 21
63.136026
 31
0.0
 11
482.876621
 21
63.723847
 31
0.0
 11
483.267000
 21
64.232971
 31
0.0
 11
483.776124
 21
64.623348
 31
0.0
 11
484.363945
 21
64.866831
 31
0.0
 11
484.999990
 21
64.950797
 31
0.0
 11
485.636034
 21
64.866831
 31
0.0
 11
486.223855
 21
64.623348
 31
0.0
 11
486.732980
 21
64.232971
 31
0.0
 11
487.123358
 21
63.723847
 31
0.0
 11
487.366841
 21
63.136026
 31
0.0
 11
487.450807
 21
62.499982
 31
0.0
  0
LINE
  5
153
100
AcDbEntity
  8
Layer_1
 62
7
100
AcDbLine
 10
337.450797
 20
62.499982
 30
0.0
 11
337.450797
 21
62.499982
 31
0.0
  0
SPLINE
  5
154
100
AcDbEntity
  8
Layer_1
 62
7
100
AcDbSpline
 70
0
 71
3
 72
31
 73
27
 74
25
 40
0.000000
 40
0.000000
 40
0.000000
 40
0.000000
 40
0.641562
 40
1.277815
 40
1.919376
 40
2.560938
 40
3.197191
 40
3.838753
 40
4.480315
 40
5.116568
 40
5.758129
 40
6.399691
 40
7.035944
 40
7.677506
 40
8.319068
 40
8.955321
 40
9.596884
 40
10.238446
 40
10.874699
 40
11.516262
 40
12.157824
 40
12.794077
 40
13.435640
 40
14.077202
 40
14.713455
 40
15.355017
 40
15.355017
 40
15.355017
 40
15.355017
 10
337.450797
 20
62.499982
 30
0.0
 10
337.434459
 20
62.285515
 30
0.0
 10
337.401918
 20
61.858356
 30
0.0
 10
337.144766
 20
61.260567
 30
0.0
 10
336.753533
 20
60.746974
 30
0.0
 10
336.239250
 20
60.353173
 30
0.0
 10
335.641643
 20
60.105561
 30
0.0
 10
334.999969
 20
60.020857
 30
0.0
 10
334.358357
 20
60.105561
 30
0.0
 10
333.760563
 20
60.353173
 30
0.0
 10
333.246970
 20
60.746974
 30
0.0
 10
332.853167
 20
61.260567
 30
0.0
 10
332.605554
 20
61.858356
 30
0.0
 10
332.520848
 20
62.499982
 30
0.0
 10
332.605554
 20
63.141607
 30
0.0
 10
332.853166
 20
63.739397
 30
0.0
 10
333.246969
 20
64.252992
 30
0.0
 10
333.760562
 20
64.646793
 30
0.0
 10
334.358356
 20
64.894405
 30
0.0
 10
334.999969
 20
64.979109
 30
0.0
 10
335.641644
 20
64.894405
 30
0.0
 10
336.239251
 20
64.646793
 30
0.0
 10
336.753535
 20
64.252992
 30
0.0
 10
337.144767
 20
63.739397
 30
0.0
 10
337.401919
 20
63.141607
 30
0.0
 10
337.434459
 20
62.714448
 30
0.0
 10
337.450797
 20
62.499982
 30
0.0
 11
337.450797
 21
62.499982
 31
0.0
 11
337.366830
 21
61.863938
 31
0.0
 11
337.123346
 21
61.276118
 31
0.0
 11
336.732968
 21
60.766994
 31
0.0
 11
336.223844
 21
60.376617
 31
0.0
 11
335.636023
 21
60.133135
 31
0.0
 11
334.999979
 21
60.049169
 31
0.0
 11
334.363935
 21
60.133135
 31
0.0
 11
333.776114
 21
60.376617
 31
0.0
 11
333.266990
 21
60.766994
 31
0.0
 11
332.876612
 21
61.276118
 31
0.0
 11
332.633128
 21
61.863938
 31
0.0
 11
332.549161
 21
62.499982
 31
0.0
 11
332.633127
 21
63.136026
 31
0.0
 11
332.876611
 21
63.723847
 31
0.0
 11
333.266989
 21
64.232971
 31
0.0
 11
333.776113
 21
64.623348
 31
0.0
 11
334.363935
 21
64.866831
 31
0.0
 11
334.999979
 21
64.950797
 31
0.0
 11
335.636023
 21
64.866831
 31
0.0
 11
336.223845
 21
64.623348
 31
0.0
 11
336.732969
 21
64.232971
 31
0.0
 11
337.123347
 21
63.723847
 31
0.0
 11
337.366831
 21
63.136026
 31
0.0
 11
337.450797
 21
62.499982
 31
0.0
  0
LINE
  5
155
100
AcDbEntity
  8
Layer_1
 62
7
100
AcDbLine
 10
437.450823
 20
62.499982
 30
0.0
 11
437.450823
 21
62.499982
 31
0.0
  0
SPLINE
  5
156
100
AcDbEntity
  8
Layer_1
 62
7
100
AcDbSpline
 70
0
 71
3
 72
31
 73
27
 74
25
 40
0.000000
 40
0.000000
 40
0.000000
 40
0.000000
 40
0.641562
 40
1.277815
 40
1.919376
 40
2.560938
 40
3.197191
 40
3.838753
 40
4.480315
 40
5.116568
 40
5.758129
 40
6.399691
 40
7.035944
 40
7.677506
 40
8.319068
 40
8.955321
 40
9.596884
 40
10.238446
 40
10.874699
 40
11.516262
 40
12.157824
 40
12.794077
 40
13.435640
 40
14.077202
 40
14.713455
 40
15.355017
 40
15.355017
 40
15.355017
 40
15.355017
 10
437.450823
 20
62.499982
 30
0.0
 10
437.434485
 20
62.285515
 30
0.0
 10
437.401944
 20
61.858356
 30
0.0
 10
437.144791
 20
61.260567
 30
0.0
 10
436.753559
 20
60.746974
 30
0.0
 10
436.239276
 20
60.353173
 30
0.0
 10
435.641669
 20
60.105561
 30
0.0
 10
434.999994
 20
60.020857
 30
0.0
 10
434.358382
 20
60.105561
 30
0.0
 10
433.760589
 20
60.353173
 30
0.0
 10
433.246995
 20
60.746974
 30
0.0
 10
432.853193
 20
61.260567
 30
0.0
 10
432.605580
 20
61.858356
 30
0.0
 10
432.520874
 20
62.499982
 30
0.0
 10
432.605580
 20
63.141607
 30
0.0
 10
432.853192
 20
63.739397
 30
0.0
 10
433.246994
 20
64.252992
 30
0.0
 10
433.760588
 20
64.646793
 30
0.0
 10
434.358382
 20
64.894405
 30
0.0
 10
434.999994
 20
64.979109
 30
0.0
 10
435.641670
 20
64.894405
 30
0.0
 10
436.239277
 20
64.646793
 30
0.0
 10
436.753560
 20
64.252992
 30
0.0
 10
437.144792
 20
63.739397
 30
0.0
 10
437.401945
 20
63.141607
 30
0.0
 10
437.434485
 20
62.714448
 30
0.0
 10
437.450823
 20
62.499982
 30
0.0
 11
437.450823
 21
62.499982
 31
0.0
 11
437.366856
 21
61.863938
 31
0.0
 11
437.123372
 21
61.276118
 31
0.0
 11
436.732994
 21
60.766994
 31
0.0
 11
436.223870
 21
60.376617
 31
0.0
 11
435.636049
 21
60.133135
 31
0.0
 11
435.000005
 21
60.049169
 31
0.0
 11
434.363961
 21
60.133135
 31
0.0
 11
433.776140
 21
60.376617
 31
0.0
 11
433.267016
 21
60.766994
 31
0.0
 11
432.876638
 21
61.276118
 31
0.0
 11
432.633154
 21
61.863938
 31
0.0
 11
432.549187
 21
62.499982
 31
0.0
 11
432.633153
 21
63.136026
 31
0.0
 11
432.876637
 21
63.723847
 31
0.0
 11
433.267015
 21
64.232971
 31
0.0
 11
433.776139
 21
64.623348
 31
0.0
 11
434.363961
 21
64.866831
 31
0.0
 11
435.000005
 21
64.950797
 31
0.0
 11
435.636049
 21
64.866831
 31
0.0
 11
436.223871
 21
64.623348
 31
0.0
 11
436.732995
 21
64.232971
 31
0.0
 11
437.123373
 21
63.723847
 31
0.0
 11
437.366857
 21
63.136026
 31
0.0
 11
437.450823
 21
62.499982
 31
0.0
  0
ENDSEC
  0
SECTION
  2
OBJECTS
  0
DICTIONARY
  5
C
330
0
100
AcDbDictionary
  3
ACAD_GROUP
350
D
  3
ACAD_MLINESTYLE
350
17
  0
DICTIONARY
  5
D
330
C
100
AcDbDictionary
  0
DICTIONARY
  5
1A
330
C
100
AcDbDictionary
  0
DICTIONARY
  5
17
330
C
100
AcDbDictionary
  3
STANDARD
350
18
  0
DICTIONARY
  5
19
330
C
100
AcDbDictionary
  0
ENDSEC
  0
EOF
