  0
SECTION
  2
HEADER
  9
$ACADVER
  1
AC1014
  9
$HANDSEED
  5
FFFF
  9
$MEASUREMENT
 70
     1
  0
ENDSEC
  0
SECTION
  2
TABLES
  0
TABLE
  2
VPORT
  5
8
330
0
100
AcDbSymbolTable
 70
     4
  0
VPORT
  5
2E
330
8
100
AcDbSymbolTableRecord
100
AcDbViewportTableRecord
  2
*ACTIVE
 70
     0
 10
0.0
 20
0.0
 11
1.0
 21
1.0
 12
210.0
 22
148.5
 13
0.0
 23
0.0
 14
10.0
 24
10.0
 15
10.0
 25
10.0
 16
0.0
 26
0.0
 36
1.0
 17
0.0
 27
0.0
 37
0.0
 40
341.0
 41
1.24
 42
50.0
 43
0.0
 44
0.0
 50
0.0
 51
0.0
 71
     0
 72
   100
 73
     1
 74
     3
 75
     0
 76
     0
 77
     0
 78
     0
  0
ENDTAB
  0
TABLE
  2
LTYPE
  5
5
330
0
100
AcDbSymbolTable
 70
     1
  0
LTYPE
  5
14
330
5
100
AcDbSymbolTableRecord
100
AcDbLinetypeTableRecord
  2
BYBLOCK
 70
     0
  3

 72
    65
 73
     0
 40
0.0
  0
LTYPE
  5
15
330
5
100
AcDbSymbolTableRecord
100
AcDbLinetypeTableRecord
  2
BYLAYER
 70
     0
  3

 72
    65
 73
     0
 40
0.0
  0
LTYPE
  5
16
330
5
100
AcDbSymbolTableRecord
100
AcDbLinetypeTableRecord
  2
CONTINUOUS
 70
     0
  3
Solid line
 72
    65
 73
     0
 40
0.0
  0
ENDTAB
  0
TABLE
  2
LAYER
  5
2
100
AcDbSymbolTable
 70
2
  0
LAYER
  5
50
100
AcDbSymbolTableRecord
100
AcDbLayerTableRecord
  2
0
 70
0
  6
CONTINUOUS
  0
LAYER
  5
51
100
AcDbSymbolTableRecord
100
AcDbLayerTableRecord
  2
Layer_1
 70
0
  6
CONTINUOUS
  0
ENDTAB
  0
TABLE
  2
STYLE
  5
3
330
0
100
AcDbSymbolTable
 70
     1
  0
STYLE
  5
11
330
3
100
AcDbSymbolTableRecord
100
AcDbTextStyleTableRecord
  2
STANDARD
 70
     0
 40
0.0
 41
1.0
 50
0.0
 71
     0
 42
2.5
  3
txt
  4

  0
ENDTAB
  0
TABLE
  2
VIEW
  5
6
330
0
100
AcDbSymbolTable
 70
     0
  0
ENDTAB
  0
TABLE
  2
UCS
  5
7
330
0
100
AcDbSymbolTable
 70
     0
  0
ENDTAB
  0
TABLE
  2
APPID
  5
9
330
0
100
AcDbSymbolTable
 70
     2
  0
APPID
  5
12
330
9
100
AcDbSymbolTableRecord
100
AcDbRegAppTableRecord
  2
ACAD
 70
     0
  0
ENDTAB
  0
TABLE
  2
DIMSTYLE
  5
A
330
0
100
AcDbSymbolTable
 70
     1
  0
DIMSTYLE
105
27
330
A
100
AcDbSymbolTableRecord
100
AcDbDimStyleTableRecord
  2
ISO-25
 70
     0
  3

  4

  5

  6

  7

 40
1.0
 41
2.5
 42
0.625
 43
3.75
 44
1.25
 45
0.0
 46
0.0
 47
0.0
 48
0.0
140
2.5
141
2.5
142
0.0
143
0.03937007874016
144
1.0
145
0.0
146
1.0
147
0.625
 71
     0
 72
     0
 73
     0
 74
     0
 75
     0
 76
     0
 77
     1
 78
     8
170
     0
171
     3
172
     1
173
     0
174
     0
175
     0
176
     0
177
     0
178
     0
270
     2
271
     2
272
     2
273
     2
274
     3
340
11
275
     0
280
     0
281
     0
282
     0
283
     0
284
     8
285
     0
286
     0
287
     3
288
     0
  0
ENDTAB
  0
TABLE
  2
BLOCK_RECORD
  5
1
330
0
100
AcDbSymbolTable
 70
     1
  0
BLOCK_RECORD
  5
1F
330
1
100
AcDbSymbolTableRecord
100
AcDbBlockTableRecord
  2
*MODEL_SPACE
  0
BLOCK_RECORD
  5
1B
330
1
100
AcDbSymbolTableRecord
100
AcDbBlockTableRecord
  2
*PAPER_SPACE
  0
ENDTAB
  0
ENDSEC
  0
SECTION
  2
BLOCKS
  0
BLOCK
  5
20
330
1F
100
AcDbEntity
  8
0
100
AcDbBlockBegin
  2
*MODEL_SPACE
 70
     0
 10
0.0
 20
0.0
 30
0.0
  3
*MODEL_SPACE
  1

  0
ENDBLK
  5
21
330
1F
100
AcDbEntity
  8
0
100
AcDbBlockEnd
  0
BLOCK
  5
1C
330
1B
100
AcDbEntity
 67
     1
  8
0
100
AcDbBlockBegin
  2
*PAPER_SPACE
  1

  0
ENDBLK
  5
1D
330
1B
100
AcDbEntity
 67
     1
  8
0
100
AcDbBlockEnd
  0
ENDSEC
  0
SECTION
  2
ENTITIES
  0
LINE
  5
100
100
AcDbEntity
  8
Layer_1
 62
7
100
AcDbLine
 10
15.600003
 20
130.099989
 30
0.0
 11
204.600003
 21
130.099989
 31
0.0
  0
LINE
  5
101
100
AcDbEntity
  8
Layer_1
 62
7
100
AcDbLine
 10
210.100006
 20
124.599986
 30
0.0
 11
210.100006
 21
15.599995
 31
0.0
  0
SPLINE
  5
102
100
AcDbEntity
  8
Layer_1
 62
7
100
AcDbSpline
 70
0
 71
3
 72
10
 73
6
 74
4
 40
0.000000
 40
0.000000
 40
0.000000
 40
0.000000
 40
2.879228
 40
5.666697
 40
8.545926
 40
8.545926
 40
8.545926
 40
8.545926
 10
204.600003
 20
130.099989
 30
0.0
 10
205.565267
 20
129.949899
 30
0.0
 10
207.465032
 20
129.654502
 30
0.0
 10
209.654518
 20
127.465015
 30
0.0
 10
209.949916
 20
125.565250
 30
0.0
 10
210.100006
 20
124.599986
 30
0.0
 11
204.600003
 21
130.099989
 31
0.0
 11
207.380152
 21
129.351174
 31
0.0
 11
209.351191
 21
127.380135
 31
0.0
 11
210.100006
 21
124.599986
 31
0.0
  0
LINE
  5
103
100
AcDbEntity
  8
Layer_1
 62
7
100
AcDbLine
 10
204.600003
 20
10.100000
 30
0.0
 11
15.600003
 21
10.100000
 31
0.0
  0
SPLINE
  5
104
100
AcDbEntity
  8
Layer_1
 62
7
100
AcDbSpline
 70
0
 71
3
 72
10
 73
6
 74
4
 40
0.000000
 40
0.000000
 40
0.000000
 40
0.000000
 40
2.879227
 40
5.666693
 40
8.545921
 40
8.545921
 40
8.545921
 40
8.545921
 10
210.100006
 20
15.599995
 30
0.0
 10
209.949916
 20
14.634731
 30
0.0
 10
209.654519
 20
12.734967
 30
0.0
 10
207.465031
 20
10.545485
 30
0.0
 10
205.565266
 20
10.250090
 30
0.0
 10
204.600003
 20
10.100000
 30
0.0
 11
210.100006
 21
15.599995
 31
0.0
 11
209.351191
 21
12.819847
 31
0.0
 11
207.380152
 21
10.848813
 31
0.0
 11
204.600003
 21
10.100000
 31
0.0
  0
LINE
  5
105
100
AcDbEntity
  8
Layer_1
 62
7
100
AcDbLine
 10
10.100000
 20
15.599995
 30
0.0
 11
10.100000
 21
124.599986
 31
0.0
  0
SPLINE
  5
106
100
AcDbEntity
  8
Layer_1
 62
7
100
AcDbSpline
 70
0
 71
3
 72
10
 73
6
 74
4
 40
0.000000
 40
0.000000
 40
0.000000
 40
0.000000
 40
2.879228
 40
5.666693
 40
8.545921
 40
8.545921
 40
8.545921
 40
8.545921
 10
15.600003
 20
10.100000
 30
0.0
 10
14.634740
 20
10.250090
 30
0.0
 10
12.734975
 20
10.545485
 30
0.0
 10
10.545487
 20
12.734967
 30
0.0
 10
10.250090
 20
14.634731
 30
0.0
 10
10.100000
 20
15.599995
 30
0.0
 11
15.600003
 21
10.100000
 31
0.0
 11
12.819854
 21
10.848813
 31
0.0
 11
10.848816
 21
12.819847
 31
0.0
 11
10.100000
 21
15.599995
 31
0.0
  0
LINE
  5
107
100
AcDbEntity
  8
Layer_1
 62
7
100
AcDbLine
 10
15.600003
 20
130.099989
 30
0.0
 11
15.600003
 21
130.099989
 31
0.0
  0
SPLINE
  5
108
100
AcDbEntity
  8
Layer_1
 62
7
100
AcDbSpline
 70
0
 71
3
 72
10
 73
6
 74
4
 40
0.000000
 40
0.000000
 40
0.000000
 40
0.000000
 40
2.879228
 40
5.666697
 40
8.545925
 40
8.545925
 40
8.545925
 40
8.545925
 10
10.100000
 20
124.599986
 30
0.0
 10
10.250091
 20
125.565250
 30
0.0
 10
10.545488
 20
127.465015
 30
0.0
 10
12.734974
 20
129.654502
 30
0.0
 10
14.634739
 20
129.949899
 30
0.0
 10
15.600003
 20
130.099989
 30
0.0
 11
10.100000
 21
124.599986
 31
0.0
 11
10.848816
 21
127.380135
 31
0.0
 11
12.819854
 21
129.351174
 31
0.0
 11
15.600003
 21
130.099989
 31
0.0
  0
LINE
  5
109
100
AcDbEntity
  8
Layer_1
 62
7
100
AcDbLine
 10
17.937545
 20
123.999965
 30
0.0
 11
17.937545
 21
123.999965
 31
0.0
  0
SPLINE
  5
10a
100
AcDbEntity
  8
Layer_1
 62
7
100
AcDbSpline
 70
0
 71
3
 72
25
 73
21
 74
19
 40
0.000000
 40
0.000000
 40
0.000000
 40
0.000000
 40
1.013084
 40
1.996121
 40
3.009206
 40
4.022290
 40
5.005327
 40
6.018411
 40
6.525623
 40
7.028637
 40
7.535849
 40
8.043061
 40
8.546075
 40
9.053287
 40
9.560499
 40
10.063513
 40
10.570725
 40
11.077937
 40
11.580951
 40
12.088163
 40
12.088163
 40
12.088163
 40
12.088163
 10
17.937545
 20
123.999965
 30
0.0
 10
17.884290
 20
123.658399
 30
0.0
 10
17.779360
 20
122.985398
 30
0.0
 10
17.007980
 20
122.244503
 30
0.0
 10
16.001716
 20
121.969890
 30
0.0
 10
14.985008
 20
122.244724
 30
0.0
 10
14.244338
 20
122.984534
 30
0.0
 10
14.016904
 20
123.832053
 30
0.0
 10
14.107096
 20
124.507003
 30
0.0
 10
14.302676
 20
124.979893
 30
0.0
 10
14.614059
 20
125.385858
 30
0.0
 10
15.020087
 20
125.697214
 30
0.0
 10
15.492699
 20
125.892968
 30
0.0
 10
15.999949
 20
125.959937
 30
0.0
 10
16.507251
 20
125.892969
 30
0.0
 10
16.979711
 20
125.697209
 30
0.0
 10
17.386298
 20
125.385874
 30
0.0
 10
17.695601
 20
124.979833
 30
0.0
 10
17.898903
 20
124.507226
 30
0.0
 10
17.924628
 20
124.169520
 30
0.0
 10
17.937545
 20
123.999965
 30
0.0
 11
17.937545
 21
123.999965
 31
0.0
 11
17.673007
 21
123.022028
 31
0.0
 11
16.977895
 21
122.326916
 31
0.0
 11
15.999958
 21
122.062379
 31
0.0
 11
15.022021
 21
122.326916
 31
0.0
 11
14.326909
 21
123.022028
 31
0.0
 11
14.062371
 21
123.999965
 31
0.0
 11
14.128754
 21
124.502814
 31
0.0
 11
14.321249
 21
124.967538
 31
0.0
 11
14.629877
 21
125.370046
 31
0.0
 11
15.032384
 21
125.678674
 31
0.0
 11
15.497109
 21
125.871170
 31
0.0
 11
15.999958
 21
125.937553
 31
0.0
 11
16.502807
 21
125.871170
 31
0.0
 11
16.967532
 21
125.678675
 31
0.0
 11
17.370039
 21
125.370046
 31
0.0
 11
17.678667
 21
124.967538
 31
0.0
 11
17.871162
 21
124.502814
 31
0.0
 11
17.937545
 21
123.999965
 31
0.0
  0
LINE
  5
10b
100
AcDbEntity
  8
Layer_1
 62
7
100
AcDbLine
 10
17.937545
 20
15.999960
 30
0.0
 11
17.937545
 21
15.999960
 31
0.0
  0
SPLINE
  5
10c
100
AcDbEntity
  8
Layer_1
 62
7
100
AcDbSpline
 70
0
 71
3
 72
25
 73
21
 74
19
 40
0.000000
 40
0.000000
 40
0.000000
 40
0.000000
 40
0.507212
 40
1.010226
 40
1.517438
 40
2.024650
 40
2.527664
 40
3.034876
 40
3.542088
 40
4.045102
 40
4.552314
 40
5.059526
 40
5.562540
 40
6.069752
 40
7.082836
 40
8.065873
 40
9.078957
 40
10.092042
 40
11.075078
 40
12.088163
 40
12.088163
 40
12.088163
 40
12.088163
 10
17.937545
 20
15.999960
 30
0.0
 10
17.924628
 20
15.830405
 30
0.0
 10
17.898903
 20
15.492698
 30
0.0
 10
17.695601
 20
15.020092
 30
0.0
 10
17.386298
 20
14.614051
 30
0.0
 10
16.979711
 20
14.302715
 30
0.0
 10
16.507251
 20
14.106956
 30
0.0
 10
15.999949
 20
14.039988
 30
0.0
 10
15.492699
 20
14.106957
 30
0.0
 10
15.020087
 20
14.302711
 30
0.0
 10
14.614059
 20
14.614067
 30
0.0
 10
14.302676
 20
15.020032
 30
0.0
 10
14.107096
 20
15.492922
 30
0.0
 10
14.016904
 20
16.167872
 30
0.0
 10
14.244338
 20
17.015391
 30
0.0
 10
14.985008
 20
17.755201
 30
0.0
 10
16.001716
 20
18.030035
 30
0.0
 10
17.007980
 20
17.755422
 30
0.0
 10
17.779360
 20
17.014527
 30
0.0
 10
17.884290
 20
16.341526
 30
0.0
 10
17.937545
 20
15.999960
 30
0.0
 11
17.937545
 21
15.999960
 31
0.0
 11
17.871162
 21
15.497111
 31
0.0
 11
17.678667
 21
15.032386
 31
0.0
 11
17.370039
 21
14.629879
 31
0.0
 11
16.967532
 21
14.321250
 31
0.0
 11
16.502807
 21
14.128755
 31
0.0
 11
15.999958
 21
14.062372
 31
0.0
 11
15.497109
 21
14.128755
 31
0.0
 11
15.032384
 21
14.321250
 31
0.0
 11
14.629877
 21
14.629879
 31
0.0
 11
14.321249
 21
15.032387
 31
0.0
 11
14.128754
 21
15.497111
 31
0.0
 11
14.062371
 21
15.999960
 31
0.0
 11
14.326909
 21
16.977897
 31
0.0
 11
15.022021
 21
17.673009
 31
0.0
 11
15.999958
 21
17.937546
 31
0.0
 11
16.977895
 21
17.673009
 31
0.0
 11
17.673007
 21
16.977897
 31
0.0
 11
17.937545
 21
15.999960
 31
0.0
  0
LINE
  5
10d
100
AcDbEntity
  8
Layer_1
 62
7
100
AcDbLine
 10
205.937539
 20
123.999965
 30
0.0
 11
205.937539
 21
123.999965
 31
0.0
  0
SPLINE
  5
10e
100
AcDbEntity
  8
Layer_1
 62
7
100
AcDbSpline
 70
0
 71
3
 72
28
 73
24
 74
22
 40
0.000000
 40
0.000000
 40
0.000000
 40
0.000000
 40
0.507212
 40
1.010226
 40
1.517437
 40
2.024649
 40
2.527663
 40
3.034875
 40
4.047959
 40
5.030995
 40
6.044079
 40
6.551291
 40
7.054305
 40
7.561516
 40
8.068728
 40
8.571742
 40
9.078954
 40
9.586166
 40
10.089180
 40
10.596392
 40
11.103604
 40
11.606619
 40
12.113831
 40
12.113831
 40
12.113831
 40
12.113831
 10
205.937539
 20
123.999965
 30
0.0
 10
205.924622
 20
123.830410
 30
0.0
 10
205.898895
 20
123.492704
 30
0.0
 10
205.695598
 20
123.020095
 30
0.0
 10
205.386274
 20
122.614066
 30
0.0
 10
204.979764
 20
122.302683
 30
0.0
 10
204.507021
 20
122.107106
 30
0.0
 10
203.832012
 20
122.016898
 30
0.0
 10
202.984600
 20
122.244460
 30
0.0
 10
202.244444
 20
122.984608
 30
0.0
 10
202.016884
 20
123.832043
 30
0.0
 10
202.107092
 20
124.507005
 30
0.0
 10
202.302668
 20
124.979892
 30
0.0
 10
202.614053
 20
125.385858
 30
0.0
 10
203.020080
 20
125.697213
 30
0.0
 10
203.492692
 20
125.892968
 30
0.0
 10
203.999942
 20
125.959937
 30
0.0
 10
204.507243
 20
125.892970
 30
0.0
 10
204.979705
 20
125.697210
 30
0.0
 10
205.386291
 20
125.385875
 30
0.0
 10
205.695595
 20
124.979833
 30
0.0
 10
205.898897
 20
124.507227
 30
0.0
 10
205.924622
 20
124.169520
 30
0.0
 10
205.937539
 20
123.999965
 30
0.0
 11
205.937539
 21
123.999965
 31
0.0
 11
205.871156
 21
123.497116
 31
0.0
 11
205.678660
 21
123.032391
 31
0.0
 11
205.370032
 21
122.629884
 31
0.0
 11
204.967524
 21
122.321256
 31
0.0
 11
204.502799
 21
122.128761
 31
0.0
 11
203.999950
 21
122.062379
 31
0.0
 11
203.022014
 21
122.326917
 31
0.0
 11
202.326903
 21
123.022028
 31
0.0
 11
202.062365
 21
123.999965
 31
0.0
 11
202.128747
 21
124.502813
 31
0.0
 11
202.321242
 21
124.967538
 31
0.0
 11
202.629870
 21
125.370046
 31
0.0
 11
203.032377
 21
125.678674
 31
0.0
 11
203.497102
 21
125.871170
 31
0.0
 11
203.999950
 21
125.937553
 31
0.0
 11
204.502800
 21
125.871170
 31
0.0
 11
204.967525
 21
125.678675
 31
0.0
 11
205.370033
 21
125.370047
 31
0.0
 11
205.678661
 21
124.967539
 31
0.0
 11
205.871156
 21
124.502814
 31
0.0
 11
205.937539
 21
123.999965
 31
0.0
  0
LINE
  5
10f
100
AcDbEntity
  8
Layer_1
 62
7
100
AcDbLine
 10
205.937539
 20
15.999960
 30
0.0
 11
205.937539
 21
15.999960
 31
0.0
  0
SPLINE
  5
110
100
AcDbEntity
  8
Layer_1
 62
7
100
AcDbSpline
 70
0
 71
3
 72
28
 73
24
 74
22
 40
0.000000
 40
0.000000
 40
0.000000
 40
0.000000
 40
0.507212
 40
1.010227
 40
1.517439
 40
2.024651
 40
2.527665
 40
3.034877
 40
3.542089
 40
4.045103
 40
4.552315
 40
5.059526
 40
5.562540
 40
6.069752
 40
7.082836
 40
8.065872
 40
9.078956
 40
9.586168
 40
10.089182
 40
10.596394
 40
11.103605
 40
11.606619
 40
12.113831
 40
12.113831
 40
12.113831
 40
12.113831
 10
205.937539
 20
15.999960
 30
0.0
 10
205.924622
 20
15.830405
 30
0.0
 10
205.898897
 20
15.492698
 30
0.0
 10
205.695595
 20
15.020092
 30
0.0
 10
205.386291
 20
14.614050
 30
0.0
 10
204.979705
 20
14.302715
 30
0.0
 10
204.507243
 20
14.106955
 30
0.0
 10
203.999942
 20
14.039988
 30
0.0
 10
203.492692
 20
14.106957
 30
0.0
 10
203.020080
 20
14.302712
 30
0.0
 10
202.614053
 20
14.614067
 30
0.0
 10
202.302668
 20
15.020033
 30
0.0
 10
202.107092
 20
15.492920
 30
0.0
 10
202.016884
 20
16.167881
 30
0.0
 10
202.244444
 20
17.015317
 30
0.0
 10
202.984600
 20
17.755465
 30
0.0
 10
203.832012
 20
17.983027
 30
0.0
 10
204.507021
 20
17.892819
 30
0.0
 10
204.979764
 20
17.697242
 30
0.0
 10
205.386274
 20
17.385858
 30
0.0
 10
205.695598
 20
16.979830
 30
0.0
 10
205.898895
 20
16.507221
 30
0.0
 10
205.924622
 20
16.169515
 30
0.0
 10
205.937539
 20
15.999960
 30
0.0
 11
205.937539
 21
15.999960
 31
0.0
 11
205.871156
 21
15.497111
 31
0.0
 11
205.678661
 21
15.032386
 31
0.0
 11
205.370033
 21
14.629878
 31
0.0
 11
204.967525
 21
14.321250
 31
0.0
 11
204.502800
 21
14.128755
 31
0.0
 11
203.999950
 21
14.062372
 31
0.0
 11
203.497102
 21
14.128755
 31
0.0
 11
203.032377
 21
14.321251
 31
0.0
 11
202.629870
 21
14.629879
 31
0.0
 11
202.321242
 21
15.032387
 31
0.0
 11
202.128747
 21
15.497112
 31
0.0
 11
202.062365
 21
15.999960
 31
0.0
 11
202.326903
 21
16.977897
 31
0.0
 11
203.022014
 21
17.673008
 31
0.0
 11
203.999950
 21
17.937546
 31
0.0
 11
204.502799
 21
17.871163
 31
0.0
 11
204.967524
 21
17.678669
 31
0.0
 11
205.370032
 21
17.370041
 31
0.0
 11
205.678660
 21
16.967533
 31
0.0
 11
205.871156
 21
16.502809
 31
0.0
 11
205.937539
 21
15.999960
 31
0.0
  0
LINE
  5
111
100
AcDbEntity
  8
Layer_1
 62
7
100
AcDbLine
 10
128.890965
 20
39.999994
 30
0.0
 11
128.890965
 21
39.999994
 31
0.0
  0
SPLINE
  5
112
100
AcDbEntity
  8
Layer_1
 62
7
100
AcDbSpline
 70
0
 71
3
 72
22
 73
18
 74
16
 40
0.000000
 40
0.000000
 40
0.000000
 40
0.000000
 40
4.945182
 40
9.849440
 40
14.794622
 40
19.739803
 40
24.644062
 40
29.589243
 40
39.466559
 40
49.050917
 40
58.928232
 40
68.805547
 40
78.389903
 40
88.267218
 40
98.144534
 40
107.728891
 40
117.606207
 40
117.606207
 40
117.606207
 40
117.606207
 10
128.890965
 20
39.999994
 30
0.0
 10
128.765030
 20
38.346880
 30
0.0
 10
128.514201
 20
35.054330
 30
0.0
 10
126.532114
 20
30.446514
 30
0.0
 10
123.516288
 20
26.487839
 30
0.0
 10
119.552923
 20
23.451942
 30
0.0
 10
114.943782
 20
21.545049
 30
0.0
 10
108.362729
 20
20.665889
 30
0.0
 10
100.099833
 20
22.881893
 30
0.0
 10
92.886914
 20
30.108988
 30
0.0
 10
90.206955
 20
39.999798
 30
0.0
 10
92.885917
 20
49.891770
 30
0.0
 10
100.103738
 20
57.115447
 30
0.0
 10
110.017339
 20
59.792079
 30
0.0
 10
119.827905
 20
57.115461
 30
0.0
 10
127.348720
 20
49.891721
 30
0.0
 10
128.371750
 20
43.330160
 30
0.0
 10
128.890965
 20
39.999994
 30
0.0
 11
128.890965
 21
39.999994
 31
0.0
 11
128.243751
 21
35.097349
 31
0.0
 11
126.366972
 21
30.566405
 31
0.0
 11
123.357928
 21
26.642061
 31
0.0
 11
119.433584
 21
23.633017
 31
0.0
 11
114.902640
 21
21.756238
 31
0.0
 11
109.999994
 21
21.109024
 31
0.0
 11
100.465361
 21
23.688196
 31
0.0
 11
93.688197
 21
30.465360
 31
0.0
 11
91.109027
 21
39.999994
 31
0.0
 11
93.688198
 21
49.534627
 31
0.0
 11
100.465362
 21
56.311790
 31
0.0
 11
109.999994
 21
58.890962
 31
0.0
 11
119.534628
 21
56.311791
 31
0.0
 11
126.311793
 21
49.534628
 31
0.0
 11
128.890965
 21
39.999994
 31
0.0
  0
LINE
  5
113
100
AcDbEntity
  8
Layer_1
 62
7
100
AcDbLine
 10
95.437548
 20
56.499950
 30
0.0
 11
95.437548
 21
56.499950
 31
0.0
  0
SPLINE
  5
114
100
AcDbEntity
  8
Layer_1
 62
7
100
AcDbSpline
 70
0
 71
3
 72
28
 73
24
 74
22
 40
0.000000
 40
0.000000
 40
0.000000
 40
0.000000
 40
0.507212
 40
1.010226
 40
1.517437
 40
2.024649
 40
2.527663
 40
3.034875
 40
4.047959
 40
5.030995
 40
6.044079
 40
6.551291
 40
7.054305
 40
7.561516
 40
8.068728
 40
8.571742
 40
9.078954
 40
9.586166
 40
10.089180
 40
10.596392
 40
11.103604
 40
11.606619
 40
12.113831
 40
12.113831
 40
12.113831
 40
12.113831
 10
95.437548
 20
56.499950
 30
0.0
 10
95.424631
 20
56.330395
 30
0.0
 10
95.398904
 20
55.992689
 30
0.0
 10
95.195607
 20
55.520080
 30
0.0
 10
94.886284
 20
55.114052
 30
0.0
 10
94.479773
 20
54.802668
 30
0.0
 10
94.007030
 20
54.607092
 30
0.0
 10
93.332021
 20
54.516883
 30
0.0
 10
92.484609
 20
54.744445
 30
0.0
 10
91.744453
 20
55.484594
 30
0.0
 10
91.516893
 20
56.332029
 30
0.0
 10
91.607101
 20
57.006990
 30
0.0
 10
91.802678
 20
57.479877
 30
0.0
 10
92.114062
 20
57.885843
 30
0.0
 10
92.520089
 20
58.197199
 30
0.0
 10
92.992701
 20
58.392953
 30
0.0
 10
93.499951
 20
58.459923
 30
0.0
 10
94.007253
 20
58.392955
 30
0.0
 10
94.479714
 20
58.197195
 30
0.0
 10
94.886301
 20
57.885860
 30
0.0
 10
95.195604
 20
57.479818
 30
0.0
 10
95.398906
 20
57.007212
 30
0.0
 10
95.424632
 20
56.669505
 30
0.0
 10
95.437548
 20
56.499950
 30
0.0
 11
95.437548
 21
56.499950
 31
0.0
 11
95.371165
 21
55.997101
 31
0.0
 11
95.178669
 21
55.532377
 31
0.0
 11
94.870041
 21
55.129870
 31
0.0
 11
94.467533
 21
54.821242
 31
0.0
 11
94.002809
 21
54.628747
 31
0.0
 11
93.499960
 21
54.562365
 31
0.0
 11
92.522024
 21
54.826902
 31
0.0
 11
91.826912
 21
55.522014
 31
0.0
 11
91.562374
 21
56.499950
 31
0.0
 11
91.628757
 21
57.002799
 31
0.0
 11
91.821252
 21
57.467523
 31
0.0
 11
92.129879
 21
57.870031
 31
0.0
 11
92.532387
 21
58.178660
 31
0.0
 11
92.997111
 21
58.371155
 31
0.0
 11
93.499960
 21
58.437538
 31
0.0
 11
94.002809
 21
58.371156
 31
0.0
 11
94.467534
 21
58.178660
 31
0.0
 11
94.870042
 21
57.870032
 31
0.0
 11
95.178670
 21
57.467524
 31
0.0
 11
95.371165
 21
57.002799
 31
0.0
 11
95.437548
 21
56.499950
 31
0.0
  0
LINE
  5
115
100
AcDbEntity
  8
Layer_1
 62
7
100
AcDbLine
 10
128.437550
 20
56.499950
 30
0.0
 11
128.437550
 21
56.499950
 31
0.0
  0
SPLINE
  5
116
100
AcDbEntity
  8
Layer_1
 62
7
100
AcDbSpline
 70
0
 71
3
 72
28
 73
24
 74
22
 40
0.000000
 40
0.000000
 40
0.000000
 40
0.000000
 40
0.507212
 40
1.010226
 40
1.517437
 40
2.024649
 40
2.527663
 40
3.034875
 40
4.047959
 40
5.030995
 40
6.044079
 40
6.551291
 40
7.054305
 40
7.561516
 40
8.068728
 40
8.571742
 40
9.078954
 40
9.586166
 40
10.089180
 40
10.596392
 40
11.103604
 40
11.606619
 40
12.113831
 40
12.113831
 40
12.113831
 40
12.113831
 10
128.437550
 20
56.499950
 30
0.0
 10
128.424633
 20
56.330395
 30
0.0
 10
128.398906
 20
55.992689
 30
0.0
 10
128.195609
 20
55.520080
 30
0.0
 10
127.886285
 20
55.114052
 30
0.0
 10
127.479775
 20
54.802668
 30
0.0
 10
127.007032
 20
54.607092
 30
0.0
 10
126.332023
 20
54.516883
 30
0.0
 10
125.484611
 20
54.744445
 30
0.0
 10
124.744455
 20
55.484594
 30
0.0
 10
124.516895
 20
56.332029
 30
0.0
 10
124.607103
 20
57.006990
 30
0.0
 10
124.802680
 20
57.479877
 30
0.0
 10
125.114064
 20
57.885843
 30
0.0
 10
125.520091
 20
58.197199
 30
0.0
 10
125.992703
 20
58.392953
 30
0.0
 10
126.499953
 20
58.459923
 30
0.0
 10
127.007255
 20
58.392955
 30
0.0
 10
127.479716
 20
58.197195
 30
0.0
 10
127.886302
 20
57.885860
 30
0.0
 10
128.195606
 20
57.479818
 30
0.0
 10
128.398908
 20
57.007212
 30
0.0
 10
128.424633
 20
56.669505
 30
0.0
 10
128.437550
 20
56.499950
 30
0.0
 11
128.437550
 21
56.499950
 31
0.0
 11
128.371167
 21
55.997101
 31
0.0
 11
128.178671
 21
55.532377
 31
0.0
 11
127.870043
 21
55.129870
 31
0.0
 11
127.467535
 21
54.821242
 31
0.0
 11
127.002810
 21
54.628747
 31
0.0
 11
126.499961
 21
54.562365
 31
0.0
 11
125.522025
 21
54.826902
 31
0.0
 11
124.826914
 21
55.522014
 31
0.0
 11
124.562376
 21
56.499950
 31
0.0
 11
124.628758
 21
57.002799
 31
0.0
 11
124.821253
 21
57.467523
 31
0.0
 11
125.129881
 21
57.870031
 31
0.0
 11
125.532388
 21
58.178660
 31
0.0
 11
125.997113
 21
58.371155
 31
0.0
 11
126.499961
 21
58.437538
 31
0.0
 11
127.002811
 21
58.371156
 31
0.0
 11
127.467536
 21
58.178660
 31
0.0
 11
127.870044
 21
57.870032
 31
0.0
 11
128.178672
 21
57.467524
 31
0.0
 11
128.371167
 21
57.002799
 31
0.0
 11
128.437550
 21
56.499950
 31
0.0
  0
LINE
  5
117
100
AcDbEntity
  8
Layer_1
 62
7
100
AcDbLine
 10
128.437550
 20
23.499948
 30
0.0
 11
128.437550
 21
23.499948
 31
0.0
  0
SPLINE
  5
118
100
AcDbEntity
  8
Layer_1
 62
7
100
AcDbSpline
 70
0
 71
3
 72
28
 73
24
 74
22
 40
0.000000
 40
0.000000
 40
0.000000
 40
0.000000
 40
0.507212
 40
1.010226
 40
1.517437
 40
2.024649
 40
2.527663
 40
3.034875
 40
4.047959
 40
5.030995
 40
6.044079
 40
6.551291
 40
7.054305
 40
7.561516
 40
8.068728
 40
8.571742
 40
9.078954
 40
9.586166
 40
10.089180
 40
10.596392
 40
11.103604
 40
11.606619
 40
12.113831
 40
12.113831
 40
12.113831
 40
12.113831
 10
128.437550
 20
23.499948
 30
0.0
 10
128.424633
 20
23.330394
 30
0.0
 10
128.398906
 20
22.992687
 30
0.0
 10
128.195609
 20
22.520078
 30
0.0
 10
127.886285
 20
22.114050
 30
0.0
 10
127.479775
 20
21.802666
 30
0.0
 10
127.007032
 20
21.607090
 30
0.0
 10
126.332023
 20
21.516881
 30
0.0
 10
125.484611
 20
21.744443
 30
0.0
 10
124.744455
 20
22.484592
 30
0.0
 10
124.516895
 20
23.332027
 30
0.0
 10
124.607103
 20
24.006988
 30
0.0
 10
124.802680
 20
24.479875
 30
0.0
 10
125.114064
 20
24.885841
 30
0.0
 10
125.520091
 20
25.197197
 30
0.0
 10
125.992703
 20
25.392952
 30
0.0
 10
126.499953
 20
25.459921
 30
0.0
 10
127.007255
 20
25.392953
 30
0.0
 10
127.479716
 20
25.197194
 30
0.0
 10
127.886302
 20
24.885859
 30
0.0
 10
128.195606
 20
24.479817
 30
0.0
 10
128.398908
 20
24.007210
 30
0.0
 10
128.424633
 20
23.669503
 30
0.0
 10
128.437550
 20
23.499948
 30
0.0
 11
128.437550
 21
23.499948
 31
0.0
 11
128.371167
 21
22.997099
 31
0.0
 11
128.178671
 21
22.532375
 31
0.0
 11
127.870043
 21
22.129868
 31
0.0
 11
127.467535
 21
21.821240
 31
0.0
 11
127.002810
 21
21.628745
 31
0.0
 11
126.499961
 21
21.562363
 31
0.0
 11
125.522025
 21
21.826900
 31
0.0
 11
124.826914
 21
22.522012
 31
0.0
 11
124.562376
 21
23.499948
 31
0.0
 11
124.628758
 21
24.002797
 31
0.0
 11
124.821253
 21
24.467522
 31
0.0
 11
125.129881
 21
24.870029
 31
0.0
 11
125.532388
 21
25.178658
 31
0.0
 11
125.997113
 21
25.371153
 31
0.0
 11
126.499961
 21
25.437536
 31
0.0
 11
127.002811
 21
25.371154
 31
0.0
 11
127.467536
 21
25.178659
 31
0.0
 11
127.870044
 21
24.870030
 31
0.0
 11
128.178672
 21
24.467523
 31
0.0
 11
128.371167
 21
24.002797
 31
0.0
 11
128.437550
 21
23.499948
 31
0.0
  0
LINE
  5
119
100
AcDbEntity
  8
Layer_1
 62
7
100
AcDbLine
 10
95.437548
 20
23.499948
 30
0.0
 11
95.437548
 21
23.499948
 31
0.0
  0
SPLINE
  5
11a
100
AcDbEntity
  8
Layer_1
 62
7
100
AcDbSpline
 70
0
 71
3
 72
28
 73
24
 74
22
 40
0.000000
 40
0.000000
 40
0.000000
 40
0.000000
 40
0.507212
 40
1.010226
 40
1.517437
 40
2.024649
 40
2.527663
 40
3.034875
 40
4.047959
 40
5.030995
 40
6.044079
 40
6.551291
 40
7.054305
 40
7.561516
 40
8.068728
 40
8.571742
 40
9.078954
 40
9.586166
 40
10.089180
 40
10.596392
 40
11.103604
 40
11.606619
 40
12.113831
 40
12.113831
 40
12.113831
 40
12.113831
 10
95.437548
 20
23.499948
 30
0.0
 10
95.424631
 20
23.330394
 30
0.0
 10
95.398904
 20
22.992687
 30
0.0
 10
95.195607
 20
22.520078
 30
0.0
 10
94.886284
 20
22.114050
 30
0.0
 10
94.479773
 20
21.802666
 30
0.0
 10
94.007030
 20
21.607090
 30
0.0
 10
93.332021
 20
21.516881
 30
0.0
 10
92.484609
 20
21.744443
 30
0.0
 10
91.744453
 20
22.484592
 30
0.0
 10
91.516893
 20
23.332027
 30
0.0
 10
91.607101
 20
24.006988
 30
0.0
 10
91.802678
 20
24.479875
 30
0.0
 10
92.114062
 20
24.885841
 30
0.0
 10
92.520089
 20
25.197197
 30
0.0
 10
92.992701
 20
25.392952
 30
0.0
 10
93.499951
 20
25.459921
 30
0.0
 10
94.007253
 20
25.392953
 30
0.0
 10
94.479714
 20
25.197194
 30
0.0
 10
94.886301
 20
24.885859
 30
0.0
 10
95.195604
 20
24.479817
 30
0.0
 10
95.398906
 20
24.007210
 30
0.0
 10
95.424632
 20
23.669503
 30
0.0
 10
95.437548
 20
23.499948
 30
0.0
 11
95.437548
 21
23.499948
 31
0.0
 11
95.371165
 21
22.997099
 31
0.0
 11
95.178669
 21
22.532375
 31
0.0
 11
94.870041
 21
22.129868
 31
0.0
 11
94.467533
 21
21.821240
 31
0.0
 11
94.002809
 21
21.628745
 31
0.0
 11
93.499960
 21
21.562363
 31
0.0
 11
92.522024
 21
21.826900
 31
0.0
 11
91.826912
 21
22.522012
 31
0.0
 11
91.562374
 21
23.499948
 31
0.0
 11
91.628757
 21
24.002797
 31
0.0
 11
91.821252
 21
24.467522
 31
0.0
 11
92.129879
 21
24.870029
 31
0.0
 11
92.532387
 21
25.178658
 31
0.0
 11
92.997111
 21
25.371153
 31
0.0
 11
93.499960
 21
25.437536
 31
0.0
 11
94.002809
 21
25.371154
 31
0.0
 11
94.467534
 21
25.178659
 31
0.0
 11
94.870042
 21
24.870030
 31
0.0
 11
95.178670
 21
24.467523
 31
0.0
 11
95.371165
 21
24.002797
 31
0.0
 11
95.437548
 21
23.499948
 31
0.0
  0
LINE
  5
11b
100
AcDbEntity
  8
Layer_1
 62
7
100
AcDbLine
 10
23.934296
 20
100.000001
 30
0.0
 11
23.934296
 21
100.000001
 31
0.0
  0
LINE
  5
11c
100
AcDbEntity
  8
Layer_1
 62
7
100
AcDbLine
 10
10.055074
 20
106.944934
 30
0.0
 11
16.944927
 21
106.944934
 31
0.0
  0
LINE
  5
11d
100
AcDbEntity
  8
Layer_1
 62
7
100
AcDbLine
 10
16.944927
 20
106.944934
 30
0.0
 11
16.944927
 21
93.055082
 31
0.0
  0
LINE
  5
11e
100
AcDbEntity
  8
Layer_1
 62
7
100
AcDbLine
 10
16.944927
 20
93.055082
 30
0.0
 11
10.055074
 21
93.055082
 31
0.0
  0
LINE
  5
11f
100
AcDbEntity
  8
Layer_1
 62
7
100
AcDbLine
 10
10.055074
 20
93.055082
 30
0.0
 11
10.055074
 21
106.944934
 31
0.0
  0
SPLINE
  5
120
100
AcDbEntity
  8
Layer_1
 62
7
100
AcDbSpline
 70
0
 71
3
 72
31
 73
27
 74
25
 40
0.000000
 40
0.000000
 40
0.000000
 40
0.000000
 40
1.815225
 40
3.615427
 40
5.430652
 40
7.245876
 40
9.046079
 40
10.861304
 40
12.676528
 40
14.476731
 40
16.291956
 40
18.107180
 40
19.907383
 40
21.722607
 40
23.537832
 40
25.338035
 40
27.153259
 40
28.968484
 40
30.768686
 40
32.583911
 40
34.399135
 40
36.199338
 40
38.014563
 40
39.829787
 40
41.629990
 40
43.445215
 40
43.445215
 40
43.445215
 40
43.445215
 10
23.934296
 20
100.000001
 30
0.0
 10
23.888070
 20
99.393193
 30
0.0
 10
23.796002
 20
98.184597
 30
0.0
 10
23.068419
 20
96.493221
 30
0.0
 10
21.961475
 20
95.040067
 30
0.0
 10
20.506371
 20
93.925852
 30
0.0
 10
18.815514
 20
93.225262
 30
0.0
 10
16.999971
 20
92.985596
 30
0.0
 10
15.184604
 20
93.225262
 30
0.0
 10
13.493218
 20
93.925852
 30
0.0
 10
12.040067
 20
95.040067
 30
0.0
 10
10.925851
 20
96.493221
 30
0.0
 10
10.225261
 20
98.184597
 30
0.0
 10
9.985595
 20
100.000001
 30
0.0
 10
10.225261
 20
101.815405
 30
0.0
 10
10.925851
 20
103.506781
 30
0.0
 10
12.040067
 20
104.959935
 30
0.0
 10
13.493218
 20
106.074150
 30
0.0
 10
15.184604
 20
106.774741
 30
0.0
 10
16.999971
 20
107.014407
 30
0.0
 10
18.815514
 20
106.774741
 30
0.0
 10
20.506371
 20
106.074150
 30
0.0
 10
21.961475
 20
104.959935
 30
0.0
 10
23.068419
 20
103.506781
 30
0.0
 10
23.796002
 20
101.815405
 30
0.0
 10
23.888070
 20
100.606810
 30
0.0
 10
23.934296
 20
100.000001
 30
0.0
 11
23.934296
 21
100.000001
 31
0.0
 11
23.696724
 21
98.200390
 31
0.0
 11
23.007816
 21
96.537220
 31
0.0
 11
21.903288
 21
95.096713
 31
0.0
 11
20.462782
 21
93.992186
 31
0.0
 11
18.799611
 21
93.303278
 31
0.0
 11
17.000000
 21
93.065705
 31
0.0
 11
15.200389
 21
93.303278
 31
0.0
 11
13.537219
 21
93.992186
 31
0.0
 11
12.096713
 21
95.096714
 31
0.0
 11
10.992185
 21
96.537220
 31
0.0
 11
10.303277
 21
98.200390
 31
0.0
 11
10.065704
 21
100.000001
 31
0.0
 11
10.303277
 21
101.799612
 31
0.0
 11
10.992185
 21
103.462783
 31
0.0
 11
12.096713
 21
104.903289
 31
0.0
 11
13.537219
 21
106.007817
 31
0.0
 11
15.200389
 21
106.696725
 31
0.0
 11
17.000000
 21
106.934297
 31
0.0
 11
18.799611
 21
106.696725
 31
0.0
 11
20.462782
 21
106.007817
 31
0.0
 11
21.903288
 21
104.903289
 31
0.0
 11
23.007816
 21
103.462783
 31
0.0
 11
23.696724
 21
101.799612
 31
0.0
 11
23.934296
 21
100.000001
 31
0.0
  0
ENDSEC
  0
SECTION
  2
OBJECTS
  0
DICTIONARY
  5
C
330
0
100
AcDbDictionary
  3
ACAD_GROUP
350
D
  3
ACAD_MLINESTYLE
350
17
  0
DICTIONARY
  5
D
330
C
100
AcDbDictionary
  0
DICTIONARY
  5
1A
330
C
100
AcDbDictionary
  0
DICTIONARY
  5
17
330
C
100
AcDbDictionary
  3
STANDARD
350
18
  0
DICTIONARY
  5
19
330
C
100
AcDbDictionary
  0
ENDSEC
  0
EOF
