<?xml version="1.0" encoding="UTF-8" standalone="no"?>
<svg
   xmlns:dc="http://purl.org/dc/elements/1.1/"
   xmlns:cc="http://creativecommons.org/ns#"
   xmlns:rdf="http://www.w3.org/1999/02/22-rdf-syntax-ns#"
   xmlns:svg="http://www.w3.org/2000/svg"
   xmlns="http://www.w3.org/2000/svg"
   xmlns:sodipodi="http://sodipodi.sourceforge.net/DTD/sodipodi-0.dtd"
   xmlns:inkscape="http://www.inkscape.org/namespaces/inkscape"
   width="744.094488189"
   height="1052.36220472"
   id="svg4494"
   version="1.1"
   inkscape:version="0.91 r13725"
   sodipodi:docname="box_lid.svg">
  <metadata
     id="metadata4584">
    <rdf:RDF>
      <cc:Work
         rdf:about="">
        <dc:format>image/svg+xml</dc:format>
        <dc:type
           rdf:resource="http://purl.org/dc/dcmitype/StillImage" />
        <dc:title></dc:title>
      </cc:Work>
    </rdf:RDF>
  </metadata>
  <sodipodi:namedview
     pagecolor="#ffffff"
     bordercolor="#666666"
     borderopacity="1"
     objecttolerance="10"
     gridtolerance="10"
     guidetolerance="10"
     inkscape:pageopacity="0"
     inkscape:pageshadow="2"
     inkscape:window-width="1669"
     inkscape:window-height="927"
     id="namedview4582"
     showgrid="false"
     inkscape:zoom="1"
     inkscape:cx="372.04724"
     inkscape:cy="526.18109"
     inkscape:window-x="20"
     inkscape:window-y="43"
     inkscape:window-maximized="0"
     inkscape:current-layer="g4514" />
  <desc
     id="desc4496">/Users/matt/Dropbox/automated_fly_food_dispenser/laser_cutter/box_lid.dxf - scale = 1.000000, origin = (0.000000, 0.000000), auto = True</desc>
  <defs
     id="defs4498">
    <marker
       id="DistanceX"
       orient="auto"
       refX="0.0"
       refY="0.0"
       style="overflow:visible">
      <path
         d="M 3,-3 L -3,3 M 0,-5 L  0,5"
         style="stroke:#000000; stroke-width:0.5"
         id="path4501" />
    </marker>
    <pattern
       height="8"
       id="Hatch"
       patternUnits="userSpaceOnUse"
       width="8"
       x="0"
       y="0">
      <path
         d="M8 4 l-4,4"
         linecap="square"
         stroke="#000000"
         stroke-width="0.25"
         id="path4504" />
      <path
         d="M6 2 l-4,4"
         linecap="square"
         stroke="#000000"
         stroke-width="0.25"
         id="path4506" />
      <path
         d="M4 0 l-4,4"
         linecap="square"
         stroke="#000000"
         stroke-width="0.25"
         id="path4508" />
    </pattern>
    <symbol
       id="*MODEL_SPACE" />
    <symbol
       id="*PAPER_SPACE" />
  </defs>
  <g
     inkscape:groupmode="layer"
     inkscape:label="0"
     id="g4512" />
  <g
     inkscape:groupmode="layer"
     inkscape:label="Layer_1"
     id="g4514">
    <path
       d="M 55.275601,591.377992 724.960641,591.377992"
       style="stroke:#000000;fill:none"
       id="path4516" />
    <path
       d="M 744.448840,610.866191 744.448840,997.086632"
       style="stroke:#000000;fill:none"
       id="path4518" />
    <path
       d="M 724.960641,591.377992 C 728.380867,591.909807 731.801093,592.441622 734.811563,594.031273 C 737.726091,595.570263 740.256565,598.100739 741.795556,601.015267 C 743.385208,604.025738 743.917025,607.445965 744.448840,610.866191"
       style="stroke:#000000;fill:none"
       id="path4520" />
    <path
       d="M 724.960641,1016.574803 55.275601,1016.574803"
       style="stroke:#000000;fill:none"
       id="path4522" />
    <path
       d="M 744.448840,997.086632 C 743.917025,1000.506859 743.385210,1003.927084 741.795557,1006.937551 C 740.256567,1009.852075 737.726092,1012.382543 734.811564,1013.921528 C 731.801091,1015.511176 728.380864,1016.042988 724.960641,1016.574803"
       style="stroke:#000000;fill:none"
       id="path4524" />
    <path
       d="M 35.787402,997.086632 35.787402,610.866191"
       style="stroke:#000000;fill:none"
       id="path4526" />
    <path
       d="M 55.275601,1016.574803 C 51.855378,1016.042988 48.435150,1015.511176 45.424677,1013.921528 C 42.510150,1012.382543 39.979676,1009.852076 38.440686,1006.937553 C 36.851032,1003.927085 36.319217,1000.506859 35.787402,997.086632"
       style="stroke:#000000;fill:none"
       id="path4528" />
    <path
       d="M 55.275601,591.377992 55.275601,591.377992"
       style="stroke:#000000;fill:none"
       id="path4530" />
    <path
       d="M 35.787402,610.866191 C 36.319220,607.445965 36.851036,604.025739 38.440686,601.015268 C 39.979676,598.100739 42.510150,595.570264 45.424679,594.031273 C 48.435149,592.441622 51.855374,591.909807 55.275601,591.377992"
       style="stroke:#000000;fill:none"
       id="path4532" />
    <path
       d="M 63.558230,612.992250 63.558230,612.992250"
       style="stroke:#000000;fill:none"
       id="path4534" />
    <path
       d="M 63.558230,612.992250 C 63.369531,614.202523 63.180834,615.412796 62.620892,616.457380 C 62.077557,617.470983 61.184673,618.328580 60.157894,618.920375 C 59.099730,619.530260 57.899361,619.857845 56.692763,619.857713 C 55.486166,619.857581 54.273340,619.529732 53.227634,618.920376 C 52.212943,618.329092 51.355606,617.472750 50.764638,616.457380 C 50.155606,615.410974 49.829476,614.195670 49.827300,612.992252 C 49.826210,612.389747 49.906323,611.790222 50.062514,611.210503 C 50.217412,610.635582 50.447134,610.080141 50.744583,609.563840 C 51.044514,609.043231 51.413306,608.562418 51.838146,608.137632 C 52.262986,607.712845 52.743873,607.344084 53.264355,607.044066 C 53.780528,606.746530 54.335643,606.516604 54.911015,606.361997 C 55.491189,606.206099 56.091961,606.126783 56.692763,606.126783 C 57.293566,606.126782 57.894399,606.206097 58.474514,606.361998 C 59.049827,606.516608 59.604763,606.746541 60.121174,607.044068 C 60.641894,607.344077 61.123444,607.712813 61.547383,608.137632 C 61.971322,608.562452 62.337651,609.043354 62.640947,609.563840 C 62.941733,610.080018 63.180525,610.635127 63.323016,611.210503 C 63.466696,611.790680 63.512461,612.391465 63.558230,612.992250"
       style="stroke:#000000;fill:none"
       id="path4536" />
    <path
       d="M 63.558230,995.669433 63.558230,995.669433"
       style="stroke:#000000;fill:none"
       id="path4538" />
    <path
       d="M 63.558230,995.669433 C 63.512461,996.270219 63.466696,996.871005 63.323016,997.451182 C 63.180525,998.026558 62.941733,998.581666 62.640947,999.097843 C 62.337651,999.618329 61.971322,1000.099232 61.547383,1000.524051 C 61.123444,1000.948871 60.641894,1001.317608 60.121174,1001.617618 C 59.604763,1001.915144 59.049827,1002.145076 58.474514,1002.299686 C 57.894399,1002.455586 57.293566,1002.534901 56.692763,1002.534900 C 56.091961,1002.534900 55.491189,1002.455584 54.911015,1002.299686 C 54.335643,1002.145079 53.780528,1001.915153 53.264355,1001.617617 C 52.743873,1001.317599 52.262986,1000.948838 51.838146,1000.524052 C 51.413306,1000.099265 51.044514,999.618452 50.744583,999.097843 C 50.447134,998.581542 50.217412,998.026101 50.062514,997.451180 C 49.906323,996.871461 49.826210,996.271936 49.827300,995.669431 C 49.829476,994.466013 50.155606,993.250709 50.764638,992.204303 C 51.355606,991.188933 52.212943,990.332591 53.227634,989.741307 C 54.273340,989.131951 55.486166,988.804102 56.692763,988.803971 C 57.899362,988.803839 59.099731,989.131424 60.157895,989.741308 C 61.184673,990.333103 62.077556,991.190700 62.620890,992.204301 C 63.180833,993.248886 63.369531,994.459160 63.558230,995.669433"
       style="stroke:#000000;fill:none"
       id="path4540" />
    <path
       d="M 729.699941,612.992250 729.699941,612.992250"
       style="stroke:#000000;fill:none"
       id="path4542" />
    <path
       d="M 729.699941,612.992250 C 729.654172,613.593035 729.608404,614.193820 729.464725,614.773999 C 729.322235,615.349376 729.083449,615.904487 728.782653,616.420660 C 728.479348,616.941139 728.112994,617.422027 727.689089,617.846867 C 727.265183,618.271708 726.783724,618.640501 726.262881,618.940430 C 725.746348,619.237877 725.191079,619.467595 724.616219,619.622499 C 724.036562,619.778695 723.436984,619.858822 722.834470,619.857711 C 721.631033,619.855493 720.415882,619.529179 719.369342,618.920373 C 718.353842,618.329624 717.497101,617.472891 716.906349,616.457381 C 716.297539,615.410830 715.971228,614.195645 715.969010,612.992253 C 715.967900,612.389761 716.048027,611.790225 716.204223,611.210503 C 716.359126,610.635578 716.588843,610.080140 716.886291,609.563840 C 717.186220,609.043233 717.555015,608.562420 717.979855,608.137634 C 718.404695,607.712847 718.885582,607.344087 719.406063,607.044068 C 719.922236,606.746533 720.477350,606.516605 721.052723,606.361998 C 721.632897,606.206099 722.233669,606.126783 722.834470,606.126782 C 723.435272,606.126781 724.036104,606.206095 724.616219,606.361995 C 725.191533,606.516604 725.746472,606.746538 726.262883,607.044064 C 726.783604,607.344074 727.265152,607.712809 727.689091,608.137629 C 728.113030,608.562449 728.479361,609.043352 728.782657,609.563838 C 729.083444,610.080017 729.322236,610.635125 729.464727,611.210502 C 729.608407,611.790679 729.654172,612.391465 729.699941,612.992250"
       style="stroke:#000000;fill:none"
       id="path4544" />
    <path
       d="M 729.699941,995.669433 729.699941,995.669433"
       style="stroke:#000000;fill:none"
       id="path4546" />
    <path
       d="M 729.699941,995.669433 C 729.654172,996.270219 729.608407,996.871004 729.464727,997.451181 C 729.322236,998.026558 729.083444,998.581666 728.782657,999.097845 C 728.479361,999.618331 728.113030,1000.099234 727.689091,1000.524054 C 727.265152,1000.948874 726.783604,1001.317609 726.262883,1001.617619 C 725.746472,1001.915146 725.191533,1002.145079 724.616219,1002.299688 C 724.036104,1002.455588 723.435272,1002.534902 722.834470,1002.534901 C 722.233669,1002.534900 721.632897,1002.455584 721.052723,1002.299685 C 720.477350,1002.145078 719.922236,1001.915150 719.406063,1001.617615 C 718.885582,1001.317596 718.404695,1000.948837 717.979855,1000.524050 C 717.555015,1000.099263 717.186220,999.618450 716.886291,999.097843 C 716.588843,998.581543 716.359126,998.026105 716.204223,997.451181 C 716.048027,996.871459 715.967900,996.271924 715.969010,995.669432 C 715.971228,994.466041 716.297539,993.250855 716.906349,992.204303 C 717.497101,991.188792 718.353842,990.332059 719.369342,989.741310 C 720.415882,989.132504 721.631033,988.806190 722.834470,988.803972 C 723.436984,988.802861 724.036562,988.882988 724.616219,989.039184 C 725.191079,989.194088 725.746348,989.423806 726.262881,989.721254 C 726.783724,990.021183 727.265183,990.389978 727.689089,990.814818 C 728.112994,991.239659 728.479348,991.720545 728.782653,992.241024 C 729.083449,992.757196 729.322235,993.312307 729.464725,993.887684 C 729.608404,994.467863 729.654172,995.068648 729.699941,995.669433"
       style="stroke:#000000;fill:none"
       id="path4548" />
    <path
       d="M 456.700270,910.629943 456.700270,910.629943"
       style="stroke:#000000;fill:none"
       id="path4550" />
    <path
       d="M 456.700270,910.629943 C 456.254043,916.487433 455.807815,922.344928 454.406989,928.001522 C 453.017756,933.611305 450.689660,939.023499 447.756987,944.056047 C 444.799843,949.130590 441.227990,953.819124 437.095020,957.961203 C 432.962050,962.103281 428.267963,965.698904 423.189867,968.623170 C 418.153794,971.523238 412.740042,973.763014 407.135339,975.273173 C 401.483869,976.795932 395.638247,977.576846 389.763761,977.566451 C 378.030285,977.545689 366.181653,974.368036 355.979625,968.427652 C 346.080185,962.663458 337.731122,954.297986 331.966053,944.414076 C 326.024767,934.228052 322.827855,922.429344 322.827261,910.629944 C 322.826666,898.830543 326.022389,887.030449 331.966058,876.845811 C 337.733438,866.963247 346.088174,858.601732 355.979627,852.832240 C 366.173426,846.886395 377.999321,843.693451 389.763761,843.693443 C 401.528201,843.693434 413.231187,846.886361 423.547897,852.832236 C 433.558615,858.601758 442.264072,866.963345 447.561472,876.845807 C 453.020794,887.030339 454.860531,898.830142 456.700270,910.629943"
       style="stroke:#000000;fill:none"
       id="path4552" />
    <path
       d="M 338.164540,852.165531 338.164540,852.165531"
       style="stroke:#000000;fill:none"
       id="path4554" />
    <path
       d="M 338.164540,852.165531 C 338.118771,852.766317 338.073003,853.367101 337.929323,853.947280 C 337.786834,854.522657 337.548047,855.077769 337.247253,855.593941 C 336.943948,856.114419 336.577596,856.595306 336.153690,857.020146 C 335.729784,857.444987 335.248324,857.813781 334.727480,858.113710 C 334.210947,858.411157 333.655678,858.640874 333.080818,858.795778 C 332.501160,858.951974 331.901583,859.032102 331.299069,859.030992 C 330.095632,859.028774 328.880481,858.702460 327.833941,858.093654 C 326.818441,857.502904 325.961700,856.646170 325.370947,855.630659 C 324.762138,854.584107 324.435827,853.368923 324.433609,852.165532 C 324.432499,851.563041 324.512626,850.963506 324.668822,850.383784 C 324.823726,849.808860 325.053444,849.253422 325.350892,848.737122 C 325.650821,848.216515 326.019615,847.735701 326.444454,847.310914 C 326.869294,846.886127 327.350181,846.517366 327.870661,846.217347 C 328.386834,845.919812 328.941949,845.689886 329.517321,845.535278 C 330.097496,845.379380 330.698267,845.300063 331.299070,845.300061 C 331.899872,845.300060 332.500705,845.379375 333.080821,845.535276 C 333.656134,845.689886 334.211072,845.919819 334.727483,846.217346 C 335.248204,846.517355 335.729753,846.886091 336.153693,847.310911 C 336.577632,847.735730 336.943961,848.216634 337.247257,848.737120 C 337.548043,849.253298 337.786835,849.808407 337.929327,850.383783 C 338.073008,850.963961 338.118775,851.564746 338.164540,852.165531"
       style="stroke:#000000;fill:none"
       id="path4556" />
    <path
       d="M 455.093681,852.165531 455.093681,852.165531"
       style="stroke:#000000;fill:none"
       id="path4558" />
    <path
       d="M 455.093681,852.165531 C 455.047912,852.766317 455.002143,853.367101 454.858464,853.947280 C 454.715975,854.522657 454.477188,855.077769 454.176393,855.593941 C 453.873088,856.114419 453.506734,856.595306 453.082829,857.020146 C 452.658922,857.444987 452.177464,857.813781 451.656620,858.113710 C 451.140088,858.411157 450.584819,858.640874 450.009959,858.795778 C 449.430301,858.951974 448.830724,859.032102 448.228210,859.030992 C 447.024773,859.028774 445.809622,858.702460 444.763082,858.093654 C 443.747582,857.502904 442.890841,856.646170 442.300088,855.630659 C 441.691279,854.584107 441.364968,853.368923 441.362750,852.165532 C 441.361640,851.563041 441.441767,850.963506 441.597963,850.383784 C 441.752867,849.808860 441.982585,849.253422 442.280033,848.737122 C 442.579962,848.216515 442.948756,847.735701 443.373595,847.310914 C 443.798435,846.886127 444.279322,846.517366 444.799802,846.217347 C 445.315975,845.919812 445.871090,845.689886 446.446462,845.535278 C 447.026637,845.379380 447.627408,845.300063 448.228211,845.300061 C 448.829013,845.300060 449.429846,845.379375 450.009962,845.535276 C 450.585275,845.689886 451.140213,845.919819 451.656623,846.217346 C 452.177344,846.517355 452.658892,846.886091 453.082831,847.310911 C 453.506770,847.735730 453.873100,848.216634 454.176397,848.737120 C 454.477184,849.253298 454.715976,849.808407 454.858467,850.383783 C 455.002147,850.963961 455.047912,851.564746 455.093681,852.165531"
       style="stroke:#000000;fill:none"
       id="path4560" />
    <path
       d="M 455.093681,969.094672 455.093681,969.094672"
       style="stroke:#000000;fill:none"
       id="path4562" />
    <path
       d="M 455.093681,969.094672 C 455.047912,969.695454 455.002143,970.296240 454.858464,970.876420 C 454.715975,971.451798 454.477188,972.006910 454.176393,972.523082 C 453.873088,973.043560 453.506734,973.524447 453.082829,973.949287 C 452.658922,974.374128 452.177464,974.742922 451.656620,975.042851 C 451.140088,975.340298 450.584819,975.570015 450.009959,975.724919 C 449.430301,975.881115 448.830724,975.961243 448.228210,975.960133 C 447.024773,975.957915 445.809622,975.631601 444.763082,975.022794 C 443.747582,974.432045 442.890841,973.575311 442.300088,972.559800 C 441.691279,971.513248 441.364968,970.298064 441.362750,969.094673 C 441.361640,968.492182 441.441767,967.892647 441.597963,967.312925 C 441.752867,966.738001 441.982585,966.182563 442.280033,965.666263 C 442.579962,965.145655 442.948756,964.664842 443.373595,964.240055 C 443.798435,963.815268 444.279322,963.446507 444.799802,963.146488 C 445.315975,962.848952 445.871090,962.619024 446.446462,962.464416 C 447.026637,962.308518 447.627408,962.229202 448.228211,962.229202 C 448.829013,962.229201 449.429846,962.308516 450.009962,962.464416 C 450.585275,962.619025 451.140213,962.848958 451.656623,963.146484 C 452.177344,963.446493 452.658892,963.815228 453.082831,964.240048 C 453.506770,964.664868 453.873100,965.145771 454.176397,965.666258 C 454.477184,966.182437 454.715976,966.737546 454.858467,967.312924 C 455.002147,967.893102 455.047912,968.493887 455.093681,969.094672"
       style="stroke:#000000;fill:none"
       id="path4564" />
    <path
       d="M 338.164540,969.094672 338.164540,969.094672"
       style="stroke:#000000;fill:none"
       id="path4566" />
    <path
       d="M 338.164540,969.094672 C 338.118771,969.695454 338.073003,970.296240 337.929323,970.876420 C 337.786834,971.451798 337.548047,972.006910 337.247253,972.523082 C 336.943948,973.043560 336.577596,973.524447 336.153690,973.949287 C 335.729784,974.374128 335.248324,974.742922 334.727480,975.042851 C 334.210947,975.340298 333.655678,975.570015 333.080818,975.724919 C 332.501160,975.881115 331.901583,975.961243 331.299069,975.960133 C 330.095632,975.957915 328.880481,975.631601 327.833941,975.022794 C 326.818441,974.432045 325.961700,973.575311 325.370947,972.559800 C 324.762138,971.513248 324.435827,970.298064 324.433609,969.094673 C 324.432499,968.492182 324.512626,967.892647 324.668822,967.312925 C 324.823726,966.738001 325.053444,966.182563 325.350892,965.666263 C 325.650821,965.145655 326.019615,964.664842 326.444454,964.240055 C 326.869294,963.815268 327.350181,963.446507 327.870661,963.146488 C 328.386834,962.848952 328.941949,962.619024 329.517321,962.464416 C 330.097496,962.308518 330.698267,962.229202 331.299070,962.229202 C 331.899872,962.229201 332.500705,962.308516 333.080821,962.464416 C 333.656134,962.619025 334.211072,962.848958 334.727483,963.146484 C 335.248204,963.446493 335.729753,963.815228 336.153693,964.240048 C 336.577632,964.664868 336.943961,965.145771 337.247257,965.666258 C 337.548043,966.182437 337.786835,966.737546 337.929327,967.312924 C 338.073008,967.893102 338.118775,968.493887 338.164540,969.094672"
       style="stroke:#000000;fill:none"
       id="path4568" />
    <path
       d="M 84.806561,698.031493 84.806561,698.031493"
       style="stroke:#000000;fill:none"
       id="path4570" />
    <path
       d="M 35.628215,673.423462 60.041080,673.423462"
       style="stroke:#000000;fill:none"
       id="path4572" />
    <path
       d="M 60.041080,673.423462 60.041080,722.639473"
       style="stroke:#000000;fill:none"
       id="path4574" />
    <path
       d="M 60.041080,722.639473 35.628215,722.639473"
       style="stroke:#000000;fill:none"
       id="path4576" />
    <path
       d="M 35.628215,722.639473 35.628215,673.423462"
       style="stroke:#000000;fill:none"
       id="path4578" />
    <path
       d="M 84.806561,698.031493 C 84.642768,700.181600 84.478977,702.331710 83.964768,704.408068 C 83.454815,706.467241 82.600220,708.453876 81.523757,710.301190 C 80.438312,712.163919 79.127280,713.884991 77.610074,715.405348 C 76.092869,716.925704 74.369489,718.245346 72.505919,719.319028 C 70.657771,720.383825 68.671744,721.206716 66.612795,721.760038 C 64.536665,722.317977 62.386391,722.601830 60.236221,722.601830 C 58.086052,722.601830 55.935988,722.317977 53.859648,721.760038 C 51.800490,721.206716 49.813841,720.383825 47.966523,719.319028 C 46.103790,718.245346 44.382722,716.925704 42.862366,715.405346 C 41.342011,713.884990 40.022368,712.163920 38.948686,710.301191 C 37.883888,708.453877 37.060997,706.467240 36.507675,704.408066 C 35.949736,702.331710 35.665883,700.181602 35.665883,698.031494 C 35.665883,695.881384 35.949736,693.731275 36.507675,691.654918 C 37.060997,689.595744 37.883888,687.609107 38.948686,685.761793 C 40.022368,683.899065 41.342011,682.177995 42.862366,680.657638 C 44.382722,679.137281 46.103790,677.817639 47.966524,676.743956 C 49.813841,675.679159 51.800489,674.856267 53.859646,674.302944 C 55.935987,673.745004 58.086053,673.461151 60.236223,673.461151 C 62.386392,673.461151 64.536665,673.745004 66.612794,674.302944 C 68.671743,674.856267 70.657770,675.679159 72.505918,676.743956 C 74.369489,677.817639 76.092870,679.137281 77.610076,680.657639 C 79.127281,682.177995 80.438311,683.899065 81.523756,685.761793 C 82.600219,687.609107 83.454815,689.595744 83.964769,691.654917 C 84.478977,693.731274 84.642768,695.881382 84.806561,698.031493"
       style="stroke:#000000;fill:none"
       id="path4580" />
  </g>
</svg>
