<?xml version="1.0" encoding="UTF-8" standalone="no"?>
<!-- Created with Inkscape (http://www.inkscape.org/) -->

<svg
   xmlns:dc="http://purl.org/dc/elements/1.1/"
   xmlns:cc="http://creativecommons.org/ns#"
   xmlns:rdf="http://www.w3.org/1999/02/22-rdf-syntax-ns#"
   xmlns:svg="http://www.w3.org/2000/svg"
   xmlns="http://www.w3.org/2000/svg"
   xmlns:sodipodi="http://sodipodi.sourceforge.net/DTD/sodipodi-0.dtd"
   xmlns:inkscape="http://www.inkscape.org/namespaces/inkscape"
   width="400mm"
   height="150mm"
   viewBox="0 0 1417.3228 531.49606"
   id="svg2"
   version="1.1"
   inkscape:version="0.91 r13725"
   sodipodi:docname="tube_mount_v2.svg">
  <defs
     id="defs4" />
  <sodipodi:namedview
     id="base"
     pagecolor="#ffffff"
     bordercolor="#666666"
     borderopacity="1.0"
     inkscape:pageopacity="0.0"
     inkscape:pageshadow="2"
     inkscape:zoom="1"
     inkscape:cx="726.89971"
     inkscape:cy="280.65242"
     inkscape:document-units="px"
     inkscape:current-layer="layer1"
     showgrid="false"
     inkscape:window-width="1920"
     inkscape:window-height="1018"
     inkscape:window-x="-8"
     inkscape:window-y="-8"
     inkscape:window-maximized="1" />
  <metadata
     id="metadata7">
    <rdf:RDF>
      <cc:Work
         rdf:about="">
        <dc:format>image/svg+xml</dc:format>
        <dc:type
           rdf:resource="http://purl.org/dc/dcmitype/StillImage" />
        <dc:title></dc:title>
      </cc:Work>
    </rdf:RDF>
  </metadata>
  <g
     inkscape:label="Layer 1"
     inkscape:groupmode="layer"
     id="layer1"
     transform="translate(0,-520.86614)">
    <path
       style="fill:none;stroke:#000000;stroke-width:0.442;stroke-miterlimit:4;stroke-dasharray:none;stroke-opacity:1"
       d="M 55.142578 194.66016 C 44.346116 194.66016 35.654297 203.35198 35.654297 214.14844 L 35.654297 476.35352 C 35.654297 487.14999 44.346116 495.8418 55.142578 495.8418 L 338.60742 495.8418 C 339.13144 495.8418 339.64876 495.81559 340.16211 495.77539 L 842.87109 495.77539 C 853.66756 495.77539 862.35938 487.08357 862.35938 476.28711 L 862.35938 446.19727 L 907.99219 446.19727 C 923.05109 446.19727 935.17383 437.612 935.17383 426.94727 L 935.17383 423.44727 C 935.17383 412.78254 923.05109 404.19727 907.99219 404.19727 L 862.35938 404.19727 L 862.35938 373.66406 C 862.35938 362.8676 853.66756 354.17578 842.87109 354.17578 L 358.0957 354.17578 L 358.0957 214.14844 C 358.0957 203.35198 349.40388 194.66016 338.60742 194.66016 L 55.142578 194.66016 z "
       transform="translate(-6.1035156e-5,520.86614)"
       id="rect4140" />
    <path
       style="fill:none;stroke:#000000;stroke-width:0.32714263;stroke-miterlimit:4;stroke-dasharray:none;stroke-opacity:1"
       d="m 97.277315,981.49603 a 8.6946964,8.6946964 0 0 1 -8.694696,8.6947 8.6946964,8.6946964 0 0 1 -8.694697,-8.6947 8.6946964,8.6946964 0 0 1 8.694697,-8.69469 8.6946964,8.6946964 0 0 1 8.694696,8.69469 z"
       id="path4149" />
    <path
       style="fill:none;stroke:#000000;stroke-width:0.32714263;stroke-miterlimit:4;stroke-dasharray:none;stroke-opacity:1"
       d="m 97.277315,910.62994 a 8.6946964,8.6946964 0 0 1 -8.694696,8.6947 8.6946964,8.6946964 0 0 1 -8.694697,-8.6947 8.6946964,8.6946964 0 0 1 8.694697,-8.69469 8.6946964,8.6946964 0 0 1 8.694696,8.69469 z"
       id="path4149-5" />
    <path
       style="fill:none;stroke:#000000;stroke-width:0.32714263;stroke-miterlimit:4;stroke-dasharray:none;stroke-opacity:1"
       d="m 313.41903,910.62994 a 8.6946964,8.6946964 0 0 1 -8.6947,8.6947 8.6946964,8.6946964 0 0 1 -8.69469,-8.6947 8.6946964,8.6946964 0 0 1 8.69469,-8.69469 8.6946964,8.6946964 0 0 1 8.6947,8.69469 z"
       id="path4149-5-2" />
    <path
       style="fill:none;stroke:#000000;stroke-width:0.32714263;stroke-miterlimit:4;stroke-dasharray:none;stroke-opacity:1"
       d="m 313.41903,981.49603 a 8.6946964,8.6946964 0 0 1 -8.6947,8.6947 8.6946964,8.6946964 0 0 1 -8.69469,-8.6947 8.6946964,8.6946964 0 0 1 8.69469,-8.69469 8.6946964,8.6946964 0 0 1 8.6947,8.69469 z"
       id="path4149-5-0" />
    <path
       style="fill:none;stroke:#000000;stroke-width:0.32714263;stroke-miterlimit:4;stroke-dasharray:none;stroke-opacity:1"
       d="m 97.277315,760.03937 a 8.6946964,8.6946964 0 0 1 -8.694696,8.69469 8.6946964,8.6946964 0 0 1 -8.694697,-8.69469 8.6946964,8.6946964 0 0 1 8.694697,-8.6947 8.6946964,8.6946964 0 0 1 8.694696,8.6947 z"
       id="path4149-5-6" />
    <path
       style="fill:none;stroke:#000000;stroke-width:0.32714263;stroke-miterlimit:4;stroke-dasharray:none;stroke-opacity:1"
       d="m 97.277315,830.90552 a 8.6946964,8.6946964 0 0 1 -8.694696,8.69469 8.6946964,8.6946964 0 0 1 -8.694697,-8.69469 8.6946964,8.6946964 0 0 1 8.694697,-8.6947 8.6946964,8.6946964 0 0 1 8.694696,8.6947 z"
       id="path4149-5-8" />
    <path
       style="fill:none;stroke:#000000;stroke-width:0.32714263;stroke-miterlimit:4;stroke-dasharray:none;stroke-opacity:1"
       d="m 168.14346,760.03937 a 8.6946964,8.6946964 0 0 1 -8.6947,8.69469 8.6946964,8.6946964 0 0 1 -8.6947,-8.69469 8.6946964,8.6946964 0 0 1 8.6947,-8.6947 8.6946964,8.6946964 0 0 1 8.6947,8.6947 z"
       id="path4149-5-64" />
    <path
       style="fill:none;stroke:#000000;stroke-width:0.32714263;stroke-miterlimit:4;stroke-dasharray:none;stroke-opacity:1"
       d="m 168.14346,830.90552 a 8.6946964,8.6946964 0 0 1 -8.6947,8.69469 8.6946964,8.6946964 0 0 1 -8.6947,-8.69469 8.6946964,8.6946964 0 0 1 8.6947,-8.6947 8.6946964,8.6946964 0 0 1 8.6947,8.6947 z"
       id="path4149-5-05" />
    <path
       style="fill:none;stroke:#000000;stroke-width:0.32714263;stroke-miterlimit:4;stroke-dasharray:none;stroke-opacity:1"
       d="m 239.00959,760.03937 a 8.6946964,8.6946964 0 0 1 -8.69469,8.69469 8.6946964,8.6946964 0 0 1 -8.6947,-8.69469 8.6946964,8.6946964 0 0 1 8.6947,-8.6947 8.6946964,8.6946964 0 0 1 8.69469,8.6947 z"
       id="path4149-5-9" />
    <path
       style="fill:none;stroke:#000000;stroke-width:0.32714263;stroke-miterlimit:4;stroke-dasharray:none;stroke-opacity:1"
       d="m 239.00959,830.90552 a 8.6946964,8.6946964 0 0 1 -8.69469,8.69469 8.6946964,8.6946964 0 0 1 -8.6947,-8.69469 8.6946964,8.6946964 0 0 1 8.6947,-8.6947 8.6946964,8.6946964 0 0 1 8.69469,8.6947 z"
       id="path4149-5-3" />
    <path
       style="fill:none;stroke:#000000;stroke-width:0.32714263;stroke-miterlimit:4;stroke-dasharray:none;stroke-opacity:1"
       d="m 313.41903,760.03937 a 8.6946964,8.6946964 0 0 1 -8.6947,8.69469 8.6946964,8.6946964 0 0 1 -8.69469,-8.69469 8.6946964,8.6946964 0 0 1 8.69469,-8.6947 8.6946964,8.6946964 0 0 1 8.6947,8.6947 z"
       id="path4149-5-1" />
    <path
       style="fill:none;stroke:#000000;stroke-width:0.32714263;stroke-miterlimit:4;stroke-dasharray:none;stroke-opacity:1"
       d="m 313.41903,830.90552 a 8.6946964,8.6946964 0 0 1 -8.6947,8.69469 8.6946964,8.6946964 0 0 1 -8.69469,-8.69469 8.6946964,8.6946964 0 0 1 8.69469,-8.6947 8.6946964,8.6946964 0 0 1 8.6947,8.6947 z"
       id="path4149-5-5" />
    <path
       style="fill:none;stroke:#000000;stroke-width:0.32714263;stroke-miterlimit:4;stroke-dasharray:none;stroke-opacity:1"
       d="m 421.48992,915.94489 a 8.6946964,8.6946964 0 0 1 -8.69469,8.69469 8.6946964,8.6946964 0 0 1 -8.6947,-8.69469 8.6946964,8.6946964 0 0 1 8.6947,-8.6947 8.6946964,8.6946964 0 0 1 8.69469,8.6947 z"
       id="path4149-5-93" />
    <path
       style="fill:none;stroke:#000000;stroke-width:0.32714263;stroke-miterlimit:4;stroke-dasharray:none;stroke-opacity:1"
       d="m 421.48992,976.18109 a 8.6946964,8.6946964 0 0 1 -8.69469,8.6947 8.6946964,8.6946964 0 0 1 -8.6947,-8.6947 8.6946964,8.6946964 0 0 1 8.6947,-8.6947 8.6946964,8.6946964 0 0 1 8.69469,8.6947 z"
       id="path4149-5-38" />
    <path
       style="fill:none;stroke:#000000;stroke-width:0.32714263;stroke-miterlimit:4;stroke-dasharray:none;stroke-opacity:1"
       d="m 492.35604,915.94489 a 8.6946964,8.6946964 0 0 1 -8.69469,8.69469 8.6946964,8.6946964 0 0 1 -8.6947,-8.69469 8.6946964,8.6946964 0 0 1 8.6947,-8.6947 8.6946964,8.6946964 0 0 1 8.69469,8.6947 z"
       id="path4149-5-939" />
    <path
       style="fill:none;stroke:#000000;stroke-width:0.32714263;stroke-miterlimit:4;stroke-dasharray:none;stroke-opacity:1"
       d="m 492.35604,976.18109 a 8.6946964,8.6946964 0 0 1 -8.69469,8.6947 8.6946964,8.6946964 0 0 1 -8.6947,-8.6947 8.6946964,8.6946964 0 0 1 8.6947,-8.6947 8.6946964,8.6946964 0 0 1 8.69469,8.6947 z"
       id="path4149-5-87" />
    <path
       style="fill:none;stroke:#000000;stroke-width:0.32714263;stroke-miterlimit:4;stroke-dasharray:none;stroke-opacity:1"
       d="m 563.22222,915.94489 a 8.6946964,8.6946964 0 0 1 -8.69469,8.69469 8.6946964,8.6946964 0 0 1 -8.6947,-8.69469 8.6946964,8.6946964 0 0 1 8.6947,-8.6947 8.6946964,8.6946964 0 0 1 8.69469,8.6947 z"
       id="path4149-5-939-9" />
    <path
       style="fill:none;stroke:#000000;stroke-width:0.32714263;stroke-miterlimit:4;stroke-dasharray:none;stroke-opacity:1"
       d="m 634.08831,915.94489 a 8.6946964,8.6946964 0 0 1 -8.69469,8.69469 8.6946964,8.6946964 0 0 1 -8.6947,-8.69469 8.6946964,8.6946964 0 0 1 8.6947,-8.6947 8.6946964,8.6946964 0 0 1 8.69469,8.6947 z"
       id="path4149-5-939-7" />
    <path
       style="fill:none;stroke:#000000;stroke-width:0.32714263;stroke-miterlimit:4;stroke-dasharray:none;stroke-opacity:1"
       d="m 704.95446,915.94489 a 8.6946964,8.6946964 0 0 1 -8.69469,8.69469 8.6946964,8.6946964 0 0 1 -8.6947,-8.69469 8.6946964,8.6946964 0 0 1 8.6947,-8.6947 8.6946964,8.6946964 0 0 1 8.69469,8.6947 z"
       id="path4149-5-939-0" />
    <path
       style="fill:none;stroke:#000000;stroke-width:0.32714263;stroke-miterlimit:4;stroke-dasharray:none;stroke-opacity:1"
       d="m 775.82061,915.94489 a 8.6946964,8.6946964 0 0 1 -8.69469,8.69469 8.6946964,8.6946964 0 0 1 -8.6947,-8.69469 8.6946964,8.6946964 0 0 1 8.6947,-8.6947 8.6946964,8.6946964 0 0 1 8.69469,8.6947 z"
       id="path4149-5-939-2" />
    <path
       style="fill:none;stroke:#000000;stroke-width:0.32714263;stroke-miterlimit:4;stroke-dasharray:none;stroke-opacity:1"
       d="m 563.22222,976.18109 a 8.6946964,8.6946964 0 0 1 -8.69469,8.6947 8.6946964,8.6946964 0 0 1 -8.6947,-8.6947 8.6946964,8.6946964 0 0 1 8.6947,-8.6947 8.6946964,8.6946964 0 0 1 8.69469,8.6947 z"
       id="path4149-5-939-71" />
    <path
       style="fill:none;stroke:#000000;stroke-width:0.32714263;stroke-miterlimit:4;stroke-dasharray:none;stroke-opacity:1"
       d="m 634.08831,976.18109 a 8.6946964,8.6946964 0 0 1 -8.69469,8.6947 8.6946964,8.6946964 0 0 1 -8.6947,-8.6947 8.6946964,8.6946964 0 0 1 8.6947,-8.6947 8.6946964,8.6946964 0 0 1 8.69469,8.6947 z"
       id="path4149-5-939-06" />
    <path
       style="fill:none;stroke:#000000;stroke-width:0.32714263;stroke-miterlimit:4;stroke-dasharray:none;stroke-opacity:1"
       d="m 704.95446,976.18109 a 8.6946964,8.6946964 0 0 1 -8.69469,8.6947 8.6946964,8.6946964 0 0 1 -8.6947,-8.6947 8.6946964,8.6946964 0 0 1 8.6947,-8.6947 8.6946964,8.6946964 0 0 1 8.69469,8.6947 z"
       id="path4149-5-939-1" />
    <path
       style="fill:none;stroke:#000000;stroke-width:0.32714263;stroke-miterlimit:4;stroke-dasharray:none;stroke-opacity:1"
       d="m 846.68676,915.94489 a 8.6946964,8.6946964 0 0 1 -8.69469,8.69469 8.6946964,8.6946964 0 0 1 -8.6947,-8.69469 8.6946964,8.6946964 0 0 1 8.6947,-8.6947 8.6946964,8.6946964 0 0 1 8.69469,8.6947 z"
       id="path4149-5-939-3" />
    <path
       style="fill:none;stroke:#000000;stroke-width:0.32714263;stroke-miterlimit:4;stroke-dasharray:none;stroke-opacity:1"
       d="m 846.68676,976.18109 a 8.6946964,8.6946964 0 0 1 -8.69469,8.6947 8.6946964,8.6946964 0 0 1 -8.6947,-8.6947 8.6946964,8.6946964 0 0 1 8.6947,-8.6947 8.6946964,8.6946964 0 0 1 8.69469,8.6947 z"
       id="path4149-5-939-8" />
    <path
       style="fill:none;stroke:#000000;stroke-width:0.32714263;stroke-miterlimit:4;stroke-dasharray:none;stroke-opacity:1"
       d="m 775.82061,976.18109 a 8.6946964,8.6946964 0 0 1 -8.69469,8.6947 8.6946964,8.6946964 0 0 1 -8.6947,-8.6947 8.6946964,8.6946964 0 0 1 8.6947,-8.6947 8.6946964,8.6946964 0 0 1 8.69469,8.6947 z"
       id="path4149-5-939-15" />
    <path
       style="fill:none;stroke:#000000;stroke-width:0.442;stroke-miterlimit:4;stroke-dasharray:none;stroke-opacity:1"
       d="m 409.47291,715.52704 283.46455,0 c 10.79646,0 19.4882,8.69174 19.4882,19.4882 l 0,102.75588 c 0,10.79647 -8.69174,19.4882 -19.4882,19.4882 l -283.46455,0 c -10.79646,0 -19.4882,-8.69173 -19.4882,-19.4882 l 0,-102.75588 c 0,-10.79646 8.69174,-19.4882 19.4882,-19.4882 z"
       id="rect4250" />
    <path
       style="fill:none;stroke:#000000;stroke-width:0.32714263;stroke-miterlimit:4;stroke-dasharray:none;stroke-opacity:1"
       d="m 451.60803,751.18109 a 8.6946964,8.6946964 0 0 1 -8.6947,8.6947 8.6946964,8.6946964 0 0 1 -8.6947,-8.6947 8.6946964,8.6946964 0 0 1 8.6947,-8.6947 8.6946964,8.6946964 0 0 1 8.6947,8.6947 z"
       id="path4149-5-93-5" />
    <path
       style="fill:none;stroke:#000000;stroke-width:0.32714263;stroke-miterlimit:4;stroke-dasharray:none;stroke-opacity:1"
       d="m 451.60803,822.04724 a 8.6946964,8.6946964 0 0 1 -8.6947,8.6947 8.6946964,8.6946964 0 0 1 -8.6947,-8.6947 8.6946964,8.6946964 0 0 1 8.6947,-8.6947 8.6946964,8.6946964 0 0 1 8.6947,8.6947 z"
       id="path4149-5-38-2" />
    <path
       style="fill:none;stroke:#000000;stroke-width:0.32714263;stroke-miterlimit:4;stroke-dasharray:none;stroke-opacity:1"
       d="m 667.74975,751.18109 a 8.6946964,8.6946964 0 0 1 -8.6947,8.6947 8.6946964,8.6946964 0 0 1 -8.69469,-8.6947 8.6946964,8.6946964 0 0 1 8.69469,-8.6947 8.6946964,8.6946964 0 0 1 8.6947,8.6947 z"
       id="path4149-5-939-26" />
    <path
       style="fill:none;stroke:#000000;stroke-width:0.32714263;stroke-miterlimit:4;stroke-dasharray:none;stroke-opacity:1"
       d="m 667.74975,822.04724 a 8.6946964,8.6946964 0 0 1 -8.6947,8.6947 8.6946964,8.6946964 0 0 1 -8.69469,-8.6947 8.6946964,8.6946964 0 0 1 8.69469,-8.6947 8.6946964,8.6946964 0 0 1 8.6947,8.6947 z"
       id="path4149-5-87-6" />
  </g>
</svg>
