  0
SECTION
  2
HEADER
  9
$ACADVER
  1
AC1014
  9
$HANDSEED
  5
FFFF
  9
$MEASUREMENT
 70
     1
  0
ENDSEC
  0
SECTION
  2
TABLES
  0
TABLE
  2
VPORT
  5
8
330
0
100
AcDbSymbolTable
 70
     4
  0
VPORT
  5
2E
330
8
100
AcDbSymbolTableRecord
100
AcDbViewportTableRecord
  2
*ACTIVE
 70
     0
 10
0.0
 20
0.0
 11
1.0
 21
1.0
 12
210.0
 22
148.5
 13
0.0
 23
0.0
 14
10.0
 24
10.0
 15
10.0
 25
10.0
 16
0.0
 26
0.0
 36
1.0
 17
0.0
 27
0.0
 37
0.0
 40
341.0
 41
1.24
 42
50.0
 43
0.0
 44
0.0
 50
0.0
 51
0.0
 71
     0
 72
   100
 73
     1
 74
     3
 75
     0
 76
     0
 77
     0
 78
     0
  0
ENDTAB
  0
TABLE
  2
LTYPE
  5
5
330
0
100
AcDbSymbolTable
 70
     1
  0
LTYPE
  5
14
330
5
100
AcDbSymbolTableRecord
100
AcDbLinetypeTableRecord
  2
BYBLOCK
 70
     0
  3

 72
    65
 73
     0
 40
0.0
  0
LTYPE
  5
15
330
5
100
AcDbSymbolTableRecord
100
AcDbLinetypeTableRecord
  2
BYLAYER
 70
     0
  3

 72
    65
 73
     0
 40
0.0
  0
LTYPE
  5
16
330
5
100
AcDbSymbolTableRecord
100
AcDbLinetypeTableRecord
  2
CONTINUOUS
 70
     0
  3
Solid line
 72
    65
 73
     0
 40
0.0
  0
ENDTAB
  0
TABLE
  2
LAYER
  5
2
100
AcDbSymbolTable
 70
2
  0
LAYER
  5
50
100
AcDbSymbolTableRecord
100
AcDbLayerTableRecord
  2
0
 70
0
  6
CONTINUOUS
  0
LAYER
  5
51
100
AcDbSymbolTableRecord
100
AcDbLayerTableRecord
  2
Layer_1
 70
0
  6
CONTINUOUS
  0
ENDTAB
  0
TABLE
  2
STYLE
  5
3
330
0
100
AcDbSymbolTable
 70
     1
  0
STYLE
  5
11
330
3
100
AcDbSymbolTableRecord
100
AcDbTextStyleTableRecord
  2
STANDARD
 70
     0
 40
0.0
 41
1.0
 50
0.0
 71
     0
 42
2.5
  3
txt
  4

  0
ENDTAB
  0
TABLE
  2
VIEW
  5
6
330
0
100
AcDbSymbolTable
 70
     0
  0
ENDTAB
  0
TABLE
  2
UCS
  5
7
330
0
100
AcDbSymbolTable
 70
     0
  0
ENDTAB
  0
TABLE
  2
APPID
  5
9
330
0
100
AcDbSymbolTable
 70
     2
  0
APPID
  5
12
330
9
100
AcDbSymbolTableRecord
100
AcDbRegAppTableRecord
  2
ACAD
 70
     0
  0
ENDTAB
  0
TABLE
  2
DIMSTYLE
  5
A
330
0
100
AcDbSymbolTable
 70
     1
  0
DIMSTYLE
105
27
330
A
100
AcDbSymbolTableRecord
100
AcDbDimStyleTableRecord
  2
ISO-25
 70
     0
  3

  4

  5

  6

  7

 40
1.0
 41
2.5
 42
0.625
 43
3.75
 44
1.25
 45
0.0
 46
0.0
 47
0.0
 48
0.0
140
2.5
141
2.5
142
0.0
143
0.03937007874016
144
1.0
145
0.0
146
1.0
147
0.625
 71
     0
 72
     0
 73
     0
 74
     0
 75
     0
 76
     0
 77
     1
 78
     8
170
     0
171
     3
172
     1
173
     0
174
     0
175
     0
176
     0
177
     0
178
     0
270
     2
271
     2
272
     2
273
     2
274
     3
340
11
275
     0
280
     0
281
     0
282
     0
283
     0
284
     8
285
     0
286
     0
287
     3
288
     0
  0
ENDTAB
  0
TABLE
  2
BLOCK_RECORD
  5
1
330
0
100
AcDbSymbolTable
 70
     1
  0
BLOCK_RECORD
  5
1F
330
1
100
AcDbSymbolTableRecord
100
AcDbBlockTableRecord
  2
*MODEL_SPACE
  0
BLOCK_RECORD
  5
1B
330
1
100
AcDbSymbolTableRecord
100
AcDbBlockTableRecord
  2
*PAPER_SPACE
  0
ENDTAB
  0
ENDSEC
  0
SECTION
  2
BLOCKS
  0
BLOCK
  5
20
330
1F
100
AcDbEntity
  8
0
100
AcDbBlockBegin
  2
*MODEL_SPACE
 70
     0
 10
0.0
 20
0.0
 30
0.0
  3
*MODEL_SPACE
  1

  0
ENDBLK
  5
21
330
1F
100
AcDbEntity
  8
0
100
AcDbBlockEnd
  0
BLOCK
  5
1C
330
1B
100
AcDbEntity
 67
     1
  8
0
100
AcDbBlockBegin
  2
*PAPER_SPACE
  1

  0
ENDBLK
  5
1D
330
1B
100
AcDbEntity
 67
     1
  8
0
100
AcDbBlockEnd
  0
ENDSEC
  0
SECTION
  2
ENTITIES
  0
LINE
  5
100
100
AcDbEntity
  8
Layer_1
 62
7
100
AcDbLine
 10
10.062418
 20
89.562551
 30
0.0
 11
10.062418
 21
15.562451
 31
0.0
  0
SPLINE
  5
101
100
AcDbEntity
  8
Layer_1
 62
7
100
AcDbSpline
 70
0
 71
3
 72
10
 73
6
 74
4
 40
0.000000
 40
0.000000
 40
0.000000
 40
0.000000
 40
2.879236
 40
5.666720
 40
8.545956
 40
8.545956
 40
8.545956
 40
8.545956
 10
15.562444
 20
95.062577
 30
0.0
 10
14.597178
 20
94.912485
 30
0.0
 10
12.697406
 20
94.617083
 30
0.0
 10
10.507912
 20
92.427589
 30
0.0
 10
10.212510
 20
90.527817
 30
0.0
 10
10.062418
 20
89.562551
 30
0.0
 11
15.562444
 21
95.062577
 31
0.0
 11
12.782288
 21
94.313756
 31
0.0
 11
10.811239
 21
92.342707
 31
0.0
 11
10.062418
 21
89.562551
 31
0.0
  0
LINE
  5
102
100
AcDbEntity
  8
Layer_1
 62
7
100
AcDbLine
 10
15.562444
 20
10.062425
 30
0.0
 11
95.562521
 21
10.062425
 31
0.0
  0
SPLINE
  5
103
100
AcDbEntity
  8
Layer_1
 62
7
100
AcDbSpline
 70
0
 71
3
 72
10
 73
6
 74
4
 40
0.000000
 40
0.000000
 40
0.000000
 40
0.000000
 40
2.879237
 40
5.666721
 40
8.545956
 40
8.545956
 40
8.545956
 40
8.545956
 10
10.062418
 20
15.562451
 30
0.0
 10
10.212510
 20
14.597185
 30
0.0
 10
10.507912
 20
12.697412
 30
0.0
 10
12.697406
 20
10.507919
 30
0.0
 10
14.597178
 20
10.212518
 30
0.0
 10
15.562444
 20
10.062425
 30
0.0
 11
10.062418
 21
15.562451
 31
0.0
 11
10.811239
 21
12.782295
 31
0.0
 11
12.782288
 21
10.811246
 31
0.0
 11
15.562444
 21
10.062425
 31
0.0
  0
LINE
  5
104
100
AcDbEntity
  8
Layer_1
 62
7
100
AcDbLine
 10
96.001289
 20
10.081168
 30
0.0
 11
237.876935
 21
10.081168
 31
0.0
  0
SPLINE
  5
105
100
AcDbEntity
  8
Layer_1
 62
7
100
AcDbSpline
 70
0
 71
3
 72
10
 73
6
 74
4
 40
0.000000
 40
0.000000
 40
0.000000
 40
0.000000
 40
0.147307
 40
0.293650
 40
0.439268
 40
0.439268
 40
0.439268
 40
0.439268
 10
95.562521
 20
10.062425
 30
0.0
 10
95.611624
 20
10.062907
 30
0.0
 10
95.709509
 20
10.063867
 30
0.0
 10
95.855810
 20
10.070612
 30
0.0
 10
95.952877
 20
10.077655
 30
0.0
 10
96.001289
 20
10.081168
 30
0.0
 11
95.562521
 21
10.062425
 31
0.0
 11
95.709810
 21
10.064763
 31
0.0
 11
95.856009
 21
10.071266
 31
0.0
 11
96.001289
 21
10.081168
 31
0.0
  0
LINE
  5
106
100
AcDbEntity
  8
Layer_1
 62
7
100
AcDbLine
 10
243.376963
 20
15.581193
 30
0.0
 11
243.376963
 21
24.073215
 31
0.0
  0
LINE
  5
107
100
AcDbEntity
  8
Layer_1
 62
7
100
AcDbLine
 10
243.376963
 20
24.073215
 30
0.0
 11
256.255556
 21
24.073215
 31
0.0
  0
SPLINE
  5
108
100
AcDbEntity
  8
Layer_1
 62
7
100
AcDbSpline
 70
0
 71
3
 72
10
 73
6
 74
4
 40
0.000000
 40
0.000000
 40
0.000000
 40
0.000000
 40
2.879237
 40
5.666722
 40
8.545958
 40
8.545958
 40
8.545958
 40
8.545958
 10
237.876935
 20
10.081168
 30
0.0
 10
238.842201
 20
10.231260
 30
0.0
 10
240.741974
 20
10.526662
 30
0.0
 10
242.931469
 20
12.716155
 30
0.0
 10
243.226871
 20
14.615928
 30
0.0
 10
243.376963
 20
15.581193
 30
0.0
 11
237.876935
 21
10.081168
 31
0.0
 11
240.657092
 21
10.829989
 31
0.0
 11
242.628142
 21
12.801038
 31
0.0
 11
243.376963
 21
15.581193
 31
0.0
  0
LINE
  5
109
100
AcDbEntity
  8
Layer_1
 62
7
100
AcDbLine
 10
263.926819
 20
29.505993
 30
0.0
 11
263.926819
 21
30.493770
 31
0.0
  0
SPLINE
  5
10a
100
AcDbEntity
  8
Layer_1
 62
7
100
AcDbSpline
 70
0
 71
3
 72
10
 73
6
 74
4
 40
0.000000
 40
0.000000
 40
0.000000
 40
0.000000
 40
3.947627
 40
7.316350
 40
10.254443
 40
10.254443
 40
10.254443
 40
10.254443
 10
256.255556
 20
24.073215
 30
0.0
 10
257.564469
 20
24.208064
 30
0.0
 10
259.990347
 20
24.457988
 30
0.0
 10
263.154400
 20
26.421552
 30
0.0
 10
263.681339
 20
28.525737
 30
0.0
 10
263.926819
 20
29.505993
 30
0.0
 11
256.255556
 21
24.073215
 31
0.0
 11
260.133272
 21
24.812863
 31
0.0
 11
262.882408
 21
26.759795
 31
0.0
 11
263.926819
 21
29.505993
 31
0.0
  0
LINE
  5
10b
100
AcDbEntity
  8
Layer_1
 62
7
100
AcDbLine
 10
256.255556
 20
35.926548
 30
0.0
 11
243.376963
 21
35.926548
 31
0.0
  0
LINE
  5
10c
100
AcDbEntity
  8
Layer_1
 62
7
100
AcDbLine
 10
243.376963
 20
35.926548
 30
0.0
 11
243.376963
 21
44.543699
 31
0.0
  0
SPLINE
  5
10d
100
AcDbEntity
  8
Layer_1
 62
7
100
AcDbSpline
 70
0
 71
3
 72
10
 73
6
 74
4
 40
0.000000
 40
0.000000
 40
0.000000
 40
0.000000
 40
2.938094
 40
6.306817
 40
10.254443
 40
10.254443
 40
10.254443
 40
10.254443
 10
263.926819
 20
30.493770
 30
0.0
 10
263.681339
 20
31.474026
 30
0.0
 10
263.154400
 20
33.578211
 30
0.0
 10
259.990347
 20
35.541775
 30
0.0
 10
257.564469
 20
35.791699
 30
0.0
 10
256.255556
 20
35.926548
 30
0.0
 11
263.926819
 21
30.493770
 31
0.0
 11
262.882408
 21
33.239968
 31
0.0
 11
260.133272
 21
35.186900
 31
0.0
 11
256.255556
 21
35.926548
 31
0.0
  0
LINE
  5
10e
100
AcDbEntity
  8
Layer_1
 62
7
100
AcDbLine
 10
237.876935
 20
50.043724
 30
0.0
 11
101.062547
 21
50.043724
 31
0.0
  0
LINE
  5
10f
100
AcDbEntity
  8
Layer_1
 62
7
100
AcDbLine
 10
101.062547
 20
50.043724
 30
0.0
 11
101.062547
 21
89.562551
 31
0.0
  0
SPLINE
  5
110
100
AcDbEntity
  8
Layer_1
 62
7
100
AcDbSpline
 70
0
 71
3
 72
10
 73
6
 74
4
 40
0.000000
 40
0.000000
 40
0.000000
 40
0.000000
 40
2.879235
 40
5.666720
 40
8.545958
 40
8.545958
 40
8.545958
 40
8.545958
 10
243.376963
 20
44.543699
 30
0.0
 10
243.226871
 20
45.508964
 30
0.0
 10
242.931469
 20
47.408737
 30
0.0
 10
240.741974
 20
49.598230
 30
0.0
 10
238.842201
 20
49.893632
 30
0.0
 10
237.876935
 20
50.043724
 30
0.0
 11
243.376963
 21
44.543699
 31
0.0
 11
242.628142
 21
47.323854
 31
0.0
 11
240.657092
 21
49.294903
 31
0.0
 11
237.876935
 21
50.043724
 31
0.0
  0
LINE
  5
111
100
AcDbEntity
  8
Layer_1
 62
7
100
AcDbLine
 10
95.562521
 20
95.062577
 30
0.0
 11
15.562444
 21
95.062577
 31
0.0
  0
LINE
  5
112
100
AcDbEntity
  8
Layer_1
 62
7
100
AcDbLine
 10
15.562444
 20
95.062577
 30
0.0
 11
15.562444
 21
95.062577
 31
0.0
  0
SPLINE
  5
113
100
AcDbEntity
  8
Layer_1
 62
7
100
AcDbSpline
 70
0
 71
3
 72
10
 73
6
 74
4
 40
0.000000
 40
0.000000
 40
0.000000
 40
0.000000
 40
2.879235
 40
5.666720
 40
8.545955
 40
8.545955
 40
8.545955
 40
8.545955
 10
101.062547
 20
89.562551
 30
0.0
 10
100.912455
 20
90.527817
 30
0.0
 10
100.617053
 20
92.427589
 30
0.0
 10
98.427559
 20
94.617083
 30
0.0
 10
96.527787
 20
94.912485
 30
0.0
 10
95.562521
 20
95.062577
 30
0.0
 11
101.062547
 21
89.562551
 31
0.0
 11
100.313726
 21
92.342707
 31
0.0
 11
98.342677
 21
94.313756
 31
0.0
 11
95.562521
 21
95.062577
 31
0.0
  0
LINE
  5
114
100
AcDbEntity
  8
Layer_1
 62
7
100
AcDbLine
 10
27.453820
 20
20.000009
 30
0.0
 11
27.453820
 21
20.000009
 31
0.0
  0
SPLINE
  5
115
100
AcDbEntity
  8
Layer_1
 62
7
100
AcDbSpline
 70
0
 71
3
 72
25
 73
21
 74
19
 40
0.000000
 40
0.000000
 40
0.000000
 40
0.000000
 40
0.642353
 40
1.279390
 40
1.921743
 40
2.564096
 40
3.201133
 40
3.843486
 40
4.485839
 40
5.122876
 40
5.765229
 40
6.407582
 40
7.044620
 40
7.686972
 40
8.969983
 40
10.214939
 40
11.497950
 40
12.780960
 40
14.025916
 40
15.308927
 40
15.308927
 40
15.308927
 40
15.308927
 10
27.453820
 20
20.000009
 30
0.0
 10
27.437462
 20
19.785278
 30
0.0
 10
27.404882
 20
19.357592
 30
0.0
 10
27.147413
 20
18.759066
 30
0.0
 10
26.755699
 20
18.244838
 30
0.0
 10
26.240782
 20
17.850551
 30
0.0
 10
25.642439
 20
17.602634
 30
0.0
 10
24.999973
 20
17.517822
 30
0.0
 10
24.357571
 20
17.602635
 30
0.0
 10
23.759036
 20
17.850546
 30
0.0
 10
23.244827
 20
18.244859
 30
0.0
 10
22.850478
 20
18.758989
 30
0.0
 10
22.602788
 20
19.357875
 30
0.0
 10
22.488565
 20
20.212659
 30
0.0
 10
22.776597
 20
21.285991
 30
0.0
 10
23.714611
 20
22.222915
 30
0.0
 10
25.002210
 20
22.570975
 30
0.0
 10
26.276583
 20
22.223195
 30
0.0
 10
27.253488
 20
21.284896
 30
0.0
 10
27.386376
 20
20.432581
 30
0.0
 10
27.453820
 20
20.000009
 30
0.0
 11
27.453820
 21
20.000009
 31
0.0
 11
27.369750
 21
19.363181
 31
0.0
 11
27.125967
 21
18.774635
 31
0.0
 11
26.735108
 21
18.264884
 31
0.0
 11
26.225357
 21
17.874025
 31
0.0
 11
25.636811
 21
17.630241
 31
0.0
 11
24.999984
 21
17.546171
 31
0.0
 11
24.363156
 21
17.630241
 31
0.0
 11
23.774610
 21
17.874025
 31
0.0
 11
23.264859
 21
18.264884
 31
0.0
 11
22.874000
 21
18.774635
 31
0.0
 11
22.630216
 21
19.363181
 31
0.0
 11
22.546147
 21
20.000009
 31
0.0
 11
22.881168
 21
21.238506
 31
0.0
 11
23.761486
 21
22.118823
 31
0.0
 11
24.999984
 21
22.453844
 31
0.0
 11
26.238481
 21
22.118823
 31
0.0
 11
27.118799
 21
21.238506
 31
0.0
 11
27.453820
 21
20.000009
 31
0.0
  0
LINE
  5
116
100
AcDbEntity
  8
Layer_1
 62
7
100
AcDbLine
 10
27.453820
 20
39.999994
 30
0.0
 11
27.453820
 21
39.999994
 31
0.0
  0
SPLINE
  5
117
100
AcDbEntity
  8
Layer_1
 62
7
100
AcDbSpline
 70
0
 71
3
 72
25
 73
21
 74
19
 40
0.000000
 40
0.000000
 40
0.000000
 40
0.000000
 40
0.642353
 40
1.279390
 40
1.921743
 40
2.564096
 40
3.201133
 40
3.843486
 40
4.485839
 40
5.122876
 40
5.765229
 40
6.407582
 40
7.044620
 40
7.686972
 40
8.969983
 40
10.214939
 40
11.497950
 40
12.780960
 40
14.025916
 40
15.308927
 40
15.308927
 40
15.308927
 40
15.308927
 10
27.453820
 20
39.999994
 30
0.0
 10
27.437462
 20
39.785263
 30
0.0
 10
27.404882
 20
39.357578
 30
0.0
 10
27.147413
 20
38.759051
 30
0.0
 10
26.755699
 20
38.244824
 30
0.0
 10
26.240782
 20
37.850537
 30
0.0
 10
25.642439
 20
37.602619
 30
0.0
 10
24.999973
 20
37.517808
 30
0.0
 10
24.357571
 20
37.602620
 30
0.0
 10
23.759036
 20
37.850531
 30
0.0
 10
23.244827
 20
38.244844
 30
0.0
 10
22.850478
 20
38.758975
 30
0.0
 10
22.602788
 20
39.357860
 30
0.0
 10
22.488565
 20
40.212644
 30
0.0
 10
22.776597
 20
41.285976
 30
0.0
 10
23.714611
 20
42.222900
 30
0.0
 10
25.002210
 20
42.570960
 30
0.0
 10
26.276583
 20
42.223180
 30
0.0
 10
27.253488
 20
41.284882
 30
0.0
 10
27.386376
 20
40.432567
 30
0.0
 10
27.453820
 20
39.999994
 30
0.0
 11
27.453820
 21
39.999994
 31
0.0
 11
27.369750
 21
39.363166
 31
0.0
 11
27.125967
 21
38.774621
 31
0.0
 11
26.735108
 21
38.264869
 31
0.0
 11
26.225357
 21
37.874010
 31
0.0
 11
25.636811
 21
37.630226
 31
0.0
 11
24.999984
 21
37.546157
 31
0.0
 11
24.363156
 21
37.630226
 31
0.0
 11
23.774610
 21
37.874010
 31
0.0
 11
23.264859
 21
38.264869
 31
0.0
 11
22.874000
 21
38.774621
 31
0.0
 11
22.630216
 21
39.363166
 31
0.0
 11
22.546147
 21
39.999994
 31
0.0
 11
22.881168
 21
41.238492
 31
0.0
 11
23.761486
 21
42.118809
 31
0.0
 11
24.999984
 21
42.453829
 31
0.0
 11
26.238481
 21
42.118809
 31
0.0
 11
27.118799
 21
41.238492
 31
0.0
 11
27.453820
 21
39.999994
 31
0.0
  0
LINE
  5
118
100
AcDbEntity
  8
Layer_1
 62
7
100
AcDbLine
 10
88.453815
 20
39.999994
 30
0.0
 11
88.453815
 21
39.999994
 31
0.0
  0
SPLINE
  5
119
100
AcDbEntity
  8
Layer_1
 62
7
100
AcDbSpline
 70
0
 71
3
 72
22
 73
18
 74
16
 40
0.000000
 40
0.000000
 40
0.000000
 40
0.000000
 40
0.642353
 40
1.279391
 40
1.921744
 40
2.564097
 40
3.201134
 40
3.843487
 40
5.126498
 40
6.371455
 40
7.654465
 40
8.937475
 40
10.182431
 40
11.465441
 40
12.748451
 40
13.993408
 40
15.276419
 40
15.276419
 40
15.276419
 40
15.276419
 10
88.453815
 20
39.999994
 30
0.0
 10
88.437457
 20
39.785263
 30
0.0
 10
88.404876
 20
39.357578
 30
0.0
 10
88.147413
 20
38.759047
 30
0.0
 10
87.755673
 20
38.244836
 30
0.0
 10
87.240853
 20
37.850489
 30
0.0
 10
86.642150
 20
37.602794
 30
0.0
 10
85.787306
 20
37.488596
 30
0.0
 10
84.714000
 20
37.776444
 30
0.0
 10
83.777080
 20
38.715205
 30
0.0
 10
83.428969
 20
39.999969
 30
0.0
 10
83.776952
 20
41.284882
 30
0.0
 10
84.714508
 20
42.223199
 30
0.0
 10
86.002231
 20
42.570879
 30
0.0
 10
87.276571
 20
42.223201
 30
0.0
 10
88.253485
 20
41.284877
 30
0.0
 10
88.386372
 20
40.432565
 30
0.0
 10
88.453815
 20
39.999994
 30
0.0
 11
88.453815
 21
39.999994
 31
0.0
 11
88.369746
 21
39.363166
 31
0.0
 11
88.125962
 21
38.774620
 31
0.0
 11
87.735103
 21
38.264869
 31
0.0
 11
87.225351
 21
37.874010
 31
0.0
 11
86.636806
 21
37.630226
 31
0.0
 11
85.999978
 21
37.546157
 31
0.0
 11
84.761480
 21
37.881178
 31
0.0
 11
83.881163
 21
38.761496
 31
0.0
 11
83.546143
 21
39.999994
 31
0.0
 11
83.881164
 21
41.238491
 31
0.0
 11
84.761481
 21
42.118808
 31
0.0
 11
85.999978
 21
42.453829
 31
0.0
 11
87.238476
 21
42.118809
 31
0.0
 11
88.118794
 21
41.238492
 31
0.0
 11
88.453815
 21
39.999994
 31
0.0
  0
LINE
  5
11a
100
AcDbEntity
  8
Layer_1
 62
7
100
AcDbLine
 10
88.453815
 20
20.000009
 30
0.0
 11
88.453815
 21
20.000009
 31
0.0
  0
SPLINE
  5
11b
100
AcDbEntity
  8
Layer_1
 62
7
100
AcDbSpline
 70
0
 71
3
 72
22
 73
18
 74
16
 40
0.000000
 40
0.000000
 40
0.000000
 40
0.000000
 40
0.642353
 40
1.279391
 40
1.921744
 40
2.564097
 40
3.201134
 40
3.843487
 40
5.126498
 40
6.371455
 40
7.654465
 40
8.937475
 40
10.182431
 40
11.465441
 40
12.748451
 40
13.993408
 40
15.276419
 40
15.276419
 40
15.276419
 40
15.276419
 10
88.453815
 20
20.000009
 30
0.0
 10
88.437457
 20
19.785278
 30
0.0
 10
88.404876
 20
19.357593
 30
0.0
 10
88.147413
 20
18.759062
 30
0.0
 10
87.755673
 20
18.244851
 30
0.0
 10
87.240853
 20
17.850504
 30
0.0
 10
86.642150
 20
17.602808
 30
0.0
 10
85.787306
 20
17.488610
 30
0.0
 10
84.714000
 20
17.776458
 30
0.0
 10
83.777080
 20
18.715220
 30
0.0
 10
83.428969
 20
19.999983
 30
0.0
 10
83.776952
 20
21.284897
 30
0.0
 10
84.714508
 20
22.223213
 30
0.0
 10
86.002231
 20
22.570894
 30
0.0
 10
87.276571
 20
22.223216
 30
0.0
 10
88.253485
 20
21.284891
 30
0.0
 10
88.386372
 20
20.432580
 30
0.0
 10
88.453815
 20
20.000009
 30
0.0
 11
88.453815
 21
20.000009
 31
0.0
 11
88.369746
 21
19.363181
 31
0.0
 11
88.125962
 21
18.774635
 31
0.0
 11
87.735103
 21
18.264883
 31
0.0
 11
87.225351
 21
17.874024
 31
0.0
 11
86.636806
 21
17.630241
 31
0.0
 11
85.999978
 21
17.546171
 31
0.0
 11
84.761480
 21
17.881193
 31
0.0
 11
83.881163
 21
18.761511
 31
0.0
 11
83.546143
 21
20.000009
 31
0.0
 11
83.881164
 21
21.238506
 31
0.0
 11
84.761481
 21
22.118823
 31
0.0
 11
85.999978
 21
22.453844
 31
0.0
 11
87.238476
 21
22.118824
 31
0.0
 11
88.118794
 21
21.238507
 31
0.0
 11
88.453815
 21
20.000009
 31
0.0
  0
LINE
  5
11c
100
AcDbEntity
  8
Layer_1
 62
7
100
AcDbLine
 10
27.453820
 20
82.500000
 30
0.0
 11
27.453820
 21
82.500000
 31
0.0
  0
SPLINE
  5
11d
100
AcDbEntity
  8
Layer_1
 62
7
100
AcDbSpline
 70
0
 71
3
 72
25
 73
21
 74
19
 40
0.000000
 40
0.000000
 40
0.000000
 40
0.000000
 40
1.283010
 40
2.527967
 40
3.810977
 40
5.093987
 40
6.338944
 40
7.621954
 40
8.264307
 40
8.901344
 40
9.543697
 40
10.186050
 40
10.823088
 40
11.465441
 40
12.107794
 40
12.744831
 40
13.387184
 40
14.029537
 40
14.666574
 40
15.308927
 40
15.308927
 40
15.308927
 40
15.308927
 10
27.453820
 20
82.500000
 30
0.0
 10
27.386376
 20
82.067427
 30
0.0
 10
27.253488
 20
81.215112
 30
0.0
 10
26.276583
 20
80.276814
 30
0.0
 10
25.002210
 20
79.929033
 30
0.0
 10
23.714611
 20
80.277093
 30
0.0
 10
22.776597
 20
81.214018
 30
0.0
 10
22.488565
 20
82.287349
 30
0.0
 10
22.602788
 20
83.142133
 30
0.0
 10
22.850478
 20
83.741019
 30
0.0
 10
23.244827
 20
84.255150
 30
0.0
 10
23.759036
 20
84.649462
 30
0.0
 10
24.357571
 20
84.897373
 30
0.0
 10
24.999973
 20
84.982186
 30
0.0
 10
25.642439
 20
84.897375
 30
0.0
 10
26.240782
 20
84.649457
 30
0.0
 10
26.755699
 20
84.255170
 30
0.0
 10
27.147413
 20
83.740943
 30
0.0
 10
27.404882
 20
83.142416
 30
0.0
 10
27.437462
 20
82.714731
 30
0.0
 10
27.453820
 20
82.500000
 30
0.0
 11
27.453820
 21
82.500000
 31
0.0
 11
27.118799
 21
81.261502
 31
0.0
 11
26.238481
 21
80.381185
 31
0.0
 11
24.999984
 21
80.046165
 31
0.0
 11
23.761486
 21
80.381185
 31
0.0
 11
22.881168
 21
81.261502
 31
0.0
 11
22.546147
 21
82.500000
 31
0.0
 11
22.630216
 21
83.136827
 31
0.0
 11
22.874000
 21
83.725373
 31
0.0
 11
23.264859
 21
84.235125
 31
0.0
 11
23.774610
 21
84.625984
 31
0.0
 11
24.363156
 21
84.869767
 31
0.0
 11
24.999984
 21
84.953837
 31
0.0
 11
25.636811
 21
84.869767
 31
0.0
 11
26.225357
 21
84.625984
 31
0.0
 11
26.735108
 21
84.235125
 31
0.0
 11
27.125967
 21
83.725373
 31
0.0
 11
27.369750
 21
83.136827
 31
0.0
 11
27.453820
 21
82.500000
 31
0.0
  0
LINE
  5
11e
100
AcDbEntity
  8
Layer_1
 62
7
100
AcDbLine
 10
27.453820
 20
62.499997
 30
0.0
 11
27.453820
 21
62.499997
 31
0.0
  0
SPLINE
  5
11f
100
AcDbEntity
  8
Layer_1
 62
7
100
AcDbSpline
 70
0
 71
3
 72
25
 73
21
 74
19
 40
0.000000
 40
0.000000
 40
0.000000
 40
0.000000
 40
1.283010
 40
2.527967
 40
3.810977
 40
5.093987
 40
6.338944
 40
7.621954
 40
8.264307
 40
8.901344
 40
9.543697
 40
10.186050
 40
10.823088
 40
11.465441
 40
12.107794
 40
12.744831
 40
13.387184
 40
14.029537
 40
14.666574
 40
15.308927
 40
15.308927
 40
15.308927
 40
15.308927
 10
27.453820
 20
62.499997
 30
0.0
 10
27.386376
 20
62.067425
 30
0.0
 10
27.253488
 20
61.215110
 30
0.0
 10
26.276583
 20
60.276811
 30
0.0
 10
25.002210
 20
59.929031
 30
0.0
 10
23.714611
 20
60.277091
 30
0.0
 10
22.776597
 20
61.214015
 30
0.0
 10
22.488565
 20
62.287347
 30
0.0
 10
22.602788
 20
63.142131
 30
0.0
 10
22.850478
 20
63.741017
 30
0.0
 10
23.244827
 20
64.255147
 30
0.0
 10
23.759036
 20
64.649460
 30
0.0
 10
24.357571
 20
64.897371
 30
0.0
 10
24.999973
 20
64.982184
 30
0.0
 10
25.642439
 20
64.897372
 30
0.0
 10
26.240782
 20
64.649455
 30
0.0
 10
26.755699
 20
64.255168
 30
0.0
 10
27.147413
 20
63.740940
 30
0.0
 10
27.404882
 20
63.142414
 30
0.0
 10
27.437462
 20
62.714728
 30
0.0
 10
27.453820
 20
62.499997
 30
0.0
 11
27.453820
 21
62.499997
 31
0.0
 11
27.118799
 21
61.261500
 31
0.0
 11
26.238481
 21
60.381183
 31
0.0
 11
24.999984
 21
60.046162
 31
0.0
 11
23.761486
 21
60.381183
 31
0.0
 11
22.881168
 21
61.261500
 31
0.0
 11
22.546147
 21
62.499997
 31
0.0
 11
22.630216
 21
63.136825
 31
0.0
 11
22.874000
 21
63.725371
 31
0.0
 11
23.264859
 21
64.235122
 31
0.0
 11
23.774610
 21
64.625981
 31
0.0
 11
24.363156
 21
64.869765
 31
0.0
 11
24.999984
 21
64.953835
 31
0.0
 11
25.636811
 21
64.869765
 31
0.0
 11
26.225357
 21
64.625981
 31
0.0
 11
26.735108
 21
64.235122
 31
0.0
 11
27.125967
 21
63.725371
 31
0.0
 11
27.369750
 21
63.136825
 31
0.0
 11
27.453820
 21
62.499997
 31
0.0
  0
LINE
  5
120
100
AcDbEntity
  8
Layer_1
 62
7
100
AcDbLine
 10
47.453821
 20
82.500000
 30
0.0
 11
47.453821
 21
82.500000
 31
0.0
  0
SPLINE
  5
121
100
AcDbEntity
  8
Layer_1
 62
7
100
AcDbSpline
 70
0
 71
3
 72
25
 73
21
 74
19
 40
0.000000
 40
0.000000
 40
0.000000
 40
0.000000
 40
1.283011
 40
2.527967
 40
3.810978
 40
5.093989
 40
6.338946
 40
7.621956
 40
8.264309
 40
8.901347
 40
9.543700
 40
10.186053
 40
10.823090
 40
11.465443
 40
12.107796
 40
12.744834
 40
13.387187
 40
14.029540
 40
14.666577
 40
15.308931
 40
15.308931
 40
15.308931
 40
15.308931
 10
47.453821
 20
82.500000
 30
0.0
 10
47.386377
 20
82.067427
 30
0.0
 10
47.253489
 20
81.215112
 30
0.0
 10
46.276583
 20
80.276813
 30
0.0
 10
45.002210
 20
79.929034
 30
0.0
 10
43.714611
 20
80.277093
 30
0.0
 10
42.776596
 20
81.214018
 30
0.0
 10
42.488564
 20
82.287349
 30
0.0
 10
42.602787
 20
83.142134
 30
0.0
 10
42.850477
 20
83.741019
 30
0.0
 10
43.244826
 20
84.255150
 30
0.0
 10
43.759036
 20
84.649463
 30
0.0
 10
44.357570
 20
84.897374
 30
0.0
 10
44.999973
 20
84.982186
 30
0.0
 10
45.642439
 20
84.897375
 30
0.0
 10
46.240782
 20
84.649457
 30
0.0
 10
46.755700
 20
84.255170
 30
0.0
 10
47.147414
 20
83.740943
 30
0.0
 10
47.404883
 20
83.142416
 30
0.0
 10
47.437463
 20
82.714731
 30
0.0
 10
47.453821
 20
82.500000
 30
0.0
 11
47.453821
 21
82.500000
 31
0.0
 11
47.118800
 21
81.261502
 31
0.0
 11
46.238482
 21
80.381185
 31
0.0
 11
44.999983
 21
80.046165
 31
0.0
 11
43.761485
 21
80.381185
 31
0.0
 11
42.881167
 21
81.261502
 31
0.0
 11
42.546146
 21
82.500000
 31
0.0
 11
42.630215
 21
83.136827
 31
0.0
 11
42.873999
 21
83.725373
 31
0.0
 11
43.264858
 21
84.235125
 31
0.0
 11
43.774610
 21
84.625984
 31
0.0
 11
44.363155
 21
84.869768
 31
0.0
 11
44.999983
 21
84.953837
 31
0.0
 11
45.636811
 21
84.869768
 31
0.0
 11
46.225357
 21
84.625984
 31
0.0
 11
46.735109
 21
84.235125
 31
0.0
 11
47.125968
 21
83.725373
 31
0.0
 11
47.369751
 21
83.136827
 31
0.0
 11
47.453821
 21
82.500000
 31
0.0
  0
LINE
  5
122
100
AcDbEntity
  8
Layer_1
 62
7
100
AcDbLine
 10
47.453821
 20
62.499997
 30
0.0
 11
47.453821
 21
62.499997
 31
0.0
  0
SPLINE
  5
123
100
AcDbEntity
  8
Layer_1
 62
7
100
AcDbSpline
 70
0
 71
3
 72
25
 73
21
 74
19
 40
0.000000
 40
0.000000
 40
0.000000
 40
0.000000
 40
1.283011
 40
2.527967
 40
3.810978
 40
5.093989
 40
6.338946
 40
7.621956
 40
8.264309
 40
8.901347
 40
9.543700
 40
10.186053
 40
10.823090
 40
11.465443
 40
12.107796
 40
12.744834
 40
13.387187
 40
14.029540
 40
14.666577
 40
15.308931
 40
15.308931
 40
15.308931
 40
15.308931
 10
47.453821
 20
62.499997
 30
0.0
 10
47.386377
 20
62.067425
 30
0.0
 10
47.253489
 20
61.215109
 30
0.0
 10
46.276583
 20
60.276811
 30
0.0
 10
45.002210
 20
59.929031
 30
0.0
 10
43.714611
 20
60.277091
 30
0.0
 10
42.776596
 20
61.214015
 30
0.0
 10
42.488564
 20
62.287347
 30
0.0
 10
42.602787
 20
63.142131
 30
0.0
 10
42.850477
 20
63.741017
 30
0.0
 10
43.244826
 20
64.255148
 30
0.0
 10
43.759036
 20
64.649460
 30
0.0
 10
44.357570
 20
64.897371
 30
0.0
 10
44.999973
 20
64.982183
 30
0.0
 10
45.642439
 20
64.897373
 30
0.0
 10
46.240782
 20
64.649455
 30
0.0
 10
46.755700
 20
64.255168
 30
0.0
 10
47.147414
 20
63.740941
 30
0.0
 10
47.404883
 20
63.142414
 30
0.0
 10
47.437463
 20
62.714728
 30
0.0
 10
47.453821
 20
62.499997
 30
0.0
 11
47.453821
 21
62.499997
 31
0.0
 11
47.118800
 21
61.261499
 31
0.0
 11
46.238482
 21
60.381182
 31
0.0
 11
44.999983
 21
60.046162
 31
0.0
 11
43.761485
 21
60.381182
 31
0.0
 11
42.881167
 21
61.261499
 31
0.0
 11
42.546146
 21
62.499997
 31
0.0
 11
42.630215
 21
63.136825
 31
0.0
 11
42.873999
 21
63.725371
 31
0.0
 11
43.264858
 21
64.235123
 31
0.0
 11
43.774610
 21
64.625982
 31
0.0
 11
44.363155
 21
64.869765
 31
0.0
 11
44.999983
 21
64.953835
 31
0.0
 11
45.636811
 21
64.869765
 31
0.0
 11
46.225357
 21
64.625982
 31
0.0
 11
46.735109
 21
64.235123
 31
0.0
 11
47.125968
 21
63.725371
 31
0.0
 11
47.369751
 21
63.136825
 31
0.0
 11
47.453821
 21
62.499997
 31
0.0
  0
LINE
  5
124
100
AcDbEntity
  8
Layer_1
 62
7
100
AcDbLine
 10
67.453818
 20
82.500000
 30
0.0
 11
67.453818
 21
82.500000
 31
0.0
  0
SPLINE
  5
125
100
AcDbEntity
  8
Layer_1
 62
7
100
AcDbSpline
 70
0
 71
3
 72
22
 73
18
 74
16
 40
0.000000
 40
0.000000
 40
0.000000
 40
0.000000
 40
1.283010
 40
2.527966
 40
3.810975
 40
5.093986
 40
6.338943
 40
7.621953
 40
8.264306
 40
8.901344
 40
9.543697
 40
10.186050
 40
10.823087
 40
11.465441
 40
12.748451
 40
13.993408
 40
15.276419
 40
15.276419
 40
15.276419
 40
15.276419
 10
67.453818
 20
82.500000
 30
0.0
 10
67.386374
 20
82.067427
 30
0.0
 10
67.253486
 20
81.215113
 30
0.0
 10
66.276582
 20
80.276814
 30
0.0
 10
65.002209
 20
79.929033
 30
0.0
 10
63.714610
 20
80.277093
 30
0.0
 10
62.776596
 20
81.214017
 30
0.0
 10
62.488564
 20
82.287350
 30
0.0
 10
62.602787
 20
83.142133
 30
0.0
 10
62.850475
 20
83.741023
 30
0.0
 10
63.244831
 20
84.255137
 30
0.0
 10
63.759014
 20
84.649510
 30
0.0
 10
64.357650
 20
84.897198
 30
0.0
 10
65.213702
 20
85.011399
 30
0.0
 10
66.277478
 20
84.723548
 30
0.0
 10
67.253258
 20
83.784795
 30
0.0
 10
67.386297
 20
82.932541
 30
0.0
 10
67.453818
 20
82.500000
 30
0.0
 11
67.453818
 21
82.500000
 31
0.0
 11
67.118797
 21
81.261503
 31
0.0
 11
66.238480
 21
80.381186
 31
0.0
 11
64.999983
 21
80.046165
 31
0.0
 11
63.761485
 21
80.381185
 31
0.0
 11
62.881167
 21
81.261502
 31
0.0
 11
62.546145
 21
82.500000
 31
0.0
 11
62.630215
 21
83.136827
 31
0.0
 11
62.873998
 21
83.725373
 31
0.0
 11
63.264857
 21
84.235125
 31
0.0
 11
63.774609
 21
84.625984
 31
0.0
 11
64.363155
 21
84.869768
 31
0.0
 11
64.999983
 21
84.953837
 31
0.0
 11
66.238481
 21
84.618816
 31
0.0
 11
67.118798
 21
83.738498
 31
0.0
 11
67.453818
 21
82.500000
 31
0.0
  0
LINE
  5
126
100
AcDbEntity
  8
Layer_1
 62
7
100
AcDbLine
 10
67.453818
 20
62.499997
 30
0.0
 11
67.453818
 21
62.499997
 31
0.0
  0
SPLINE
  5
127
100
AcDbEntity
  8
Layer_1
 62
7
100
AcDbSpline
 70
0
 71
3
 72
22
 73
18
 74
16
 40
0.000000
 40
0.000000
 40
0.000000
 40
0.000000
 40
1.283010
 40
2.527966
 40
3.810975
 40
5.093986
 40
6.338943
 40
7.621953
 40
8.264306
 40
8.901344
 40
9.543697
 40
10.186050
 40
10.823087
 40
11.465441
 40
12.748451
 40
13.993408
 40
15.276419
 40
15.276419
 40
15.276419
 40
15.276419
 10
67.453818
 20
62.499997
 30
0.0
 10
67.386374
 20
62.067425
 30
0.0
 10
67.253486
 20
61.215110
 30
0.0
 10
66.276582
 20
60.276812
 30
0.0
 10
65.002209
 20
59.929031
 30
0.0
 10
63.714610
 20
60.277091
 30
0.0
 10
62.776596
 20
61.214015
 30
0.0
 10
62.488564
 20
62.287347
 30
0.0
 10
62.602787
 20
63.142130
 30
0.0
 10
62.850475
 20
63.741020
 30
0.0
 10
63.244831
 20
64.255135
 30
0.0
 10
63.759014
 20
64.649508
 30
0.0
 10
64.357650
 20
64.897196
 30
0.0
 10
65.213702
 20
65.011397
 30
0.0
 10
66.277478
 20
64.723546
 30
0.0
 10
67.253258
 20
63.784793
 30
0.0
 10
67.386297
 20
62.932539
 30
0.0
 10
67.453818
 20
62.499997
 30
0.0
 11
67.453818
 21
62.499997
 31
0.0
 11
67.118797
 21
61.261500
 31
0.0
 11
66.238480
 21
60.381183
 31
0.0
 11
64.999983
 21
60.046162
 31
0.0
 11
63.761485
 21
60.381182
 31
0.0
 11
62.881167
 21
61.261499
 31
0.0
 11
62.546145
 21
62.499997
 31
0.0
 11
62.630215
 21
63.136825
 31
0.0
 11
62.873998
 21
63.725371
 31
0.0
 11
63.264857
 21
64.235123
 31
0.0
 11
63.774609
 21
64.625982
 31
0.0
 11
64.363155
 21
64.869765
 31
0.0
 11
64.999983
 21
64.953835
 31
0.0
 11
66.238481
 21
64.618813
 31
0.0
 11
67.118798
 21
63.738495
 31
0.0
 11
67.453818
 21
62.499997
 31
0.0
  0
LINE
  5
128
100
AcDbEntity
  8
Layer_1
 62
7
100
AcDbLine
 10
88.453815
 20
82.500000
 30
0.0
 11
88.453815
 21
82.500000
 31
0.0
  0
SPLINE
  5
129
100
AcDbEntity
  8
Layer_1
 62
7
100
AcDbSpline
 70
0
 71
3
 72
22
 73
18
 74
16
 40
0.000000
 40
0.000000
 40
0.000000
 40
0.000000
 40
1.283011
 40
2.527967
 40
3.810978
 40
5.093988
 40
6.338944
 40
7.621953
 40
8.904964
 40
10.149921
 40
11.432931
 40
12.075285
 40
12.712322
 40
13.354675
 40
13.997028
 40
14.634066
 40
15.276419
 40
15.276419
 40
15.276419
 40
15.276419
 10
88.453815
 20
82.500000
 30
0.0
 10
88.386372
 20
82.067429
 30
0.0
 10
88.253485
 20
81.215117
 30
0.0
 10
87.276571
 20
80.276792
 30
0.0
 10
86.002231
 20
79.929114
 30
0.0
 10
84.714508
 20
80.276795
 30
0.0
 10
83.776952
 20
81.215112
 30
0.0
 10
83.428969
 20
82.500025
 30
0.0
 10
83.777080
 20
83.784789
 30
0.0
 10
84.714000
 20
84.723550
 30
0.0
 10
85.787306
 20
85.011398
 30
0.0
 10
86.642150
 20
84.897200
 30
0.0
 10
87.240853
 20
84.649505
 30
0.0
 10
87.755673
 20
84.255158
 30
0.0
 10
88.147413
 20
83.740946
 30
0.0
 10
88.404876
 20
83.142415
 30
0.0
 10
88.437457
 20
82.714730
 30
0.0
 10
88.453815
 20
82.500000
 30
0.0
 11
88.453815
 21
82.500000
 31
0.0
 11
88.118794
 21
81.261502
 31
0.0
 11
87.238476
 21
80.381185
 31
0.0
 11
85.999978
 21
80.046165
 31
0.0
 11
84.761481
 21
80.381186
 31
0.0
 11
83.881164
 21
81.261503
 31
0.0
 11
83.546143
 21
82.500000
 31
0.0
 11
83.881163
 21
83.738498
 31
0.0
 11
84.761480
 21
84.618816
 31
0.0
 11
85.999978
 21
84.953837
 31
0.0
 11
86.636806
 21
84.869768
 31
0.0
 11
87.225351
 21
84.625984
 31
0.0
 11
87.735103
 21
84.235125
 31
0.0
 11
88.125962
 21
83.725373
 31
0.0
 11
88.369746
 21
83.136827
 31
0.0
 11
88.453815
 21
82.500000
 31
0.0
  0
LINE
  5
12a
100
AcDbEntity
  8
Layer_1
 62
7
100
AcDbLine
 10
88.453815
 20
62.499997
 30
0.0
 11
88.453815
 21
62.499997
 31
0.0
  0
SPLINE
  5
12b
100
AcDbEntity
  8
Layer_1
 62
7
100
AcDbSpline
 70
0
 71
3
 72
22
 73
18
 74
16
 40
0.000000
 40
0.000000
 40
0.000000
 40
0.000000
 40
1.283011
 40
2.527967
 40
3.810978
 40
5.093988
 40
6.338944
 40
7.621953
 40
8.904964
 40
10.149921
 40
11.432931
 40
12.075285
 40
12.712322
 40
13.354675
 40
13.997028
 40
14.634066
 40
15.276419
 40
15.276419
 40
15.276419
 40
15.276419
 10
88.453815
 20
62.499997
 30
0.0
 10
88.386372
 20
62.067426
 30
0.0
 10
88.253485
 20
61.215115
 30
0.0
 10
87.276571
 20
60.276790
 30
0.0
 10
86.002231
 20
59.929112
 30
0.0
 10
84.714508
 20
60.276793
 30
0.0
 10
83.776952
 20
61.215109
 30
0.0
 10
83.428969
 20
62.500023
 30
0.0
 10
83.777080
 20
63.784786
 30
0.0
 10
84.714000
 20
64.723548
 30
0.0
 10
85.787306
 20
65.011396
 30
0.0
 10
86.642150
 20
64.897198
 30
0.0
 10
87.240853
 20
64.649502
 30
0.0
 10
87.755673
 20
64.255155
 30
0.0
 10
88.147413
 20
63.740944
 30
0.0
 10
88.404876
 20
63.142413
 30
0.0
 10
88.437457
 20
62.714728
 30
0.0
 10
88.453815
 20
62.499997
 30
0.0
 11
88.453815
 21
62.499997
 31
0.0
 11
88.118794
 21
61.261499
 31
0.0
 11
87.238476
 21
60.381182
 31
0.0
 11
85.999978
 21
60.046162
 31
0.0
 11
84.761481
 21
60.381183
 31
0.0
 11
83.881164
 21
61.261500
 31
0.0
 11
83.546143
 21
62.499997
 31
0.0
 11
83.881163
 21
63.738495
 31
0.0
 11
84.761480
 21
64.618813
 31
0.0
 11
85.999978
 21
64.953835
 31
0.0
 11
86.636806
 21
64.869765
 31
0.0
 11
87.225351
 21
64.625982
 31
0.0
 11
87.735103
 21
64.235123
 31
0.0
 11
88.125962
 21
63.725371
 31
0.0
 11
88.369746
 21
63.136825
 31
0.0
 11
88.453815
 21
62.499997
 31
0.0
  0
LINE
  5
12c
100
AcDbEntity
  8
Layer_1
 62
7
100
AcDbLine
 10
118.953822
 20
38.499997
 30
0.0
 11
118.953822
 21
38.499997
 31
0.0
  0
SPLINE
  5
12d
100
AcDbEntity
  8
Layer_1
 62
7
100
AcDbSpline
 70
0
 71
3
 72
22
 73
18
 74
16
 40
0.000000
 40
0.000000
 40
0.000000
 40
0.000000
 40
1.283010
 40
2.527966
 40
3.810975
 40
5.093986
 40
6.338943
 40
7.621953
 40
8.264306
 40
8.901344
 40
9.543697
 40
10.186050
 40
10.823087
 40
11.465441
 40
12.748451
 40
13.993408
 40
15.276419
 40
15.276419
 40
15.276419
 40
15.276419
 10
118.953822
 20
38.499997
 30
0.0
 10
118.886378
 20
38.067425
 30
0.0
 10
118.753490
 20
37.215110
 30
0.0
 10
117.776586
 20
36.276812
 30
0.0
 10
116.502213
 20
35.929031
 30
0.0
 10
115.214614
 20
36.277091
 30
0.0
 10
114.276600
 20
37.214015
 30
0.0
 10
113.988568
 20
38.287347
 30
0.0
 10
114.102791
 20
39.142130
 30
0.0
 10
114.350479
 20
39.741020
 30
0.0
 10
114.744835
 20
40.255135
 30
0.0
 10
115.259018
 20
40.649508
 30
0.0
 10
115.857654
 20
40.897196
 30
0.0
 10
116.713706
 20
41.011397
 30
0.0
 10
117.777482
 20
40.723546
 30
0.0
 10
118.753263
 20
39.784793
 30
0.0
 10
118.886301
 20
38.932539
 30
0.0
 10
118.953822
 20
38.499997
 30
0.0
 11
118.953822
 21
38.499997
 31
0.0
 11
118.618801
 21
37.261500
 31
0.0
 11
117.738484
 21
36.381183
 31
0.0
 11
116.499987
 21
36.046162
 31
0.0
 11
115.261489
 21
36.381182
 31
0.0
 11
114.381171
 21
37.261499
 31
0.0
 11
114.046150
 21
38.499997
 31
0.0
 11
114.130219
 21
39.136825
 31
0.0
 11
114.374003
 21
39.725371
 31
0.0
 11
114.764862
 21
40.235123
 31
0.0
 11
115.274613
 21
40.625982
 31
0.0
 11
115.863159
 21
40.869765
 31
0.0
 11
116.499987
 21
40.953835
 31
0.0
 11
117.738485
 21
40.618813
 31
0.0
 11
118.618802
 21
39.738495
 31
0.0
 11
118.953822
 21
38.499997
 31
0.0
  0
LINE
  5
12e
100
AcDbEntity
  8
Layer_1
 62
7
100
AcDbLine
 10
118.953822
 20
21.500003
 30
0.0
 11
118.953822
 21
21.500003
 31
0.0
  0
SPLINE
  5
12f
100
AcDbEntity
  8
Layer_1
 62
7
100
AcDbSpline
 70
0
 71
3
 72
25
 73
21
 74
19
 40
0.000000
 40
0.000000
 40
0.000000
 40
0.000000
 40
1.283011
 40
2.527967
 40
3.810978
 40
4.453331
 40
5.090369
 40
5.732722
 40
6.375075
 40
7.012112
 40
7.654465
 40
8.296818
 40
8.933856
 40
9.576209
 40
10.218562
 40
10.855599
 40
11.497952
 40
12.780963
 40
14.025920
 40
15.308931
 40
15.308931
 40
15.308931
 40
15.308931
 10
118.953822
 20
21.500003
 30
0.0
 10
118.886301
 20
21.067461
 30
0.0
 10
118.753263
 20
20.215207
 30
0.0
 10
117.777482
 20
19.276454
 30
0.0
 10
116.713707
 20
18.988604
 30
0.0
 10
115.857654
 20
19.102803
 30
0.0
 10
115.259021
 20
19.350498
 30
0.0
 10
114.744822
 20
19.744845
 30
0.0
 10
114.350528
 20
20.259056
 30
0.0
 10
114.102612
 20
20.857587
 30
0.0
 10
114.017801
 20
21.500003
 30
0.0
 10
114.102612
 20
22.142419
 30
0.0
 10
114.350528
 20
22.740950
 30
0.0
 10
114.744822
 20
23.255161
 30
0.0
 10
115.259021
 20
23.649508
 30
0.0
 10
115.857654
 20
23.897203
 30
0.0
 10
116.713707
 20
24.011402
 30
0.0
 10
117.777482
 20
23.723552
 30
0.0
 10
118.753263
 20
22.784799
 30
0.0
 10
118.886301
 20
21.932545
 30
0.0
 10
118.953822
 20
21.500003
 30
0.0
 11
118.953822
 21
21.500003
 31
0.0
 11
118.618802
 21
20.261505
 31
0.0
 11
117.738485
 21
19.381187
 31
0.0
 11
116.499987
 21
19.046165
 31
0.0
 11
115.863159
 21
19.130235
 31
0.0
 11
115.274613
 21
19.374019
 31
0.0
 11
114.764862
 21
19.764878
 31
0.0
 11
114.374003
 21
20.274629
 31
0.0
 11
114.130219
 21
20.863175
 31
0.0
 11
114.046150
 21
21.500003
 31
0.0
 11
114.130219
 21
22.136831
 31
0.0
 11
114.374003
 21
22.725377
 31
0.0
 11
114.764862
 21
23.235128
 31
0.0
 11
115.274613
 21
23.625987
 31
0.0
 11
115.863159
 21
23.869771
 31
0.0
 11
116.499987
 21
23.953841
 31
0.0
 11
117.738485
 21
23.618819
 31
0.0
 11
118.618802
 21
22.738501
 31
0.0
 11
118.953822
 21
21.500003
 31
0.0
  0
LINE
  5
130
100
AcDbEntity
  8
Layer_1
 62
7
100
AcDbLine
 10
138.953816
 20
38.499997
 30
0.0
 11
138.953816
 21
38.499997
 31
0.0
  0
SPLINE
  5
131
100
AcDbEntity
  8
Layer_1
 62
7
100
AcDbSpline
 70
0
 71
3
 72
22
 73
18
 74
16
 40
0.000000
 40
0.000000
 40
0.000000
 40
0.000000
 40
1.283010
 40
2.527966
 40
3.810975
 40
5.093986
 40
6.338943
 40
7.621953
 40
8.264306
 40
8.901344
 40
9.543697
 40
10.186050
 40
10.823087
 40
11.465441
 40
12.748451
 40
13.993408
 40
15.276419
 40
15.276419
 40
15.276419
 40
15.276419
 10
138.953816
 20
38.499997
 30
0.0
 10
138.886372
 20
38.067425
 30
0.0
 10
138.753484
 20
37.215110
 30
0.0
 10
137.776580
 20
36.276812
 30
0.0
 10
136.502207
 20
35.929031
 30
0.0
 10
135.214608
 20
36.277091
 30
0.0
 10
134.276594
 20
37.214015
 30
0.0
 10
133.988562
 20
38.287347
 30
0.0
 10
134.102785
 20
39.142130
 30
0.0
 10
134.350473
 20
39.741020
 30
0.0
 10
134.744829
 20
40.255135
 30
0.0
 10
135.259012
 20
40.649508
 30
0.0
 10
135.857648
 20
40.897196
 30
0.0
 10
136.713700
 20
41.011397
 30
0.0
 10
137.777476
 20
40.723546
 30
0.0
 10
138.753256
 20
39.784793
 30
0.0
 10
138.886295
 20
38.932539
 30
0.0
 10
138.953816
 20
38.499997
 30
0.0
 11
138.953816
 21
38.499997
 31
0.0
 11
138.618795
 21
37.261500
 31
0.0
 11
137.738478
 21
36.381183
 31
0.0
 11
136.499981
 21
36.046162
 31
0.0
 11
135.261483
 21
36.381182
 31
0.0
 11
134.381165
 21
37.261499
 31
0.0
 11
134.046143
 21
38.499997
 31
0.0
 11
134.130213
 21
39.136825
 31
0.0
 11
134.373997
 21
39.725371
 31
0.0
 11
134.764856
 21
40.235123
 31
0.0
 11
135.274607
 21
40.625982
 31
0.0
 11
135.863153
 21
40.869765
 31
0.0
 11
136.499981
 21
40.953835
 31
0.0
 11
137.738479
 21
40.618813
 31
0.0
 11
138.618796
 21
39.738495
 31
0.0
 11
138.953816
 21
38.499997
 31
0.0
  0
LINE
  5
132
100
AcDbEntity
  8
Layer_1
 62
7
100
AcDbLine
 10
138.953816
 20
21.500003
 30
0.0
 11
138.953816
 21
21.500003
 31
0.0
  0
SPLINE
  5
133
100
AcDbEntity
  8
Layer_1
 62
7
100
AcDbSpline
 70
0
 71
3
 72
25
 73
21
 74
19
 40
0.000000
 40
0.000000
 40
0.000000
 40
0.000000
 40
1.283011
 40
2.527967
 40
3.810978
 40
4.453331
 40
5.090369
 40
5.732722
 40
6.375075
 40
7.012112
 40
7.654465
 40
8.296818
 40
8.933856
 40
9.576209
 40
10.218562
 40
10.855599
 40
11.497952
 40
12.780963
 40
14.025920
 40
15.308931
 40
15.308931
 40
15.308931
 40
15.308931
 10
138.953816
 20
21.500003
 30
0.0
 10
138.886295
 20
21.067461
 30
0.0
 10
138.753256
 20
20.215207
 30
0.0
 10
137.777476
 20
19.276454
 30
0.0
 10
136.713701
 20
18.988604
 30
0.0
 10
135.857647
 20
19.102803
 30
0.0
 10
135.259015
 20
19.350498
 30
0.0
 10
134.744816
 20
19.744845
 30
0.0
 10
134.350522
 20
20.259056
 30
0.0
 10
134.102606
 20
20.857587
 30
0.0
 10
134.017795
 20
21.500003
 30
0.0
 10
134.102606
 20
22.142419
 30
0.0
 10
134.350522
 20
22.740950
 30
0.0
 10
134.744816
 20
23.255161
 30
0.0
 10
135.259015
 20
23.649508
 30
0.0
 10
135.857647
 20
23.897203
 30
0.0
 10
136.713701
 20
24.011402
 30
0.0
 10
137.777476
 20
23.723552
 30
0.0
 10
138.753256
 20
22.784799
 30
0.0
 10
138.886295
 20
21.932545
 30
0.0
 10
138.953816
 20
21.500003
 30
0.0
 11
138.953816
 21
21.500003
 31
0.0
 11
138.618796
 21
20.261505
 31
0.0
 11
137.738479
 21
19.381187
 31
0.0
 11
136.499981
 21
19.046165
 31
0.0
 11
135.863153
 21
19.130235
 31
0.0
 11
135.274607
 21
19.374019
 31
0.0
 11
134.764856
 21
19.764878
 31
0.0
 11
134.373997
 21
20.274629
 31
0.0
 11
134.130213
 21
20.863175
 31
0.0
 11
134.046143
 21
21.500003
 31
0.0
 11
134.130213
 21
22.136831
 31
0.0
 11
134.373997
 21
22.725377
 31
0.0
 11
134.764856
 21
23.235128
 31
0.0
 11
135.274607
 21
23.625987
 31
0.0
 11
135.863153
 21
23.869771
 31
0.0
 11
136.499981
 21
23.953841
 31
0.0
 11
137.738479
 21
23.618819
 31
0.0
 11
138.618796
 21
22.738501
 31
0.0
 11
138.953816
 21
21.500003
 31
0.0
  0
LINE
  5
134
100
AcDbEntity
  8
Layer_1
 62
7
100
AcDbLine
 10
158.953827
 20
38.499997
 30
0.0
 11
158.953827
 21
38.499997
 31
0.0
  0
SPLINE
  5
135
100
AcDbEntity
  8
Layer_1
 62
7
100
AcDbSpline
 70
0
 71
3
 72
22
 73
18
 74
16
 40
0.000000
 40
0.000000
 40
0.000000
 40
0.000000
 40
1.283010
 40
2.527966
 40
3.810975
 40
5.093986
 40
6.338943
 40
7.621953
 40
8.264306
 40
8.901344
 40
9.543697
 40
10.186050
 40
10.823087
 40
11.465441
 40
12.748451
 40
13.993408
 40
15.276419
 40
15.276419
 40
15.276419
 40
15.276419
 10
158.953827
 20
38.499997
 30
0.0
 10
158.886383
 20
38.067425
 30
0.0
 10
158.753495
 20
37.215110
 30
0.0
 10
157.776591
 20
36.276812
 30
0.0
 10
156.502218
 20
35.929031
 30
0.0
 10
155.214619
 20
36.277091
 30
0.0
 10
154.276604
 20
37.214015
 30
0.0
 10
153.988573
 20
38.287347
 30
0.0
 10
154.102796
 20
39.142130
 30
0.0
 10
154.350484
 20
39.741020
 30
0.0
 10
154.744840
 20
40.255135
 30
0.0
 10
155.259022
 20
40.649508
 30
0.0
 10
155.857659
 20
40.897196
 30
0.0
 10
156.713711
 20
41.011397
 30
0.0
 10
157.777487
 20
40.723546
 30
0.0
 10
158.753267
 20
39.784793
 30
0.0
 10
158.886306
 20
38.932539
 30
0.0
 10
158.953827
 20
38.499997
 30
0.0
 11
158.953827
 21
38.499997
 31
0.0
 11
158.618806
 21
37.261500
 31
0.0
 11
157.738489
 21
36.381183
 31
0.0
 11
156.499992
 21
36.046162
 31
0.0
 11
155.261494
 21
36.381182
 31
0.0
 11
154.381176
 21
37.261499
 31
0.0
 11
154.046154
 21
38.499997
 31
0.0
 11
154.130224
 21
39.136825
 31
0.0
 11
154.374007
 21
39.725371
 31
0.0
 11
154.764866
 21
40.235123
 31
0.0
 11
155.274618
 21
40.625982
 31
0.0
 11
155.863164
 21
40.869765
 31
0.0
 11
156.499992
 21
40.953835
 31
0.0
 11
157.738490
 21
40.618813
 31
0.0
 11
158.618807
 21
39.738495
 31
0.0
 11
158.953827
 21
38.499997
 31
0.0
  0
LINE
  5
136
100
AcDbEntity
  8
Layer_1
 62
7
100
AcDbLine
 10
178.953812
 20
38.499997
 30
0.0
 11
178.953812
 21
38.499997
 31
0.0
  0
SPLINE
  5
137
100
AcDbEntity
  8
Layer_1
 62
7
100
AcDbSpline
 70
0
 71
3
 72
22
 73
18
 74
16
 40
0.000000
 40
0.000000
 40
0.000000
 40
0.000000
 40
1.283010
 40
2.527966
 40
3.810975
 40
5.093986
 40
6.338943
 40
7.621953
 40
8.264306
 40
8.901344
 40
9.543697
 40
10.186050
 40
10.823087
 40
11.465441
 40
12.748451
 40
13.993408
 40
15.276419
 40
15.276419
 40
15.276419
 40
15.276419
 10
178.953812
 20
38.499997
 30
0.0
 10
178.886368
 20
38.067425
 30
0.0
 10
178.753480
 20
37.215110
 30
0.0
 10
177.776576
 20
36.276812
 30
0.0
 10
176.502203
 20
35.929031
 30
0.0
 10
175.214604
 20
36.277091
 30
0.0
 10
174.276590
 20
37.214015
 30
0.0
 10
173.988558
 20
38.287347
 30
0.0
 10
174.102781
 20
39.142130
 30
0.0
 10
174.350470
 20
39.741020
 30
0.0
 10
174.744825
 20
40.255135
 30
0.0
 10
175.259008
 20
40.649508
 30
0.0
 10
175.857644
 20
40.897196
 30
0.0
 10
176.713696
 20
41.011397
 30
0.0
 10
177.777472
 20
40.723546
 30
0.0
 10
178.753253
 20
39.784793
 30
0.0
 10
178.886291
 20
38.932539
 30
0.0
 10
178.953812
 20
38.499997
 30
0.0
 11
178.953812
 21
38.499997
 31
0.0
 11
178.618791
 21
37.261500
 31
0.0
 11
177.738474
 21
36.381183
 31
0.0
 11
176.499977
 21
36.046162
 31
0.0
 11
175.261479
 21
36.381182
 31
0.0
 11
174.381161
 21
37.261499
 31
0.0
 11
174.046140
 21
38.499997
 31
0.0
 11
174.130209
 21
39.136825
 31
0.0
 11
174.373993
 21
39.725371
 31
0.0
 11
174.764852
 21
40.235123
 31
0.0
 11
175.274603
 21
40.625982
 31
0.0
 11
175.863149
 21
40.869765
 31
0.0
 11
176.499977
 21
40.953835
 31
0.0
 11
177.738475
 21
40.618813
 31
0.0
 11
178.618792
 21
39.738495
 31
0.0
 11
178.953812
 21
38.499997
 31
0.0
  0
LINE
  5
138
100
AcDbEntity
  8
Layer_1
 62
7
100
AcDbLine
 10
198.953814
 20
38.499997
 30
0.0
 11
198.953814
 21
38.499997
 31
0.0
  0
SPLINE
  5
139
100
AcDbEntity
  8
Layer_1
 62
7
100
AcDbSpline
 70
0
 71
3
 72
22
 73
18
 74
16
 40
0.000000
 40
0.000000
 40
0.000000
 40
0.000000
 40
1.283010
 40
2.527966
 40
3.810975
 40
5.093986
 40
6.338943
 40
7.621953
 40
8.264306
 40
8.901344
 40
9.543697
 40
10.186050
 40
10.823087
 40
11.465441
 40
12.748451
 40
13.993408
 40
15.276419
 40
15.276419
 40
15.276419
 40
15.276419
 10
198.953814
 20
38.499997
 30
0.0
 10
198.886370
 20
38.067425
 30
0.0
 10
198.753483
 20
37.215110
 30
0.0
 10
197.776578
 20
36.276812
 30
0.0
 10
196.502205
 20
35.929031
 30
0.0
 10
195.214607
 20
36.277091
 30
0.0
 10
194.276592
 20
37.214015
 30
0.0
 10
193.988560
 20
38.287347
 30
0.0
 10
194.102783
 20
39.142130
 30
0.0
 10
194.350472
 20
39.741020
 30
0.0
 10
194.744828
 20
40.255135
 30
0.0
 10
195.259010
 20
40.649508
 30
0.0
 10
195.857647
 20
40.897196
 30
0.0
 10
196.713699
 20
41.011397
 30
0.0
 10
197.777474
 20
40.723546
 30
0.0
 10
198.753255
 20
39.784793
 30
0.0
 10
198.886294
 20
38.932539
 30
0.0
 10
198.953814
 20
38.499997
 30
0.0
 11
198.953814
 21
38.499997
 31
0.0
 11
198.618793
 21
37.261500
 31
0.0
 11
197.738477
 21
36.381183
 31
0.0
 11
196.499980
 21
36.046162
 31
0.0
 11
195.261481
 21
36.381182
 31
0.0
 11
194.381163
 21
37.261499
 31
0.0
 11
194.046142
 21
38.499997
 31
0.0
 11
194.130212
 21
39.136825
 31
0.0
 11
194.373995
 21
39.725371
 31
0.0
 11
194.764854
 21
40.235123
 31
0.0
 11
195.274606
 21
40.625982
 31
0.0
 11
195.863152
 21
40.869765
 31
0.0
 11
196.499980
 21
40.953835
 31
0.0
 11
197.738477
 21
40.618813
 31
0.0
 11
198.618794
 21
39.738495
 31
0.0
 11
198.953814
 21
38.499997
 31
0.0
  0
LINE
  5
13a
100
AcDbEntity
  8
Layer_1
 62
7
100
AcDbLine
 10
218.953817
 20
38.499997
 30
0.0
 11
218.953817
 21
38.499997
 31
0.0
  0
SPLINE
  5
13b
100
AcDbEntity
  8
Layer_1
 62
7
100
AcDbSpline
 70
0
 71
3
 72
22
 73
18
 74
16
 40
0.000000
 40
0.000000
 40
0.000000
 40
0.000000
 40
1.283010
 40
2.527966
 40
3.810975
 40
5.093986
 40
6.338943
 40
7.621953
 40
8.264306
 40
8.901344
 40
9.543697
 40
10.186050
 40
10.823087
 40
11.465441
 40
12.748451
 40
13.993408
 40
15.276419
 40
15.276419
 40
15.276419
 40
15.276419
 10
218.953817
 20
38.499997
 30
0.0
 10
218.886373
 20
38.067425
 30
0.0
 10
218.753485
 20
37.215110
 30
0.0
 10
217.776581
 20
36.276812
 30
0.0
 10
216.502208
 20
35.929031
 30
0.0
 10
215.214609
 20
36.277091
 30
0.0
 10
214.276595
 20
37.214015
 30
0.0
 10
213.988563
 20
38.287347
 30
0.0
 10
214.102786
 20
39.142130
 30
0.0
 10
214.350474
 20
39.741020
 30
0.0
 10
214.744830
 20
40.255135
 30
0.0
 10
215.259013
 20
40.649508
 30
0.0
 10
215.857649
 20
40.897196
 30
0.0
 10
216.713701
 20
41.011397
 30
0.0
 10
217.777477
 20
40.723546
 30
0.0
 10
218.753257
 20
39.784793
 30
0.0
 10
218.886296
 20
38.932539
 30
0.0
 10
218.953817
 20
38.499997
 30
0.0
 11
218.953817
 21
38.499997
 31
0.0
 11
218.618796
 21
37.261500
 31
0.0
 11
217.738479
 21
36.381183
 31
0.0
 11
216.499982
 21
36.046162
 31
0.0
 11
215.261484
 21
36.381182
 31
0.0
 11
214.381166
 21
37.261499
 31
0.0
 11
214.046144
 21
38.499997
 31
0.0
 11
214.130214
 21
39.136825
 31
0.0
 11
214.373997
 21
39.725371
 31
0.0
 11
214.764856
 21
40.235123
 31
0.0
 11
215.274608
 21
40.625982
 31
0.0
 11
215.863154
 21
40.869765
 31
0.0
 11
216.499982
 21
40.953835
 31
0.0
 11
217.738480
 21
40.618813
 31
0.0
 11
218.618797
 21
39.738495
 31
0.0
 11
218.953817
 21
38.499997
 31
0.0
  0
LINE
  5
13c
100
AcDbEntity
  8
Layer_1
 62
7
100
AcDbLine
 10
158.953827
 20
21.500003
 30
0.0
 11
158.953827
 21
21.500003
 31
0.0
  0
SPLINE
  5
13d
100
AcDbEntity
  8
Layer_1
 62
7
100
AcDbSpline
 70
0
 71
3
 72
25
 73
21
 74
19
 40
0.000000
 40
0.000000
 40
0.000000
 40
0.000000
 40
1.283011
 40
2.527967
 40
3.810978
 40
4.453331
 40
5.090369
 40
5.732722
 40
6.375075
 40
7.012112
 40
7.654465
 40
8.296818
 40
8.933856
 40
9.576209
 40
10.218562
 40
10.855599
 40
11.497952
 40
12.780963
 40
14.025920
 40
15.308931
 40
15.308931
 40
15.308931
 40
15.308931
 10
158.953827
 20
21.500003
 30
0.0
 10
158.886306
 20
21.067461
 30
0.0
 10
158.753267
 20
20.215207
 30
0.0
 10
157.777486
 20
19.276454
 30
0.0
 10
156.713712
 20
18.988604
 30
0.0
 10
155.857658
 20
19.102803
 30
0.0
 10
155.259026
 20
19.350498
 30
0.0
 10
154.744827
 20
19.744845
 30
0.0
 10
154.350532
 20
20.259056
 30
0.0
 10
154.102617
 20
20.857587
 30
0.0
 10
154.017806
 20
21.500003
 30
0.0
 10
154.102617
 20
22.142419
 30
0.0
 10
154.350532
 20
22.740950
 30
0.0
 10
154.744827
 20
23.255161
 30
0.0
 10
155.259026
 20
23.649508
 30
0.0
 10
155.857658
 20
23.897203
 30
0.0
 10
156.713712
 20
24.011402
 30
0.0
 10
157.777486
 20
23.723552
 30
0.0
 10
158.753267
 20
22.784799
 30
0.0
 10
158.886306
 20
21.932545
 30
0.0
 10
158.953827
 20
21.500003
 30
0.0
 11
158.953827
 21
21.500003
 31
0.0
 11
158.618807
 21
20.261505
 31
0.0
 11
157.738490
 21
19.381187
 31
0.0
 11
156.499992
 21
19.046165
 31
0.0
 11
155.863164
 21
19.130235
 31
0.0
 11
155.274618
 21
19.374019
 31
0.0
 11
154.764866
 21
19.764878
 31
0.0
 11
154.374007
 21
20.274629
 31
0.0
 11
154.130224
 21
20.863175
 31
0.0
 11
154.046154
 21
21.500003
 31
0.0
 11
154.130224
 21
22.136831
 31
0.0
 11
154.374007
 21
22.725377
 31
0.0
 11
154.764866
 21
23.235128
 31
0.0
 11
155.274618
 21
23.625987
 31
0.0
 11
155.863164
 21
23.869771
 31
0.0
 11
156.499992
 21
23.953841
 31
0.0
 11
157.738490
 21
23.618819
 31
0.0
 11
158.618807
 21
22.738501
 31
0.0
 11
158.953827
 21
21.500003
 31
0.0
  0
LINE
  5
13e
100
AcDbEntity
  8
Layer_1
 62
7
100
AcDbLine
 10
178.953812
 20
21.500003
 30
0.0
 11
178.953812
 21
21.500003
 31
0.0
  0
SPLINE
  5
13f
100
AcDbEntity
  8
Layer_1
 62
7
100
AcDbSpline
 70
0
 71
3
 72
25
 73
21
 74
19
 40
0.000000
 40
0.000000
 40
0.000000
 40
0.000000
 40
1.283011
 40
2.527967
 40
3.810978
 40
4.453331
 40
5.090369
 40
5.732722
 40
6.375075
 40
7.012112
 40
7.654465
 40
8.296818
 40
8.933856
 40
9.576209
 40
10.218562
 40
10.855599
 40
11.497952
 40
12.780963
 40
14.025920
 40
15.308931
 40
15.308931
 40
15.308931
 40
15.308931
 10
178.953812
 20
21.500003
 30
0.0
 10
178.886291
 20
21.067461
 30
0.0
 10
178.753253
 20
20.215207
 30
0.0
 10
177.777472
 20
19.276454
 30
0.0
 10
176.713697
 20
18.988604
 30
0.0
 10
175.857644
 20
19.102803
 30
0.0
 10
175.259011
 20
19.350498
 30
0.0
 10
174.744812
 20
19.744845
 30
0.0
 10
174.350518
 20
20.259056
 30
0.0
 10
174.102602
 20
20.857587
 30
0.0
 10
174.017791
 20
21.500003
 30
0.0
 10
174.102602
 20
22.142419
 30
0.0
 10
174.350518
 20
22.740950
 30
0.0
 10
174.744812
 20
23.255161
 30
0.0
 10
175.259011
 20
23.649508
 30
0.0
 10
175.857644
 20
23.897203
 30
0.0
 10
176.713697
 20
24.011402
 30
0.0
 10
177.777472
 20
23.723552
 30
0.0
 10
178.753253
 20
22.784799
 30
0.0
 10
178.886291
 20
21.932545
 30
0.0
 10
178.953812
 20
21.500003
 30
0.0
 11
178.953812
 21
21.500003
 31
0.0
 11
178.618792
 21
20.261505
 31
0.0
 11
177.738475
 21
19.381187
 31
0.0
 11
176.499977
 21
19.046165
 31
0.0
 11
175.863149
 21
19.130235
 31
0.0
 11
175.274603
 21
19.374019
 31
0.0
 11
174.764852
 21
19.764878
 31
0.0
 11
174.373993
 21
20.274629
 31
0.0
 11
174.130209
 21
20.863175
 31
0.0
 11
174.046140
 21
21.500003
 31
0.0
 11
174.130209
 21
22.136831
 31
0.0
 11
174.373993
 21
22.725377
 31
0.0
 11
174.764852
 21
23.235128
 31
0.0
 11
175.274603
 21
23.625987
 31
0.0
 11
175.863149
 21
23.869771
 31
0.0
 11
176.499977
 21
23.953841
 31
0.0
 11
177.738475
 21
23.618819
 31
0.0
 11
178.618792
 21
22.738501
 31
0.0
 11
178.953812
 21
21.500003
 31
0.0
  0
LINE
  5
140
100
AcDbEntity
  8
Layer_1
 62
7
100
AcDbLine
 10
198.953814
 20
21.500003
 30
0.0
 11
198.953814
 21
21.500003
 31
0.0
  0
SPLINE
  5
141
100
AcDbEntity
  8
Layer_1
 62
7
100
AcDbSpline
 70
0
 71
3
 72
25
 73
21
 74
19
 40
0.000000
 40
0.000000
 40
0.000000
 40
0.000000
 40
1.283011
 40
2.527967
 40
3.810978
 40
4.453331
 40
5.090369
 40
5.732722
 40
6.375075
 40
7.012112
 40
7.654465
 40
8.296818
 40
8.933856
 40
9.576209
 40
10.218562
 40
10.855599
 40
11.497952
 40
12.780963
 40
14.025920
 40
15.308931
 40
15.308931
 40
15.308931
 40
15.308931
 10
198.953814
 20
21.500003
 30
0.0
 10
198.886294
 20
21.067461
 30
0.0
 10
198.753255
 20
20.215207
 30
0.0
 10
197.777474
 20
19.276454
 30
0.0
 10
196.713699
 20
18.988604
 30
0.0
 10
195.857646
 20
19.102803
 30
0.0
 10
195.259014
 20
19.350498
 30
0.0
 10
194.744815
 20
19.744845
 30
0.0
 10
194.350520
 20
20.259056
 30
0.0
 10
194.102604
 20
20.857587
 30
0.0
 10
194.017794
 20
21.500003
 30
0.0
 10
194.102604
 20
22.142419
 30
0.0
 10
194.350520
 20
22.740950
 30
0.0
 10
194.744815
 20
23.255161
 30
0.0
 10
195.259014
 20
23.649508
 30
0.0
 10
195.857646
 20
23.897203
 30
0.0
 10
196.713699
 20
24.011402
 30
0.0
 10
197.777474
 20
23.723552
 30
0.0
 10
198.753255
 20
22.784799
 30
0.0
 10
198.886294
 20
21.932545
 30
0.0
 10
198.953814
 20
21.500003
 30
0.0
 11
198.953814
 21
21.500003
 31
0.0
 11
198.618794
 21
20.261505
 31
0.0
 11
197.738477
 21
19.381187
 31
0.0
 11
196.499980
 21
19.046165
 31
0.0
 11
195.863152
 21
19.130235
 31
0.0
 11
195.274606
 21
19.374019
 31
0.0
 11
194.764854
 21
19.764878
 31
0.0
 11
194.373995
 21
20.274629
 31
0.0
 11
194.130212
 21
20.863175
 31
0.0
 11
194.046142
 21
21.500003
 31
0.0
 11
194.130212
 21
22.136831
 31
0.0
 11
194.373995
 21
22.725377
 31
0.0
 11
194.764854
 21
23.235128
 31
0.0
 11
195.274606
 21
23.625987
 31
0.0
 11
195.863152
 21
23.869771
 31
0.0
 11
196.499980
 21
23.953841
 31
0.0
 11
197.738477
 21
23.618819
 31
0.0
 11
198.618794
 21
22.738501
 31
0.0
 11
198.953814
 21
21.500003
 31
0.0
  0
LINE
  5
142
100
AcDbEntity
  8
Layer_1
 62
7
100
AcDbLine
 10
238.953819
 20
38.499997
 30
0.0
 11
238.953819
 21
38.499997
 31
0.0
  0
SPLINE
  5
143
100
AcDbEntity
  8
Layer_1
 62
7
100
AcDbSpline
 70
0
 71
3
 72
22
 73
18
 74
16
 40
0.000000
 40
0.000000
 40
0.000000
 40
0.000000
 40
1.283010
 40
2.527966
 40
3.810975
 40
5.093986
 40
6.338943
 40
7.621953
 40
8.264306
 40
8.901344
 40
9.543697
 40
10.186050
 40
10.823087
 40
11.465441
 40
12.748451
 40
13.993408
 40
15.276419
 40
15.276419
 40
15.276419
 40
15.276419
 10
238.953819
 20
38.499997
 30
0.0
 10
238.886375
 20
38.067425
 30
0.0
 10
238.753487
 20
37.215110
 30
0.0
 10
237.776583
 20
36.276812
 30
0.0
 10
236.502210
 20
35.929031
 30
0.0
 10
235.214611
 20
36.277091
 30
0.0
 10
234.276597
 20
37.214015
 30
0.0
 10
233.988565
 20
38.287347
 30
0.0
 10
234.102788
 20
39.142130
 30
0.0
 10
234.350477
 20
39.741020
 30
0.0
 10
234.744832
 20
40.255135
 30
0.0
 10
235.259015
 20
40.649508
 30
0.0
 10
235.857651
 20
40.897196
 30
0.0
 10
236.713703
 20
41.011397
 30
0.0
 10
237.777479
 20
40.723546
 30
0.0
 10
238.753260
 20
39.784793
 30
0.0
 10
238.886298
 20
38.932539
 30
0.0
 10
238.953819
 20
38.499997
 30
0.0
 11
238.953819
 21
38.499997
 31
0.0
 11
238.618798
 21
37.261500
 31
0.0
 11
237.738481
 21
36.381183
 31
0.0
 11
236.499984
 21
36.046162
 31
0.0
 11
235.261486
 21
36.381182
 31
0.0
 11
234.381168
 21
37.261499
 31
0.0
 11
234.046147
 21
38.499997
 31
0.0
 11
234.130216
 21
39.136825
 31
0.0
 11
234.374000
 21
39.725371
 31
0.0
 11
234.764859
 21
40.235123
 31
0.0
 11
235.274610
 21
40.625982
 31
0.0
 11
235.863156
 21
40.869765
 31
0.0
 11
236.499984
 21
40.953835
 31
0.0
 11
237.738482
 21
40.618813
 31
0.0
 11
238.618799
 21
39.738495
 31
0.0
 11
238.953819
 21
38.499997
 31
0.0
  0
LINE
  5
144
100
AcDbEntity
  8
Layer_1
 62
7
100
AcDbLine
 10
238.953819
 20
21.500003
 30
0.0
 11
238.953819
 21
21.500003
 31
0.0
  0
SPLINE
  5
145
100
AcDbEntity
  8
Layer_1
 62
7
100
AcDbSpline
 70
0
 71
3
 72
25
 73
21
 74
19
 40
0.000000
 40
0.000000
 40
0.000000
 40
0.000000
 40
1.283011
 40
2.527967
 40
3.810978
 40
4.453331
 40
5.090369
 40
5.732722
 40
6.375075
 40
7.012112
 40
7.654465
 40
8.296818
 40
8.933856
 40
9.576209
 40
10.218562
 40
10.855599
 40
11.497952
 40
12.780963
 40
14.025920
 40
15.308931
 40
15.308931
 40
15.308931
 40
15.308931
 10
238.953819
 20
21.500003
 30
0.0
 10
238.886298
 20
21.067461
 30
0.0
 10
238.753260
 20
20.215207
 30
0.0
 10
237.777479
 20
19.276454
 30
0.0
 10
236.713704
 20
18.988604
 30
0.0
 10
235.857651
 20
19.102803
 30
0.0
 10
235.259018
 20
19.350498
 30
0.0
 10
234.744819
 20
19.744845
 30
0.0
 10
234.350525
 20
20.259056
 30
0.0
 10
234.102609
 20
20.857587
 30
0.0
 10
234.017798
 20
21.500003
 30
0.0
 10
234.102609
 20
22.142419
 30
0.0
 10
234.350525
 20
22.740950
 30
0.0
 10
234.744819
 20
23.255161
 30
0.0
 10
235.259018
 20
23.649508
 30
0.0
 10
235.857651
 20
23.897203
 30
0.0
 10
236.713704
 20
24.011402
 30
0.0
 10
237.777479
 20
23.723552
 30
0.0
 10
238.753260
 20
22.784799
 30
0.0
 10
238.886298
 20
21.932545
 30
0.0
 10
238.953819
 20
21.500003
 30
0.0
 11
238.953819
 21
21.500003
 31
0.0
 11
238.618799
 21
20.261505
 31
0.0
 11
237.738482
 21
19.381187
 31
0.0
 11
236.499984
 21
19.046165
 31
0.0
 11
235.863156
 21
19.130235
 31
0.0
 11
235.274610
 21
19.374019
 31
0.0
 11
234.764859
 21
19.764878
 31
0.0
 11
234.374000
 21
20.274629
 31
0.0
 11
234.130216
 21
20.863175
 31
0.0
 11
234.046147
 21
21.500003
 31
0.0
 11
234.130216
 21
22.136831
 31
0.0
 11
234.374000
 21
22.725377
 31
0.0
 11
234.764859
 21
23.235128
 31
0.0
 11
235.274610
 21
23.625987
 31
0.0
 11
235.863156
 21
23.869771
 31
0.0
 11
236.499984
 21
23.953841
 31
0.0
 11
237.738482
 21
23.618819
 31
0.0
 11
238.618799
 21
22.738501
 31
0.0
 11
238.953819
 21
21.500003
 31
0.0
  0
LINE
  5
146
100
AcDbEntity
  8
Layer_1
 62
7
100
AcDbLine
 10
218.953817
 20
21.500003
 30
0.0
 11
218.953817
 21
21.500003
 31
0.0
  0
LINE
  5
147
100
AcDbEntity
  8
Layer_1
 62
7
100
AcDbLine
 10
115.562355
 20
95.062368
 30
0.0
 11
195.562350
 21
95.062368
 31
0.0
  0
SPLINE
  5
148
100
AcDbEntity
  8
Layer_1
 62
7
100
AcDbSpline
 70
0
 71
3
 72
25
 73
21
 74
19
 40
0.000000
 40
0.000000
 40
0.000000
 40
0.000000
 40
1.283011
 40
2.527967
 40
3.810978
 40
4.453331
 40
5.090369
 40
5.732722
 40
6.375075
 40
7.012112
 40
7.654465
 40
8.296818
 40
8.933856
 40
9.576209
 40
10.218562
 40
10.855599
 40
11.497952
 40
12.780963
 40
14.025920
 40
15.308931
 40
15.308931
 40
15.308931
 40
15.308931
 10
218.953817
 20
21.500003
 30
0.0
 10
218.886296
 20
21.067461
 30
0.0
 10
218.753257
 20
20.215207
 30
0.0
 10
217.777477
 20
19.276454
 30
0.0
 10
216.713702
 20
18.988604
 30
0.0
 10
215.857648
 20
19.102803
 30
0.0
 10
215.259016
 20
19.350498
 30
0.0
 10
214.744817
 20
19.744845
 30
0.0
 10
214.350522
 20
20.259056
 30
0.0
 10
214.102607
 20
20.857587
 30
0.0
 10
214.017796
 20
21.500003
 30
0.0
 10
214.102607
 20
22.142419
 30
0.0
 10
214.350522
 20
22.740950
 30
0.0
 10
214.744817
 20
23.255161
 30
0.0
 10
215.259016
 20
23.649508
 30
0.0
 10
215.857648
 20
23.897203
 30
0.0
 10
216.713702
 20
24.011402
 30
0.0
 10
217.777477
 20
23.723552
 30
0.0
 10
218.753257
 20
22.784799
 30
0.0
 10
218.886296
 20
21.932545
 30
0.0
 10
218.953817
 20
21.500003
 30
0.0
 11
218.953817
 21
21.500003
 31
0.0
 11
218.618797
 21
20.261505
 31
0.0
 11
217.738480
 21
19.381187
 31
0.0
 11
216.499982
 21
19.046165
 31
0.0
 11
215.863154
 21
19.130235
 31
0.0
 11
215.274608
 21
19.374019
 31
0.0
 11
214.764856
 21
19.764878
 31
0.0
 11
214.373997
 21
20.274629
 31
0.0
 11
214.130214
 21
20.863175
 31
0.0
 11
214.046144
 21
21.500003
 31
0.0
 11
214.130214
 21
22.136831
 31
0.0
 11
214.373997
 21
22.725377
 31
0.0
 11
214.764856
 21
23.235128
 31
0.0
 11
215.274608
 21
23.625987
 31
0.0
 11
215.863154
 21
23.869771
 31
0.0
 11
216.499982
 21
23.953841
 31
0.0
 11
217.738480
 21
23.618819
 31
0.0
 11
218.618797
 21
22.738501
 31
0.0
 11
218.953817
 21
21.500003
 31
0.0
  0
LINE
  5
149
100
AcDbEntity
  8
Layer_1
 62
7
100
AcDbLine
 10
201.062353
 20
89.562365
 30
0.0
 11
201.062353
 21
60.562372
 31
0.0
  0
SPLINE
  5
14a
100
AcDbEntity
  8
Layer_1
 62
7
100
AcDbSpline
 70
0
 71
3
 72
10
 73
6
 74
4
 40
0.000000
 40
0.000000
 40
0.000000
 40
0.000000
 40
2.879228
 40
5.666697
 40
8.545926
 40
8.545926
 40
8.545926
 40
8.545926
 10
195.562350
 20
95.062368
 30
0.0
 10
196.527614
 20
94.912278
 30
0.0
 10
198.427379
 20
94.616881
 30
0.0
 10
200.616865
 20
92.427394
 30
0.0
 10
200.912263
 20
90.527629
 30
0.0
 10
201.062353
 20
89.562365
 30
0.0
 11
195.562350
 21
95.062368
 31
0.0
 11
198.342499
 21
94.313553
 31
0.0
 11
200.313538
 21
92.342514
 31
0.0
 11
201.062353
 21
89.562365
 31
0.0
  0
LINE
  5
14b
100
AcDbEntity
  8
Layer_1
 62
7
100
AcDbLine
 10
195.562350
 20
55.062369
 30
0.0
 11
115.562355
 21
55.062369
 31
0.0
  0
SPLINE
  5
14c
100
AcDbEntity
  8
Layer_1
 62
7
100
AcDbSpline
 70
0
 71
3
 72
10
 73
6
 74
4
 40
0.000000
 40
0.000000
 40
0.000000
 40
0.000000
 40
2.879229
 40
5.666698
 40
8.545926
 40
8.545926
 40
8.545926
 40
8.545926
 10
201.062353
 20
60.562372
 30
0.0
 10
200.912263
 20
59.597108
 30
0.0
 10
200.616866
 20
57.697342
 30
0.0
 10
198.427379
 20
55.507856
 30
0.0
 10
196.527614
 20
55.212459
 30
0.0
 10
195.562350
 20
55.062369
 30
0.0
 11
201.062353
 21
60.562372
 31
0.0
 11
200.313538
 21
57.782222
 31
0.0
 11
198.342499
 21
55.811184
 31
0.0
 11
195.562350
 21
55.062369
 31
0.0
  0
LINE
  5
14d
100
AcDbEntity
  8
Layer_1
 62
7
100
AcDbLine
 10
110.062351
 20
60.562372
 30
0.0
 11
110.062351
 21
89.562365
 31
0.0
  0
SPLINE
  5
14e
100
AcDbEntity
  8
Layer_1
 62
7
100
AcDbSpline
 70
0
 71
3
 72
10
 73
6
 74
4
 40
0.000000
 40
0.000000
 40
0.000000
 40
0.000000
 40
2.879228
 40
5.666697
 40
8.545926
 40
8.545926
 40
8.545926
 40
8.545926
 10
115.562355
 20
55.062369
 30
0.0
 10
114.597091
 20
55.212459
 30
0.0
 10
112.697326
 20
55.507856
 30
0.0
 10
110.507839
 20
57.697342
 30
0.0
 10
110.212442
 20
59.597108
 30
0.0
 10
110.062351
 20
60.562372
 30
0.0
 11
115.562355
 21
55.062369
 31
0.0
 11
112.782205
 21
55.811184
 31
0.0
 11
110.811167
 21
57.782222
 31
0.0
 11
110.062351
 21
60.562372
 31
0.0
  0
LINE
  5
14f
100
AcDbEntity
  8
Layer_1
 62
7
100
AcDbLine
 10
115.562355
 20
95.062368
 30
0.0
 11
115.562355
 21
95.062368
 31
0.0
  0
SPLINE
  5
150
100
AcDbEntity
  8
Layer_1
 62
7
100
AcDbSpline
 70
0
 71
3
 72
10
 73
6
 74
4
 40
0.000000
 40
0.000000
 40
0.000000
 40
0.000000
 40
2.879228
 40
5.666697
 40
8.545926
 40
8.545926
 40
8.545926
 40
8.545926
 10
110.062351
 20
89.562365
 30
0.0
 10
110.212442
 20
90.527629
 30
0.0
 10
110.507839
 20
92.427394
 30
0.0
 10
112.697325
 20
94.616881
 30
0.0
 10
114.597091
 20
94.912278
 30
0.0
 10
115.562355
 20
95.062368
 30
0.0
 11
110.062351
 21
89.562365
 31
0.0
 11
110.811167
 21
92.342514
 31
0.0
 11
112.782205
 21
94.313553
 31
0.0
 11
115.562355
 21
95.062368
 31
0.0
  0
LINE
  5
151
100
AcDbEntity
  8
Layer_1
 62
7
100
AcDbLine
 10
127.453822
 20
85.000003
 30
0.0
 11
127.453822
 21
85.000003
 31
0.0
  0
SPLINE
  5
152
100
AcDbEntity
  8
Layer_1
 62
7
100
AcDbSpline
 70
0
 71
3
 72
31
 73
27
 74
25
 40
0.000000
 40
0.000000
 40
0.000000
 40
0.000000
 40
0.642353
 40
1.279391
 40
1.921744
 40
2.564097
 40
3.201134
 40
3.843487
 40
4.485840
 40
5.122878
 40
5.765231
 40
6.407584
 40
7.044621
 40
7.686974
 40
8.329328
 40
8.966365
 40
9.608718
 40
10.251071
 40
10.888109
 40
11.530462
 40
12.172815
 40
12.809852
 40
13.452205
 40
14.094558
 40
14.731596
 40
15.373949
 40
15.373949
 40
15.373949
 40
15.373949
 10
127.453822
 20
85.000003
 30
0.0
 10
127.437464
 20
84.785272
 30
0.0
 10
127.404884
 20
84.357586
 30
0.0
 10
127.147414
 20
83.759059
 30
0.0
 10
126.755700
 20
83.244832
 30
0.0
 10
126.240783
 20
82.850545
 30
0.0
 10
125.642440
 20
82.602627
 30
0.0
 10
124.999974
 20
82.517817
 30
0.0
 10
124.357570
 20
82.602627
 30
0.0
 10
123.759040
 20
82.850545
 30
0.0
 10
123.244814
 20
83.244832
 30
0.0
 10
122.850526
 20
83.759059
 30
0.0
 10
122.602609
 20
84.357586
 30
0.0
 10
122.517798
 20
85.000003
 30
0.0
 10
122.602609
 20
85.642420
 30
0.0
 10
122.850526
 20
86.240947
 30
0.0
 10
123.244814
 20
86.755174
 30
0.0
 10
123.759040
 20
87.149461
 30
0.0
 10
124.357570
 20
87.397379
 30
0.0
 10
124.999974
 20
87.482189
 30
0.0
 10
125.642440
 20
87.397379
 30
0.0
 10
126.240783
 20
87.149461
 30
0.0
 10
126.755700
 20
86.755174
 30
0.0
 10
127.147414
 20
86.240947
 30
0.0
 10
127.404884
 20
85.642420
 30
0.0
 10
127.437464
 20
85.214734
 30
0.0
 10
127.453822
 20
85.000003
 30
0.0
 11
127.453822
 21
85.000003
 31
0.0
 11
127.369752
 21
84.363175
 31
0.0
 11
127.125969
 21
83.774629
 31
0.0
 11
126.735110
 21
83.264878
 31
0.0
 11
126.225358
 21
82.874019
 31
0.0
 11
125.636812
 21
82.630235
 31
0.0
 11
124.999984
 21
82.546165
 31
0.0
 11
124.363156
 21
82.630235
 31
0.0
 11
123.774610
 21
82.874019
 31
0.0
 11
123.264859
 21
83.264878
 31
0.0
 11
122.874000
 21
83.774629
 31
0.0
 11
122.630216
 21
84.363175
 31
0.0
 11
122.546147
 21
85.000003
 31
0.0
 11
122.630216
 21
85.636831
 31
0.0
 11
122.874000
 21
86.225377
 31
0.0
 11
123.264859
 21
86.735128
 31
0.0
 11
123.774610
 21
87.125987
 31
0.0
 11
124.363156
 21
87.369771
 31
0.0
 11
124.999984
 21
87.453841
 31
0.0
 11
125.636812
 21
87.369771
 31
0.0
 11
126.225358
 21
87.125987
 31
0.0
 11
126.735110
 21
86.735128
 31
0.0
 11
127.125969
 21
86.225377
 31
0.0
 11
127.369752
 21
85.636831
 31
0.0
 11
127.453822
 21
85.000003
 31
0.0
  0
LINE
  5
153
100
AcDbEntity
  8
Layer_1
 62
7
100
AcDbLine
 10
127.453822
 20
65.000001
 30
0.0
 11
127.453822
 21
65.000001
 31
0.0
  0
SPLINE
  5
154
100
AcDbEntity
  8
Layer_1
 62
7
100
AcDbSpline
 70
0
 71
3
 72
31
 73
27
 74
25
 40
0.000000
 40
0.000000
 40
0.000000
 40
0.000000
 40
0.642353
 40
1.279391
 40
1.921744
 40
2.564097
 40
3.201134
 40
3.843487
 40
4.485840
 40
5.122878
 40
5.765231
 40
6.407584
 40
7.044621
 40
7.686974
 40
8.329328
 40
8.966365
 40
9.608718
 40
10.251071
 40
10.888109
 40
11.530462
 40
12.172815
 40
12.809852
 40
13.452205
 40
14.094558
 40
14.731596
 40
15.373949
 40
15.373949
 40
15.373949
 40
15.373949
 10
127.453822
 20
65.000001
 30
0.0
 10
127.437464
 20
64.785269
 30
0.0
 10
127.404884
 20
64.357584
 30
0.0
 10
127.147414
 20
63.759057
 30
0.0
 10
126.755700
 20
63.244830
 30
0.0
 10
126.240783
 20
62.850543
 30
0.0
 10
125.642440
 20
62.602625
 30
0.0
 10
124.999974
 20
62.517815
 30
0.0
 10
124.357570
 20
62.602625
 30
0.0
 10
123.759040
 20
62.850543
 30
0.0
 10
123.244814
 20
63.244830
 30
0.0
 10
122.850526
 20
63.759057
 30
0.0
 10
122.602609
 20
64.357584
 30
0.0
 10
122.517798
 20
65.000001
 30
0.0
 10
122.602609
 20
65.642417
 30
0.0
 10
122.850526
 20
66.240944
 30
0.0
 10
123.244814
 20
66.755171
 30
0.0
 10
123.759040
 20
67.149458
 30
0.0
 10
124.357570
 20
67.397376
 30
0.0
 10
124.999974
 20
67.482186
 30
0.0
 10
125.642440
 20
67.397376
 30
0.0
 10
126.240783
 20
67.149458
 30
0.0
 10
126.755700
 20
66.755171
 30
0.0
 10
127.147414
 20
66.240944
 30
0.0
 10
127.404884
 20
65.642417
 30
0.0
 10
127.437464
 20
65.214732
 30
0.0
 10
127.453822
 20
65.000001
 30
0.0
 11
127.453822
 21
65.000001
 31
0.0
 11
127.369752
 21
64.363173
 31
0.0
 11
127.125969
 21
63.774627
 31
0.0
 11
126.735110
 21
63.264875
 31
0.0
 11
126.225358
 21
62.874016
 31
0.0
 11
125.636812
 21
62.630233
 31
0.0
 11
124.999984
 21
62.546163
 31
0.0
 11
124.363156
 21
62.630233
 31
0.0
 11
123.774610
 21
62.874016
 31
0.0
 11
123.264859
 21
63.264875
 31
0.0
 11
122.874000
 21
63.774627
 31
0.0
 11
122.630216
 21
64.363173
 31
0.0
 11
122.546147
 21
65.000001
 31
0.0
 11
122.630216
 21
65.636829
 31
0.0
 11
122.874000
 21
66.225374
 31
0.0
 11
123.264859
 21
66.735126
 31
0.0
 11
123.774610
 21
67.125985
 31
0.0
 11
124.363156
 21
67.369769
 31
0.0
 11
124.999984
 21
67.453838
 31
0.0
 11
125.636812
 21
67.369769
 31
0.0
 11
126.225358
 21
67.125985
 31
0.0
 11
126.735110
 21
66.735126
 31
0.0
 11
127.125969
 21
66.225374
 31
0.0
 11
127.369752
 21
65.636829
 31
0.0
 11
127.453822
 21
65.000001
 31
0.0
  0
LINE
  5
155
100
AcDbEntity
  8
Layer_1
 62
7
100
AcDbLine
 10
188.453818
 20
85.000003
 30
0.0
 11
188.453818
 21
85.000003
 31
0.0
  0
SPLINE
  5
156
100
AcDbEntity
  8
Layer_1
 62
7
100
AcDbSpline
 70
0
 71
3
 72
25
 73
21
 74
19
 40
0.000000
 40
0.000000
 40
0.000000
 40
0.000000
 40
0.642353
 40
1.279391
 40
1.921744
 40
2.564097
 40
3.201134
 40
3.843487
 40
5.126498
 40
6.371455
 40
7.654465
 40
8.937476
 40
10.182433
 40
11.465443
 40
12.107796
 40
12.744834
 40
13.387187
 40
14.029540
 40
14.666577
 40
15.308931
 40
15.308931
 40
15.308931
 40
15.308931
 10
188.453818
 20
85.000003
 30
0.0
 10
188.437460
 20
84.785272
 30
0.0
 10
188.404879
 20
84.357587
 30
0.0
 10
188.147416
 20
83.759056
 30
0.0
 10
187.755676
 20
83.244845
 30
0.0
 10
187.240856
 20
82.850498
 30
0.0
 10
186.642153
 20
82.602803
 30
0.0
 10
185.787309
 20
82.488604
 30
0.0
 10
184.714000
 20
82.776454
 30
0.0
 10
183.777093
 20
83.715207
 30
0.0
 10
183.428934
 20
85.000003
 30
0.0
 10
183.777093
 20
86.284799
 30
0.0
 10
184.714000
 20
87.223552
 30
0.0
 10
185.787309
 20
87.511402
 30
0.0
 10
186.642153
 20
87.397203
 30
0.0
 10
187.240856
 20
87.149508
 30
0.0
 10
187.755676
 20
86.755161
 30
0.0
 10
188.147416
 20
86.240950
 30
0.0
 10
188.404879
 20
85.642419
 30
0.0
 10
188.437460
 20
85.214734
 30
0.0
 10
188.453818
 20
85.000003
 30
0.0
 11
188.453818
 21
85.000003
 31
0.0
 11
188.369749
 21
84.363175
 31
0.0
 11
188.125965
 21
83.774629
 31
0.0
 11
187.735106
 21
83.264878
 31
0.0
 11
187.225355
 21
82.874019
 31
0.0
 11
186.636809
 21
82.630235
 31
0.0
 11
185.999981
 21
82.546165
 31
0.0
 11
184.761483
 21
82.881187
 31
0.0
 11
183.881166
 21
83.761505
 31
0.0
 11
183.546146
 21
85.000003
 31
0.0
 11
183.881166
 21
86.238501
 31
0.0
 11
184.761483
 21
87.118819
 31
0.0
 11
185.999981
 21
87.453841
 31
0.0
 11
186.636809
 21
87.369771
 31
0.0
 11
187.225355
 21
87.125987
 31
0.0
 11
187.735106
 21
86.735128
 31
0.0
 11
188.125965
 21
86.225377
 31
0.0
 11
188.369749
 21
85.636831
 31
0.0
 11
188.453818
 21
85.000003
 31
0.0
  0
LINE
  5
157
100
AcDbEntity
  8
Layer_1
 62
7
100
AcDbLine
 10
188.453818
 20
65.000001
 30
0.0
 11
188.453818
 21
65.000001
 31
0.0
  0
SPLINE
  5
158
100
AcDbEntity
  8
Layer_1
 62
7
100
AcDbSpline
 70
0
 71
3
 72
25
 73
21
 74
19
 40
0.000000
 40
0.000000
 40
0.000000
 40
0.000000
 40
0.642353
 40
1.279391
 40
1.921744
 40
2.564097
 40
3.201134
 40
3.843487
 40
5.126498
 40
6.371455
 40
7.654465
 40
8.937476
 40
10.182433
 40
11.465443
 40
12.107796
 40
12.744834
 40
13.387187
 40
14.029540
 40
14.666577
 40
15.308931
 40
15.308931
 40
15.308931
 40
15.308931
 10
188.453818
 20
65.000001
 30
0.0
 10
188.437460
 20
64.785270
 30
0.0
 10
188.404879
 20
64.357585
 30
0.0
 10
188.147416
 20
63.759054
 30
0.0
 10
187.755676
 20
63.244843
 30
0.0
 10
187.240856
 20
62.850496
 30
0.0
 10
186.642153
 20
62.602800
 30
0.0
 10
185.787309
 20
62.488602
 30
0.0
 10
184.714000
 20
62.776452
 30
0.0
 10
183.777093
 20
63.715205
 30
0.0
 10
183.428934
 20
65.000001
 30
0.0
 10
183.777093
 20
66.284796
 30
0.0
 10
184.714000
 20
67.223549
 30
0.0
 10
185.787309
 20
67.511399
 30
0.0
 10
186.642153
 20
67.397201
 30
0.0
 10
187.240856
 20
67.149506
 30
0.0
 10
187.755676
 20
66.755159
 30
0.0
 10
188.147416
 20
66.240948
 30
0.0
 10
188.404879
 20
65.642416
 30
0.0
 10
188.437460
 20
65.214732
 30
0.0
 10
188.453818
 20
65.000001
 30
0.0
 11
188.453818
 21
65.000001
 31
0.0
 11
188.369749
 21
64.363173
 31
0.0
 11
188.125965
 21
63.774627
 31
0.0
 11
187.735106
 21
63.264875
 31
0.0
 11
187.225355
 21
62.874016
 31
0.0
 11
186.636809
 21
62.630233
 31
0.0
 11
185.999981
 21
62.546163
 31
0.0
 11
184.761483
 21
62.881185
 31
0.0
 11
183.881166
 21
63.761502
 31
0.0
 11
183.546146
 21
65.000001
 31
0.0
 11
183.881166
 21
66.238499
 31
0.0
 11
184.761483
 21
67.118817
 31
0.0
 11
185.999981
 21
67.453838
 31
0.0
 11
186.636809
 21
67.369769
 31
0.0
 11
187.225355
 21
67.125985
 31
0.0
 11
187.735106
 21
66.735126
 31
0.0
 11
188.125965
 21
66.225374
 31
0.0
 11
188.369749
 21
65.636829
 31
0.0
 11
188.453818
 21
65.000001
 31
0.0
  0
ENDSEC
  0
SECTION
  2
OBJECTS
  0
DICTIONARY
  5
C
330
0
100
AcDbDictionary
  3
ACAD_GROUP
350
D
  3
ACAD_MLINESTYLE
350
17
  0
DICTIONARY
  5
D
330
C
100
AcDbDictionary
  0
DICTIONARY
  5
1A
330
C
100
AcDbDictionary
  0
DICTIONARY
  5
17
330
C
100
AcDbDictionary
  3
STANDARD
350
18
  0
DICTIONARY
  5
19
330
C
100
AcDbDictionary
  0
ENDSEC
  0
EOF
